<?xml version="1.0" encoding="utf-8" ?>
<svg baseProfile="full" height="300mm" version="1.1" viewBox="0,0,200,300" width="200mm" xmlns="http://www.w3.org/2000/svg" xmlns:ev="http://www.w3.org/2001/xml-events" xmlns:xlink="http://www.w3.org/1999/xlink"><defs /><rect fill="#222222" height="300" width="200" x="0" y="0" /><text fill="#FFFFFF" style="font-size:12px; font-family:Futura; font-weight:bold;" x="10" y="20">All Runs</text><text fill="#FFFFFF" style="font-size:4px; font-family:Futura" x="10" y="280">ATHLETE</text><text fill="#FFFFFF" style="font-size:9px; font-family:Futura" x="10" y="290">Bill Chen</text><text fill="#FFFFFF" style="font-size:4px; font-family:Futura" x="120" y="280">STATISTICS</text><text fill="#FFFFFF" style="font-size:3px; font-family:Futura" x="120" y="285">Number: 22</text><text fill="#FFFFFF" style="font-size:3px; font-family:Futura" x="120" y="290">Weekly: 1.3</text><text fill="#FFFFFF" style="font-size:3px; font-family:Futura" x="141" y="285">Total: 50.3 km</text><text fill="#FFFFFF" style="font-size:3px; font-family:Futura" x="141" y="290">Avg: 2.3 km</text><text fill="#FFFFFF" style="font-size:3px; font-family:Futura" x="167" y="285">Min: 0.8 km</text><text fill="#FFFFFF" style="font-size:3px; font-family:Futura" x="167" y="290">Max: 4.9 km</text><polyline fill="none" points="25.602400523610413,32.97959924861789 19.320115556940436,40.326580399181694 24.764762527309358,63.10207373066805 33.76937098056078,66.77551940456033 40.67988444492221,59.91841609706171 34.39759947732091,37.142891431227326 24.34594352915883,33.46939871786162 19.320115556940436,40.81637831265107 25.602400523610413,64.3265562702436 34.39759947732091,67.51020784024149 40.05165594816208,59.673519174102694 34.39759947732091,37.142891431227326 31.465866492129862,33.46939871786162 24.764762527309358,33.46939871786162 19.320115556940436,41.79597383015789 25.602400523610413,64.0816598138772 36.4916944662109,66.04083073674701 42.14575093705207,56.000062226783484 32.931732984259725,34.93879650300369 26.440038519911468,32.24489985103719 21.83302954211831,34.204097726847976 18.691887059248984,42.285771432798356 25.602400523610413,65.79593446152285 37.957560958340764,65.30614183470607 40.470474945381284,55.26537013752386 33.35055198241025,35.918394507374614 22.670667538419366,34.204097726847976 17.85424906387925,44.97965639596805 24.974172026850283,63.10207373066805 30.628228497691453,68.0 35.65405647084117,67.26531172078103 41.098703442141414,57.71434286120348 34.39759947732091,37.142891431227326 29.581181001849473,32.24489985103719 25.183581525459886,32.97959924861789 19.11070605739951,42.530670195119455 25.811810022220016,65.06124548264779 36.91051346436143,66.53062320756726 40.26106544584036,62.6122805334162 40.05165594816208,53.306190092349425 30.628228497691453,33.46939871786162 24.974172026850283,32.0 19.11070605739951,35.918394507374614 36.91051346436143,44.489859363297 37.957560958340764,40.5714793689549" stroke="#4dd2ff" stroke-linecap="round" stroke-linejoin="round" stroke-width="0.5"><title>2021-10-01 2.5km</title></polyline><polyline fill="none" points="82.71868586819619,44.407855624798685 83.46584873273969,48.25252436322626 75.54592237062752,43.00979204650503 70.61464746668935,44.23309774242807 68.82145659159869,47.55349434935488 72.70670348592103,63.805865634116344 76.74138295371085,67.1262228860287 80.47719727549702,66.77671191026457 83.76471387781203,60.835014012875035 79.43116926494986,45.63116028520744 73.45386635046452,43.18455005821306 68.67202401999384,47.90300939325243 72.55727091338485,63.805865634116344 75.09762465208769,66.60195639496669 80.02889955695719,66.95146740740165 84.81074188742787,59.96123310714029 78.98287154641002,44.75737133482471 72.55727091338485,43.35930805176031 68.67202401999384,50.174855375662446 74.20102921500802,65.90293414855842 78.98287154641002,67.82524461415596 83.91414645127952,65.90293414855842 83.3164161592722,53.14572617516387 78.23570868186653,44.23309774242807 71.95954062137753,43.18455005821306 69.26975431013852,50.69912708143238 73.90216406900436,65.90293414855842 80.32776470202953,66.95146740740165 83.76471387781203,62.75733037805185 79.28173669148237,44.93212916201446 71.66067547630519,43.00979204650503 68.52259144652635,48.77679667971097 73.45386635046452,65.72817854094319 79.87946698348969,68.0 84.36244416888803,65.0291559244506 78.68400640040636,44.23309774242807 71.66067547630519,43.53406602691393 68.82145659159869,50.000098103657365 72.55727091338485,64.5048887678422 80.17833212949336,66.42720086092595 83.16698358673602,61.00977013830561 79.1323041189462,44.58261348865926 74.35046178754419,43.18455005821306 68.67202401999384,48.95155408140272 73.75273149646819,65.0291559244506 76.14365266170353,67.1262228860287 81.2243601391092,66.60195639496669 83.91414645127952,59.2622080501169 80.17833212949336,44.93212916201446 74.20102921500802,42.66027596674394 68.52259144652635,48.25252436322626 73.15500120446086,64.5048887678422 77.33911324478686,66.95146740740165 81.67265785764903,65.90293414855842 83.46584873273969,61.18452624580823 81.0749275656417,49.82534081256017 83.91414645127952,46.33019111293834 76.89081552624702,33.747590940096416 80.32776470202953,32.0" stroke="#4dd2ff" stroke-linecap="round" stroke-linejoin="round" stroke-width="0.5"><title>2021-09-29 3.3km</title></polyline><polyline fill="none" points="112.32476722821593,41.059656819328666 116.60587626881897,59.6556803570129 124.76036967989057,67.04636503383517 134.34189943876117,60.84772791247815 131.2839644094929,42.25171421444975 123.74105800315738,33.66888688830659 116.60587626881897,33.66888688830659 113.75180357415229,36.76824497198686 114.97497758641839,51.54974025138654 123.12947099748999,65.85432075872086 130.2646527327597,64.42386679491028 132.7110007572919,59.8940899183508 127.41058003902435,37.72189275640994 120.88698530942202,32.238412488019094 112.93635423388332,38.91395191778429 117.42132561001927,61.32454675808549 127.00285536795855,65.61591182742268 132.7110007572919,56.55635376041755 126.79899303335696,35.814596785465255 118.44063728582114,32.715237389085814 112.93635423388332,37.48348084790632 121.70243465155363,65.61591182742268 132.0994137506932,62.27818414615467 127.81830470915884,38.67554013617337 120.07153596915305,32.715237389085814 112.52862956374884,39.1523636742495 118.44063728582114,62.51659343065694 125.16809435095638,65.61591182742268 132.3032760862261,59.8940899183508 127.61444237362593,37.72189275640994 120.68312297388911,32.0 112.52862956374884,38.67554013617337 118.44063728582114,62.75500268978067 126.18740602768958,68.0 133.93417476769537,63.708639472257346 132.91486309096217,47.97358093247749 126.59513069782406,36.29142092959955 120.88698530942202,32.47682495159097 114.363390580751,35.33777254051529 113.3440789040178,39.629187111742795 124.76036967989057,61.562956142937765 131.69168908055872,54.887483826838434 127.81830470915884,39.86759879253805 119.25608662795275,38.437128328718245 115.58656459208578,46.543115615611896 120.88698530942202,57.748402955709025 131.08010207396,61.80136550287716 130.46851506922394,50.83450884139165 124.14878267422318,41.53647985239513" stroke="#4dd2ff" stroke-linecap="round" stroke-linejoin="round" stroke-width="0.5"><title>2021-09-26 2.9km</title></polyline><polyline fill="none" points="177.91357750166208,67.32076219271403 181.54365892335773,62.22646947391331 177.47796773072332,46.77368262282107 171.52463419735432,43.71706979209557 166.7329267207533,49.83028963138349 171.8150407122448,65.96228571597021 177.47796773072332,67.6603811327368 181.10804915241897,60.86798868421465 176.46154493186623,45.24537693569437 170.36300814244896,44.05669372761622 166.8781299777329,48.8114212754881 171.08902442641556,64.94342760334257 175.1547156199813,67.8301905754488 178.4943905286491,67.15095269610174 181.10804915241897,61.03779884579126 177.47796773072332,46.943494275794365 170.36300814244896,44.05669372761622 166.8781299777329,49.32085553405341 171.08902442641556,64.94342760334257 178.4943905286491,67.15095269610174 181.39845566637814,56.45291817409452 176.75195144675672,45.75481232604943 169.3465853445232,44.73594138282351 166.7329267207533,50.67934610019438 171.08902442641556,65.11323733336758 178.34918727260083,66.98114318121225 181.10804915241897,61.37741911469493 176.31634167488664,45.41518875048496 170.0726016284898,44.05669372761622 167.16853649076074,51.018968562129885 171.52463419735432,65.62266641680617 176.17113841883838,67.6603811327368 180.38203286845237,65.62266641680617 180.9628458963707,60.358558091451414 176.6067481888458,45.75481232604943 170.65341465640813,44.05669372761622 167.16853649076074,50.84915733989328 173.12187002412975,67.15095269610174 176.0259351618588,68.0 180.9628458963707,64.09437868208624 178.93000029865652,50.16991227248218 181.25325241032988,46.943494275794365 174.2834960790351,34.37738339812495 158.3111378196627,38.28307704941835 181.68886218126863,32.0" stroke="#4dd2ff" stroke-linecap="round" stroke-linejoin="round" stroke-width="0.5"><title>2021-09-21 2.9km</title></polyline><polyline fill="none" points="23.59712599311024,79.2000761985546 27.414223958738148,78.3360690663103 33.81709796562791,88.8481185710989 33.20143700344488,91.15211857028771 26.552298611961305,86.40011429670267 22.242671876214445,90.1441190505866 25.5672410717234,104.83203821990173 30.738793154712766,107.42400749761146 33.32456919550896,106.2720217613969 34.67902331193909,101.95206656504888 31.354454116895795,89.28011886763852 26.429166419431567,86.40011429670267 22.98146503092721,88.70411844132468 22.365804069209844,91.72811796108726 26.059769841842353,104.68803978164215 30.98505753930658,107.13601115497295 34.67902331193909,101.52007029089145 31.10818973183632,88.8481185710989 26.429166419431567,86.40011429670267 22.48893626080826,90.57611893652938 26.921695189084858,105.84002685896121 30.738793154712766,107.56800564599689 34.67902331193909,103.24805456411559 31.10818973183632,88.56011829676572 25.5672410717234,86.83211537078023 22.48893626080826,91.15211857028771 26.306034226436168,104.83203821990173 28.27614930551499,106.84801475179847 32.46264384826645,106.56001828692388 34.67902331193909,101.95206656504888 30.98505753930658,88.27211796108168 26.18290203390643,85.96811308525503 22.365804069209844,91.00811868486926 25.936637648846954,104.40004286030307 31.970115078613162,106.56001828692388 34.67902331193909,102.2400640049018 30.861925346776843,87.84011734451633 24.58218353241682,85.8241126507055 22.119539683684707,90.86411878408398 26.306034226436168,105.84002685896121 29.876867807470262,107.28000933374278 34.555891120340675,102.6720600501867 31.354454116895795,88.8481185710989 26.79856299655512,86.1121135042049 21.750143106095493,90.57611893652938 26.059769841842353,104.2560443765251 31.10818973183632,106.70401652692817 34.67902331193909,102.38406270206906 31.47758630849421,89.4241189364111 28.522413690574467,86.5441146697849 24.08965476276353,86.6881150280824 21.627010914497077,91.87211777060293 23.4739938005805,102.09606529271696 29.261206845287234,107.42400749761146 33.94023015815765,104.68803978164215 35.540948659647256,100.80007619620301 34.432758927345276,95.47210805478971 28.522413690574467,86.25611390767153 24.335919147823006,85.96811308525503 21.134482144378126,90.57611893652938 25.936637648846954,104.40004286030307 32.21637946367264,106.99201296106912 34.92528769746423,101.95206656504888 31.10818973183632,88.41611813672353 25.19784449459985,85.39211125602014 21.011349951382726,90.57611893652938 25.5672410717234,104.2560443765251 30.98505753930658,107.56800564599689 33.69396577263251,106.56001828692388 35.91034523677081,101.95206656504888 29.630603422876447,85.39211125602014 24.459051339887083,86.1121135042049 20.88821775931865,90.28811902785674 25.444108879659325,104.54404132883064 32.339511656202376,108.0 35.41781646711752,98.06409516197164 32.83204042632133,92.01611756451894 34.80215550493449,89.13611878408119 29.01494246069342,80.35208485426847 39.11178224068135,72.0" stroke="#4dd2ff" stroke-linecap="round" stroke-linejoin="round" stroke-width="0.5"><title>2021-09-11 4.9km</title></polyline><polyline fill="none" points="78.29636417608708,77.50592430634424 72.32080664392561,77.50592430634424 68.69925662409514,82.58830252673943 76.30451166536659,106.09413388289977 84.63407670892775,88.94125714886468 77.39097667019814,105.45884477405343 82.64222419820726,81.74124038626906 80.46929418668151,78.14122229011264 74.31265915371478,75.81179536459967 68.5181791242212,78.564754167106 66.52632661256939,82.37653702544048 68.15602412167937,92.75302024080884 72.86403914634138,104.61179231503047 78.1152866743505,108.0 83.54761170316488,105.88237086904701 85.72054171469063,90.00008095870726 80.83144918922335,77.08239220525138 75.94235666282475,77.29415826743934 77.57205417193472,88.30596259434242 70.51003163401037,91.69419788836967 69.60464412905276,95.71771984850056 74.85589165706187,106.30589687463362 84.27192170731723,103.55297623737715 84.09084420558065,84.49419103143737 79.02067417930812,75.81179536459967 74.85589165706187,74.96473035495728 69.9667991315946,78.77652007178403 72.86403914634138,101.22357889381237 79.74498418346047,105.88237086904701 86.44485171884298,101.0118153647054 81.55575919244438,78.77652007178403 76.30451166536659,76.23532773402985 69.60464412905276,80.25888077809941 72.68296164553612,102.28239620407112 81.01252668909729,106.72942279058043 86.62592921871692,87.24713788868394 83.36653420235962,80.04711503034923 74.31265915371478,75.38826290494762 68.5181791242212,82.37653702544048 73.2261941479519,101.43534240045119 81.01252668909729,106.30589687463362 86.44485171884298,101.0118153647054 84.45299920905381,84.49419103143737 86.8070067204535,81.31770918169059 80.10713918507099,72.0" stroke="#4dd2ff" stroke-linecap="round" stroke-linejoin="round" stroke-width="0.5"><title>2021-08-16 2.6km</title></polyline><polyline fill="none" points="130.0671600261703,73.2500091935508 133.2737441668287,95.00006328406744 126.43303133454174,74.0000143928919 118.95100167579949,72.0 112.11028884444386,80.0000474108383 119.37854622770101,104.75002252776176 126.64680361095816,108.0 132.84619961492717,104.75002252776176 134.55637782253325,99.75004845531657 129.2120709232986,77.25003416906111 119.37854622770101,72.5000037571881 112.7516056727618,80.5000494744163 118.30968484841287,103.00003280630335 128.14320954214782,107.25000559585169 134.12883327156305,99.25005046650767 129.42584319971502,77.500035505509 121.08872443530709,72.25000189128332 112.11028884444386,80.5000494744163 119.16477395128459,103.50003000185825 127.92943726759404,107.25000559585169 133.91506099514663,100.50004524108954 131.3497936828062,79.25004411721602 121.73004126362503,72.0 114.46178388036788,75.00002095405944 112.32406112086028,79.75004633911885 119.59231850504875,104.0000270914752 125.79171450808644,107.75000189151615 133.2737441668287,99.75004845531657 130.92224913090467,81.00005143275484" stroke="#4dd2ff" stroke-linecap="round" stroke-linejoin="round" stroke-width="0.5"><title>2021-08-08 1.8km</title></polyline><polyline fill="none" points="177.20458015426993,84.25537945749238 171.74656488653272,73.02128399931826 164.76030534226447,72.0 159.5206106863916,76.59577459190041 164.10534351039678,101.61706045502797 171.74656488653272,108.0 178.73282442986965,104.93619112600572 180.91603053640574,99.5745162346866 176.98625954333693,81.44686049665324 171.30992366559803,72.25532104098238 161.48549618199468,73.78724671551026 159.08396946359426,81.44686049665324 166.9435114506632,105.70214370917529 173.7114503821358,107.48936545848846 179.16946565080434,99.82983435643837 175.2396946568042,76.85109514649957 171.74656488653272,72.7659630398266 164.10534351039678,72.25532104098238 159.30229007452726,80.68090021354146 165.85190839599818,103.91492063668557 178.07786259800196,105.44682620861568 180.91603053640574,96.51069666072726 175.45801526866853,88.85113070416264 159.08396946359426,82.46814049780369 167.3801526715979,82.97878033504821" stroke="#4dd2ff" stroke-linecap="round" stroke-linejoin="round" stroke-width="0.5"><title>2021-06-28 1.3km</title></polyline><polyline fill="none" points="21.826528031378984,113.98622129531577 18.42976046167314,122.67591968970373 22.88801789842546,141.793142859824 27.34627533517778,147.25517801055685 34.77670439705253,147.50345203303732 38.17347196768969,143.779338931432 35.201300342567265,122.92419631336816 30.530744933523238,112.99311085767113 24.798699656501412,112.0 18.005164514295757,116.71727282949723 23.3126138439402,142.04141746019013 31.379936824552715,148.0 37.96117399446666,144.77243633614853 39.234961833804846,139.55867026932538 33.92751250322908,117.95865884027444 25.647891549393535,112.74483318324201 18.217462487518787,119.44832118600607 23.949507764540613,141.793142859824 28.407765201292932,147.50345203303732 33.715214530937374,147.75172602944076 38.59806791506708,142.28969203541055 35.83819426223636,123.17247291048989 29.469255066476762,112.99311085767113 18.42976046167314,116.96555008459836 22.88801789842546,142.04141746019013 27.98316925484687,147.25517801055685 38.17347196768969,142.78624110575765 35.41359831672162,122.42764303903095 31.16763885319233,113.48966612899676 19.27895235363394,115.9724409088958 19.91584627237171,130.62075862567872 28.407765201292932,147.25517801055685 38.810365887358785,143.53106451430358 36.05049223545939,120.19315200368874 40.72104764636606,119.944875090383 41.99483548570424,125.65523744327947" stroke="#4dd2ff" stroke-linecap="round" stroke-linejoin="round" stroke-width="0.5"><title>2021-06-20 2.0km</title></polyline><polyline fill="none" points="70.63918638788164,112.25175014371052 65.68804187327623,122.82523210626096 70.20865208189934,144.22380180028267 76.02086520846933,148.0 82.90941409952939,146.74126793257892 86.56895569711924,140.95109184458852 81.833078334108,119.80424205493182 74.94452944397926,112.0 65.9033090248704,117.0349978050217 68.05598055291921,133.65041494905017 74.72926229145378,146.4895214389544 82.26361264009029,146.4895214389544 86.13842139113694,142.7133208415471 84.63155132252723,129.87419397127815 71.28498784545809,112.755250350805 65.04224041383713,118.04199608694762 72.57659076247364,145.7342817990575 77.3124681264162,147.24476083973423 86.78422284964472,141.2028389237821 83.55521555710584,117.79024655697867 73.22239222098142,113.00700041372329 65.68804187327623,118.79724451922812 71.06972069386393,142.2098269755952 78.38880388997495,147.7482536402531 88.29109291918576,141.2028389237821 82.26361264009029,120.81123916478828 86.78422284964472,117.0349978050217" stroke="#4dd2ff" stroke-linecap="round" stroke-linejoin="round" stroke-width="0.5"><title>2021-06-12 1.5km</title></polyline><polyline fill="none" points="127.15672234166414,112.0 131.86243189312518,121.63063185173087 121.27458540443331,115.2102153734304 114.60816354118288,117.96182476519607 113.03959369193763,122.54783265269361 118.52958816662431,144.78983320761472 124.80386756639928,147.5414050356485 131.2742181988433,145.01913099363446 133.23493051156402,138.3694853547495 126.76457988005131,117.73252411535941 117.35316077806056,116.12741889199242 113.03959369193763,123.92363312561065 119.509944322519,144.56053539761342 127.94100726768374,147.5414050356485 133.62707297410816,140.43317066784948 128.13707849849015,119.56692862976342 118.13744570314884,115.43951628939249 112.84352246019989,123.23573299893178 118.72565939743072,142.9554500482045 124.01958264224231,148.0 128.92136342357844,147.5414050356485 133.8231442058459,139.97457410139032 127.54886480420828,118.64972656732425 124.60779633559287,115.43951628939249 117.35316077806056,115.89811804890633 113.62780738435686,123.92363312561065 119.70601555425674,145.70702420501038 128.5292209610343,147.08280997374095 133.23493051156402,139.51597743784077 127.15672234166414,117.73252411535941 118.13744570314884,115.89811804890633 113.23566492181271,123.69433310767636 119.11780185997486,145.24842875497416 129.509577116929,147.5414050356485 133.0388592807576,138.82808226021007 126.76457988005131,117.27392274490558 117.54923200979829,115.89811804890633 113.23566492181271,123.69433310767636 119.11780185997486,144.33123756363057 125.58815249148756,147.77070252993144 132.254574354738,145.01913099363446 133.23493051156402,138.14018686534837 125.7842237232253,116.12741889199242 116.56887585390359,116.35671971132979 113.03959369193763,124.38223309000023 119.70601555425674,145.70702420501038 130.4899332728237,145.93632189417258 133.23493051156402,139.28667906927876 125.9802949540317,117.50322344223969 122.0588703295216,115.43951628939249 114.21602107770741,117.96182476519607 113.03959369193763,126.90453115478158 120.09815801680088,145.70702420501038 128.13707849849015,147.31210751691833 133.8231442058459,141.12106533534825 128.92136342357844,121.17203130596317" stroke="#4dd2ff" stroke-linecap="round" stroke-linejoin="round" stroke-width="0.5"><title>2021-05-01 3.3km</title></polyline><polyline fill="none" points="171.25474779307842,112.0 176.27373896352947,120.21745304891374 165.56655779946595,119.43484004645143 161.21676545217633,125.500082149636 166.4030563281849,146.04349627450574 172.42584573291242,148.0 177.77943631447852,145.65219528088346 164.89735897723585,138.8044144868618 170.92014838196337,147.80434972059447 172.76044514402747,120.80441258358769 167.5741542680189,119.04353342077229 162.55516309849918,121.97833109321073 161.71866456978023,127.84791246091481 167.90875367913395,146.04349627450574 173.09504455514252,147.80434972059447 178.11403572559357,145.45654475328047 178.78323454782367,135.08703714888543 172.76044514402747,120.41310624766629 168.74525220692158,119.04353342077229 163.3916616262868,121.39137193153147 161.71866456978023,127.45660761592444 168.41065279673785,146.04349627450574 175.269940729253,146.82609801332 178.11403572559357,144.08699047821574 177.94673602003604,131.36965233634692" stroke="#4dd2ff" stroke-linecap="round" stroke-linejoin="round" stroke-width="0.5"><title>2021-04-29 1.3km</title></polyline><polyline fill="none" points="35.381678820587695,156.53149850387126 25.048855485394597,152.0 19.667176664806902,159.80424205493182 26.340458401478827,183.46856144070625 35.16641166713089,187.49650725349784 40.978624794632196,179.18886154214852 34.09007590357214,155.02099996129982 24.618321179412305,152.755250350805 20.312978122383356,158.79724451922812 27.63206131849438,183.97205504006706 35.59694597218186,187.24476083973423 35.59694597218186,153.76225044438615 25.694656943902373,152.50350026017986 19.667176664806902,159.80424205493182 25.479389790445566,183.46856144070625 36.02748027909547,187.49650725349784 41.409159099683166,180.44759760564193 34.73587736207992,155.77624935284257 23.541985414922237,153.0070004137233 19.236642357893288,161.06298837601207 26.77099270746112,184.97904191957787 33.22900729253888,188.0 39.47175472415984,185.48253519949503 41.409159099683166,178.4336195839569 34.73587736207992,155.52449958305806 23.757252568379045,152.755250350805 19.882443816401064,163.32873007422313 26.125191248953342,184.47554853302427 37.10381604358554,186.23777491925284 41.19389194622636,180.19585044588894 33.444274445064366,153.76225044438615 22.680916803888977,154.26575033157133 20.312978122383356,163.83222793671302 26.340458401478827,184.22380180028267 32.15267152804881,187.7482536402531 38.82595326565206,185.7342817990575 41.19389194622636,179.18886154214852 33.0137401400134,153.76225044438615 21.389313886873424,154.76925011142157 18.590840899385512,161.06298837601207 20.52824527490884,167.6084585066419" stroke="#4dd2ff" stroke-linecap="round" stroke-linejoin="round" stroke-width="0.5"><title>2021-04-10 2.5km</title></polyline><polyline fill="none" points="82.49051616340876,156.62165316892788 72.09078492037952,152.24324513599277 66.0589407980442,159.54058722406626 72.29877954348922,183.37840992491692 81.24254841450602,186.7837929870002 87.48238716181368,178.0270834916737 81.65853766351938,156.37840849743225 73.54674729332328,152.0 66.0589407980442,159.29734286130406 71.25880641955882,181.67571650235914 76.66666666697711,186.29731000075117 83.53048928827047,185.56758532929234 87.27439253591001,177.29735619481653 78.7466129148379,152.48649024497718 71.0508117955178,152.72973532928154 66.0589407980442,160.75680865324102 72.09078492037952,182.40544240921736 80.41056991554797,186.7837929870002 87.27439253591001,179.9730218180921 82.07452691439539,158.0811206602957 72.71476879436523,152.48649024497718 66.0589407980442,161.00005286140367 71.0508117955178,181.67571650235914 80.20257529057562,187.27027586917393 87.48238716181368,180.70274826558307 80.82655916456133,155.8919190762099 70.01083867065609,153.70271540666 65.85094617214054,163.91898135631345 73.33875266928226,185.3243437211495 82.49051616340876,186.29731000075117 87.48238716181368,178.2703258721158 81.45054303947836,156.86489781481214 71.46680104546249,152.9729803870432 65.64295154809952,161.72978533268906 71.46680104546249,184.3513770289719 78.12262904178351,188.0 83.11450003832579,186.7837929870002 87.89837641082704,178.75681055733003 79.99458066467196,154.4324501948431 69.17886017076671,153.70271540666 65.43495692312717,163.91898135631345 74.17073116824031,185.3243437211495 80.41056991554797,187.02703444100916 87.06639791093767,181.43247448140755" stroke="#4dd2ff" stroke-linecap="round" stroke-linejoin="round" stroke-width="0.5"><title>2021-04-04 2.7km</title></polyline><polyline fill="none" points="127.36699354462326,154.73105384712107 118.6627794066444,152.4965554815717 113.3553317617625,157.21382731269114 114.20452338457108,174.59316800441593 121.84724799357355,186.7586298850365 132.88673909474164,184.02761332131922 131.40065375342965,166.89661872433499 125.45631239190698,153.73794372496195 116.32750244252384,153.9862212948501 113.5676296679303,164.66213194583543 120.36116265226156,185.51725911395624 126.73009982611984,188.0 133.09903699997813,184.27588768606074 129.0653767902404,158.95176717545837 124.18252495676279,153.24138850625604 116.75209825392812,153.48966612946242 113.3553317617625,157.46210451447405 115.47831081878394,173.1035152755212 120.99805636983365,186.01380750117823 128.00388726126403,187.00690396060236 133.09903699997813,182.5379665833898 125.03171658050269,153.48966612946242 114.62911919690669,154.97933131223544 113.5676296679303,171.1173101658933 120.99805636983365,186.51035578362644 126.09320610947907,188.0 132.24984537716955,184.27588768606074 133.73593071755022,177.8207456720993 126.73009982611984,154.73105384712107 117.8135877829045,152.99311085790396 112.7184380441904,160.68970575067215 118.23818359524012,183.03451560135 128.4284830726683,186.7586298850365 133.94822862371802,179.06212051492184 127.57929144892842,155.47588616260327 119.2996731242165,152.0 112.5061401380226,158.70349013106897 118.6627794066444,183.03451560135 124.18252495676279,187.50345203303732 128.8530788840726,186.7586298850365 133.73593071755022,178.56557065644301 128.00388726126403,156.46899554901756 117.38899197150022,152.99311085790396 112.7184380441904,161.18625939334743 119.72426893468946,185.51725911395624 126.30550401471555,187.75172602990642 132.46214328240603,184.5241620244924 134.16052652802318,178.06902069342323 127.36699354462326,155.2276087505743 122.90873752254993,152.4965554815717 115.69060872588307,153.9862212948501 113.1430338555947,163.17247291072272 120.99805636983365,185.76553332107142 128.4284830726683,187.00690396060236 133.31133490614593,182.28969203471206 126.94239773135632,154.97933131223544 120.78575846459717,152.0 114.41682129073888,154.73105384712107 113.99222547933459,164.41385550540872 119.72426893468946,167.3931710519828" stroke="#4dd2ff" stroke-linecap="round" stroke-linejoin="round" stroke-width="0.5"><title>2021-03-25 3.3km</title></polyline><polyline fill="none" points="162.62046623881906,174.19184657977894 165.1505920998752,185.28769060783088 176.53615847136825,187.01370604080148 180.1205034404993,181.34250767389312 177.801221402362,170.00006952905096 158.82527744956315,157.4246931266971 162.62046623881906,153.9726171437651 158.82527744956315,161.12334029120393 164.9397482778877,184.30139550101012 172.95181350316852,188.0 181.17472254950553,180.1096366373822 173.79518878925592,155.6986557743512 167.25903031602502,152.0 159.66865273565054,157.4246931266971 163.2529977047816,178.137041621143 162.19877859577537,173.94527166732587 167.68071796093136,169.26034338376485" stroke="#4dd2ff" stroke-linecap="round" stroke-linejoin="round" stroke-width="0.5"><title>2021-03-21 0.8km</title></polyline><polyline fill="none" points="39.151761557906866,200.0270758725237 28.12804877292365,192.48649024427868 19.600270956754684,199.0540984715335 25.216124639846385,222.8919262185227 32.495934969745576,228.0 38.735772397369146,225.08110208646394 41.02371278591454,218.513568227645 34.575880779884756,195.16218475112692 26.04810296278447,192.48649024427868 21.68021676503122,194.67569507239386 19.392276375554502,201.48654120089486 25.840108383446932,224.59461874049157 34.575880779884756,227.02703444100916 40.399729043245316,217.05411371029913 33.743902455084026,195.8919190748129 22.928184250369668,194.67569507239386 19.392276375554502,205.37844421365298 25.216124639846385,224.10813529184088 28.75203251466155,227.27027586987242 35.40785910282284,226.29731000075117 39.77574530057609,218.2703258721158 33.95189703721553,194.67569507239386 30.415989162400365,192.0 23.760162574239075,193.21622541896068 18.97628721408546,201.72978533268906 27.920054191723466,226.54055150668137 36.65582658722997,225.56758532952517 39.151761557906866,214.62168745649979" stroke="#4dd2ff" stroke-linecap="round" stroke-linejoin="round" stroke-width="0.5"><title>2021-03-16 1.5km</title></polyline><polyline fill="none" points="65.4821082893759,197.76003840379417 69.58653338253498,220.56004684744403 78.00060482043773,228.0 83.13113618828356,226.32001271191984 86.41467626113445,219.8400500859134 80.4632598767057,198.24004094302654 72.45963094662875,193.44001097232103 65.07166577968746,201.60005587735213 71.84396718256176,224.4000257155858 80.05281736794859,228.0 86.41467626113445,221.04004456149414 80.05281736794859,197.28003576234914 71.63874592725188,193.68001271272078 65.4821082893759,201.3600549758412 73.48573721945286,226.5600109717343 82.92591493297368,226.32001271191984 86.41467626113445,219.60005111433566 79.4371536038816,194.6400194184389 73.2805159650743,192.0 65.27688703406602,200.6400521188043 71.43352467380464,223.6800301731564 79.84759611263871,227.76000189222395 86.41467626113445,219.8400500859134 80.25803862232715,195.36002418026328 71.02308216318488,193.2000092077069 65.89255079813302,203.76006284961477 73.89617972820997,226.08001442579553 80.4632598767057,226.80000920640305 86.20945500582457,222.72003576089628 88.26166755333543,226.5600109717343 82.51547242328525,202.32005843007937 83.3363574417308,198.00003968621604 86.41467626113445,198.4800421744585 84.15724246110767,195.36002418026328" stroke="#4dd2ff" stroke-linecap="round" stroke-linejoin="round" stroke-width="0.5"><title>2021-03-14 2.0km</title></polyline><polyline fill="none" points="114.09837345313281,204.91040835995227 119.40582165960222,224.52416202472523 125.9870574362576,227.25517801055685 133.20518699660897,223.77933893096633 131.08220771420747,203.42074948293157 124.71326986607164,192.74483318347484 116.6459485925734,193.48966612946242 112.18769209925085,200.1931520041544 118.34433201886714,222.0414174606558 121.10420508496463,226.01380750210956 128.322334645316,227.25517801055685 132.99288906808943,224.77243633638136 134.4789745658636,217.57247062493116 128.53463257476687,195.4758861628361 117.28284237720072,193.2413885074202 112.3999900277704,201.18625939358026 117.91973616275936,222.0414174606558 125.35016364976764,228.0 134.26667663827538,221.04831889970228 128.322334645316,195.97244090936147 121.95339679904282,192.0 112.3999900277704,199.44832118647173 118.55662994738668,223.5310645145364 126.83624914847314,227.75172603013925 134.26667663827538,221.793142859824 128.53463257476687,196.7172728306614 119.40582165960222,192.74483318347484 112.61228795628995,199.20004419470206 118.34433201886714,223.28279007133096 126.6239512199536,228.0 134.26667663827538,221.54486823244952 128.322334645316,196.4689955499489 121.74109887052327,192.49655548180453 112.61228795628995,198.9517671763897 117.49514030572027,219.5586702695582" stroke="#4dd2ff" stroke-linecap="round" stroke-linejoin="round" stroke-width="0.5"><title>2021-03-04 2.1km</title></polyline><polyline fill="none" points="162.03794522490352,209.20984634384513 160.20054796896875,195.51222696586046 163.1097602909431,203.94154359202366 171.68428081739694,193.58050298667513 163.41599316708744,193.22928022115957 161.8848287863657,207.45374714757781 168.77506849635392,216.23422591493 169.54065068624914,227.12195982562844 172.90921232104301,228.0 179.79945203103125,193.75611434387974 177.9620547760278,192.0 164.02845891937613,193.05366881238297 162.19106166344136,195.8634492837591" stroke="#4dd2ff" stroke-linecap="round" stroke-linejoin="round" stroke-width="0.5"><title>2021-02-15 0.9km</title></polyline><polyline fill="none" points="17.84293193742633,237.56687236437574 29.528795812278986,244.0995574472472 29.34031413681805,255.90049215243198 35.18324607424438,260.53655786439776 44.04188481718302,256.3219530398492 43.853403142653406,248.52491471986286 38.57591623160988,245.78540879348293 30.848167539574206,249.15710795414634 28.02094240952283,256.3219530398492 30.47120418958366,259.4829073478468 38.387434555217624,261.5902079218067 45.36125654540956,256.95414423174225 42.7225130898878,247.4712589622941 38.764397907070816,246.83906528679654 31.036649215966463,249.57857001852244 28.774869110435247,255.05757015757263 30.47120418958366,258.639986603288 38.01047120522708,262.2223977348767 44.795811519026756,257.5863352592569 42.91099476534873,247.68199015059508 37.068062828853726,246.62833402492106 29.34031413681805,253.1609945932869 32.16753926873207,259.90436760988086 37.82198952976614,261.3794779467862 44.60732984356582,256.95414423174225 45.926701571792364,253.1609945932869 41.02617801167071,246.62833402492106 31.79057591687888,250.42149392608553 29.905759163200855,256.11122260498814 36.12565445154905,260.95801794249564 47.246073299087584,256.95414423174225 48.0,253.37172528496012 44.41884816810489,248.52491471986286 38.387434555217624,247.04979653004557 29.905759163200855,252.31807164172642 29.151832461357117,256.3219530398492 33.48691099509597,260.74728791229427 37.44502617884427,260.74728791229427 45.172774869948626,253.79318661335856 42.91099476534873,247.8927213207353 36.691099477000535,246.62833402492106 29.528795812278986,250.21076297643594 31.225130890496075,257.37560493545607 38.764397907070816,260.1150977134239 44.230366493575275,257.5863352592569 45.73821989633143,253.37172528496012 42.157068063504994,246.20687144622207 34.429319373331964,248.52491471986286 30.659685865044594,255.26830068370327 35.93717277608812,261.1687479536049 44.04188481718302,259.4829073478468 47.81151832547039,254.42537846812047 41.02617801167071,245.99614012916572 32.54450261872262,247.26052775536664 29.34031413681805,254.6361090496648 35.748691100627184,262.43312763562426 45.36125654540956,256.74341385276057 38.19895288068801,247.26052775536664 28.3979057604447,247.8927213207353 17.277486911974847,238.40980046475306 12.0,244.31028892938048" stroke="#4dd2ff" stroke-linecap="round" stroke-linejoin="round" stroke-width="0.5"><title>2021-01-31 2.5km</title></polyline><polyline fill="none" points="72.1022127806209,256.68586832354777 73.87138095358387,260.87923429353395 78.32968474924564,265.46817860065494 80.80652019102126,267.4461646730779 84.2033230829984,268.0 94.0398981240578,253.283689228585 93.68606448941864,250.2771017269115 90.28926159767434,247.34962536836974 86.53862507129088,252.8089655492222 79.32041892595589,255.34082230046624 79.10811874549836,259.05947408499196 83.28335563326254,262.6198710753815 86.11402470991015,262.46163150598295 88.87392705935054,259.53419449168723 89.44006087444723,257.31883046764415 88.37855997099541,254.1540153286187 85.6894243482966,252.49248295783764 81.30188727984205,254.8660996980616 76.48974984930828,251.46391377376858 75.64054912654683,253.44193039974198 73.44678059197031,252.8880861796788 72.3852796885185,248.69468324742047 67.29007535031997,240.14957572874846 65.87474081222899,234.37367039569654 61.62873719725758,235.0857703020447 61.20413683587685,232.94946890394203 59.29343520919792,232.0" stroke="#4dd2ff" stroke-linecap="round" stroke-linejoin="round" stroke-width="0.5"><title>2021-01-28 1.8km</title></polyline></svg>