<?xml version="1.0" encoding="utf-8" ?>
<svg baseProfile="full" height="300mm" version="1.1" viewBox="0,0,200,300" width="200mm" xmlns="http://www.w3.org/2000/svg" xmlns:ev="http://www.w3.org/2001/xml-events" xmlns:xlink="http://www.w3.org/1999/xlink"><defs /><rect fill="#222222" height="300" width="200" x="0" y="0" /><text fill="#FFFFFF" style="font-size:12px; font-family:Futura; font-weight:bold;" x="10" y="20">All Runs</text><text fill="#FFFFFF" style="font-size:4px; font-family:Futura" x="10" y="280">ATHLETE</text><text fill="#FFFFFF" style="font-size:9px; font-family:Futura" x="10" y="290">Bill Chen</text><text fill="#FFFFFF" style="font-size:4px; font-family:Futura" x="120" y="280">STATISTICS</text><text fill="#FFFFFF" style="font-size:3px; font-family:Futura" x="120" y="285">Number: 23</text><text fill="#FFFFFF" style="font-size:3px; font-family:Futura" x="120" y="290">Weekly: 1.4</text><text fill="#FFFFFF" style="font-size:3px; font-family:Futura" x="141" y="285">Total: 53.9 km</text><text fill="#FFFFFF" style="font-size:3px; font-family:Futura" x="141" y="290">Avg: 2.3 km</text><text fill="#FFFFFF" style="font-size:3px; font-family:Futura" x="167" y="285">Min: 0.8 km</text><text fill="#FFFFFF" style="font-size:3px; font-family:Futura" x="167" y="290">Max: 4.9 km</text><polyline fill="none" points="30.245618471177295,50.319417410180904 30.846019178861752,57.02150428760797 27.461942463414744,58.61722828348866 26.697796108201146,59.829975697153714 27.134451168123633,65.95750429737382 28.826489526079968,67.6808605021215 30.736855413997546,67.10640898102429 31.391838004114106,65.95750429737382 31.44641988654621,60.08529063157039 29.481472116196528,58.55339940462727 27.352778698317707,59.829975697153714 27.0798692854587,64.04265829594806 31.28267423901707,59.76614694658201 29.53605399862863,58.55339940462727 27.40736058074981,59.510831877356395 27.134451168123633,65.7660199708771 31.391838004114106,64.74476920213783 31.1189285912551,59.510831877356395 28.280670700827613,58.872543730947655 27.134451168123633,60.02146190794883 27.189033050788566,66.46812887134729 29.590635881060734,67.6808605021215 31.391838004114106,65.95750429737382 31.501001768978313,61.6810065228492 27.189033050788566,61.48952083865879 27.0798692854587,65.63836371921934 27.516524346079677,66.85109701822512 29.80896341125481,68.0 31.501001768978313,66.46812887134729 31.337256121449172,60.08529063157039 29.86354529368691,58.61722828348866 28.007761288434267,58.872543730947655 27.134451168123633,60.02146190794883 27.0798692854587,65.7660199708771 31.664747416507453,65.89367619529366 31.391838004114106,60.08529063157039 29.53605399862863,58.55339940462727 27.298196815652773,59.57466065476183 26.91612363816239,65.95750429737382 27.298196815652773,67.10640898102429 29.099398938706145,67.93617211398669 31.28267423901707,66.6596129751997 31.555583651410416,61.48952083865879 30.79143729666248,59.127859070606064 28.22608881839551,58.744886020664126 26.970705520594493,60.595920175954234 27.680269993375987,67.17023695481475 31.61016553384252,63.65968836611137 31.337256121449172,60.14911934820702 29.754381528589875,57.787452332500834 30.95518294395879,56.893846185761504 30.19103658874519,50.57473636983195 32.647221301915124,49.74494935601251 33.302203891798854,48.6598415383487 32.81096694921143,42.9789511046838 31.009764826390892,39.59592351887841 28.990235173609108,32.0" stroke="#4dd2ff" stroke-linecap="round" stroke-linejoin="round" stroke-width="0.5"><title>2021-10-03 3.6km</title></polyline><polyline fill="none" points="72.2690671896562,32.97959924861789 65.98678222298622,40.326580399181694 71.43142919335514,63.10207373066805 80.43603764660656,66.77551940456033 87.346551110968,59.91841609706171 81.0642661433667,37.142891431227326 71.01261019520462,33.46939871786162 65.98678222298622,40.81637831265107 72.2690671896562,64.3265562702436 81.0642661433667,67.51020784024149 86.71832261420786,59.673519174102694 81.0642661433667,37.142891431227326 78.13253315817565,33.46939871786162 71.43142919335514,33.46939871786162 65.98678222298622,41.79597383015789 72.2690671896562,64.0816598138772 83.15836113225669,66.04083073674701 88.81241760309786,56.000062226783484 79.59839965030551,34.93879650300369 73.10670518595725,32.24489985103719 68.4996962081641,34.204097726847976 65.35855372529477,42.285771432798356 72.2690671896562,65.79593446152285 84.62422762438655,65.30614183470607 87.13714161142707,55.26537013752386 80.01721864845604,35.918394507374614 69.33733420446515,34.204097726847976 64.52091572992504,44.97965639596805 71.64083869289607,63.10207373066805 77.29489516373724,68.0 82.32072313688695,67.26531172078103 87.7653701081872,57.71434286120348 81.0642661433667,37.142891431227326 76.24784766789526,32.24489985103719 71.85024819150567,32.97959924861789 65.7773727234453,42.530670195119455 72.4784766882658,65.06124548264779 83.57718013040721,66.53062320756726 86.92773211188614,62.6122805334162 86.71832261420786,53.306190092349425 77.29489516373724,33.46939871786162 71.64083869289607,32.0 65.7773727234453,35.918394507374614 83.57718013040721,44.489859363297 84.62422762438655,40.5714793689549" stroke="#4dd2ff" stroke-linecap="round" stroke-linejoin="round" stroke-width="0.5"><title>2021-10-01 2.5km</title></polyline><polyline fill="none" points="129.38535253424197,44.407855624798685 130.13251539878547,48.25252436322626 122.21258903667331,43.00979204650503 117.28131413273513,44.23309774242807 115.48812325764447,47.55349434935488 119.37337015196681,63.805865634116344 123.40804961975664,67.1262228860287 127.1438639415428,66.77671191026457 130.4313805438578,60.835014012875035 126.09783593099564,45.63116028520744 120.12053301651031,43.18455005821306 115.33869068603963,47.90300939325243 119.22393757943064,63.805865634116344 121.76429131813347,66.60195639496669 126.69556622300297,66.95146740740165 131.47740855347365,59.96123310714029 125.64953821245581,44.75737133482471 119.22393757943064,43.35930805176031 115.33869068603963,50.174855375662446 120.8676958810538,65.90293414855842 125.64953821245581,67.82524461415596 130.5808131173253,65.90293414855842 129.98308282531798,53.14572617516387 124.90237534791231,44.23309774242807 118.62620728742331,43.18455005821306 115.93642097618431,50.69912708143238 120.56883073505014,65.90293414855842 126.99443136807531,66.95146740740165 130.4313805438578,62.75733037805185 125.94840335752815,44.93212916201446 118.32734214235097,43.00979204650503 115.18925811257213,48.77679667971097 120.12053301651031,65.72817854094319 126.54613364953548,68.0 131.02911083493382,65.0291559244506 125.35067306645215,44.23309774242807 118.32734214235097,43.53406602691393 115.48812325764447,50.000098103657365 119.22393757943064,64.5048887678422 126.84499879553914,66.42720086092595 129.8336502527818,61.00977013830561 125.79897078499198,44.58261348865926 121.01712845358998,43.18455005821306 115.33869068603963,48.95155408140272 120.41939816251397,65.0291559244506 122.81031932774931,67.1262228860287 127.89102680515498,66.60195639496669 130.5808131173253,59.2622080501169 126.84499879553914,44.93212916201446 120.8676958810538,42.66027596674394 115.18925811257213,48.25252436322626 119.82166787050664,64.5048887678422 124.00577991083264,66.95146740740165 128.3393245236948,65.90293414855842 130.13251539878547,61.18452624580823 127.74159423168749,49.82534081256017 130.5808131173253,46.33019111293834 123.55748219229281,33.747590940096416 126.99443136807531,32.0" stroke="#4dd2ff" stroke-linecap="round" stroke-linejoin="round" stroke-width="0.5"><title>2021-09-29 3.3km</title></polyline><polyline fill="none" points="158.99143389426172,41.059656819328666 163.27254293486476,59.6556803570129 171.42703634593636,67.04636503383517 181.00856610480696,60.84772791247815 177.9506310755387,42.25171421444975 170.40772466920316,33.66888688830659 163.27254293486476,33.66888688830659 160.41847024019808,36.76824497198686 161.64164425246418,51.54974025138654 169.79613766353577,65.85432075872086 176.9313193988055,64.42386679491028 179.3776674233377,59.8940899183508 174.07724670507014,37.72189275640994 167.5536519754678,32.238412488019094 159.6030208999291,38.91395191778429 164.08799227606505,61.32454675808549 173.66952203400433,65.61591182742268 179.3776674233377,56.55635376041755 173.46565969940275,35.814596785465255 165.10730395186692,32.715237389085814 159.6030208999291,37.48348084790632 168.36910131759942,65.61591182742268 178.766080416739,62.27818414615467 174.48497137520462,38.67554013617337 166.73820263519883,32.715237389085814 159.19529622979462,39.1523636742495 165.10730395186692,62.51659343065694 171.83476101700217,65.61591182742268 178.9699427522719,59.8940899183508 174.28110903967172,37.72189275640994 167.3497896399349,32.0 159.19529622979462,38.67554013617337 165.10730395186692,62.75500268978067 172.85407269373536,68.0 180.60084143374115,63.708639472257346 179.58152975700796,47.97358093247749 173.26179736386985,36.29142092959955 167.5536519754678,32.47682495159097 161.0300572467968,35.33777254051529 160.0107455700636,39.629187111742795 171.42703634593636,61.562956142937765 178.3583557466045,54.887483826838434 174.48497137520462,39.86759879253805 165.92275329399854,38.437128328718245 162.25323125813156,46.543115615611896 167.5536519754678,57.748402955709025 177.7467687400058,61.80136550287716 177.13518173526973,50.83450884139165 170.81544934026897,41.53647985239513" stroke="#4dd2ff" stroke-linecap="round" stroke-linejoin="round" stroke-width="0.5"><title>2021-09-26 2.9km</title></polyline><polyline fill="none" points="37.913577501662076,107.32076219271403 41.543658923357725,102.22646947391331 37.47796773072332,86.77368262282107 31.524634197354317,83.71706979209557 26.732926720753312,89.8302896313835 31.81504071224481,105.96228571597021 37.47796773072332,107.6603811327368 41.10804915241897,100.86798868421465 36.46154493186623,85.24537693569437 30.36300814244896,84.05669372761622 26.878129977732897,88.8114212754881 31.089024426415563,104.94342760334257 35.15471561998129,107.8301905754488 38.49439052864909,107.15095269610174 41.10804915241897,101.03779884579126 37.47796773072332,86.94349427579436 30.36300814244896,84.05669372761622 26.878129977732897,89.32085553405341 31.089024426415563,104.94342760334257 38.49439052864909,107.15095269610174 41.39845566637814,96.45291817409452 36.75195144675672,85.75481232604943 29.34658534452319,84.73594138282351 26.732926720753312,90.67934610019438 31.089024426415563,105.11323733336758 38.34918727260083,106.98114318121225 41.10804915241897,101.37741911469493 36.316341674886644,85.41518875048496 30.072601628489792,84.05669372761622 27.168536490760744,91.01896856212988 31.524634197354317,105.62266641680617 36.17113841883838,107.6603811327368 40.38203286845237,105.62266641680617 40.96284589637071,100.35855809145141 36.60674818884581,85.75481232604943 30.65341465640813,84.05669372761622 27.168536490760744,90.84915733989328 33.12187002412975,107.15095269610174 36.0259351618588,108.0 40.96284589637071,104.09437868208624 38.93000029865652,90.16991227248218 41.25325241032988,86.94349427579436 34.2834960790351,74.37738339812495 18.31113781966269,78.28307704941835 41.68886218126863,72.0" stroke="#4dd2ff" stroke-linecap="round" stroke-linejoin="round" stroke-width="0.5"><title>2021-09-21 2.9km</title></polyline><polyline fill="none" points="70.26379265962169,79.2000761985546 74.0808906252496,78.3360690663103 80.48376463213935,88.8481185710989 79.86810366995633,91.15211857028771 73.21896527847275,86.40011429670267 68.90933854272589,90.1441190505866 72.23390773823485,104.83203821990173 77.40545982122421,107.42400749761146 79.9912358620204,106.2720217613969 81.34568997845054,101.95206656504888 78.02112078340724,89.28011886763852 73.09583308594301,86.40011429670267 69.64813169743866,88.70411844132468 69.03247073572129,91.72811796108726 72.7264365083538,104.68803978164215 77.65172420581803,107.13601115497295 81.34568997845054,101.52007029089145 77.77485639834777,88.8481185710989 73.09583308594301,86.40011429670267 69.1556029273197,90.57611893652938 73.5883618555963,105.84002685896121 77.40545982122421,107.56800564599689 81.34568997845054,103.24805456411559 77.77485639834777,88.56011829676572 72.23390773823485,86.83211537078023 69.1556029273197,91.15211857028771 72.97270089294761,104.83203821990173 74.94281597202644,106.84801475179847 79.1293105147779,106.56001828692388 81.34568997845054,101.95206656504888 77.65172420581803,88.27211796108168 72.84956870041788,85.96811308525503 69.03247073572129,91.00811868486926 72.6033043153584,104.40004286030307 78.63678174512461,106.56001828692388 81.34568997845054,102.2400640049018 77.52859201328829,87.84011734451633 71.24885019892827,85.8241126507055 68.78620635019615,90.86411878408398 72.97270089294761,105.84002685896121 76.54353447398171,107.28000933374278 81.22255778685212,102.6720600501867 78.02112078340724,88.8481185710989 73.46522966306657,86.1121135042049 68.41680977260694,90.57611893652938 72.7264365083538,104.2560443765251 77.77485639834777,106.70401652692817 81.34568997845054,102.38406270206906 78.14425297500566,89.4241189364111 75.18908035708591,86.5441146697849 70.75632142927498,86.6881150280824 68.29367758100852,91.87211777060293 70.14066046709195,102.09606529271696 75.92787351179868,107.42400749761146 80.60689682466909,104.68803978164215 82.2076153261587,100.80007619620301 81.09942559385672,95.47210805478971 75.18908035708591,86.25611390767153 71.00258581433445,85.96811308525503 67.80114881088957,90.57611893652938 72.6033043153584,104.40004286030307 78.88304613018408,106.99201296106912 81.59195436397567,101.95206656504888 77.77485639834777,88.41611813672353 71.8645111611113,85.39211125602014 67.67801661789417,90.57611893652938 72.23390773823485,104.2560443765251 77.65172420581803,107.56800564599689 80.36063243914396,106.56001828692388 82.57701190328225,101.95206656504888 76.2972700893879,85.39211125602014 71.12571800639853,86.1121135042049 67.5548844258301,90.28811902785674 72.11077554617077,104.54404132883064 79.00617832271382,108.0 82.08448313362896,98.06409516197164 79.49870709283277,92.01611756451894 81.46882217144594,89.13611878408119 75.68160912720487,80.35208485426847 85.7784489071928,72.0" stroke="#4dd2ff" stroke-linecap="round" stroke-linejoin="round" stroke-width="0.5"><title>2021-09-11 4.9km</title></polyline><polyline fill="none" points="124.96303084306419,77.50592430634424 118.98747331090271,77.50592430634424 115.36592329107225,82.58830252673943 122.9711783323437,106.09413388289977 131.30074337590486,88.94125714886468 124.05764333717525,105.45884477405343 129.30889086518437,81.74124038626906 127.13596085365862,78.14122229011264 120.97932582069188,75.81179536459967 115.18484579119831,78.564754167106 113.1929932795465,82.37653702544048 114.82269078865647,92.75302024080884 119.53070581331849,104.61179231503047 124.78195334132761,108.0 130.21427837014198,105.88237086904701 132.38720838166773,90.00008095870726 127.49811585620046,77.08239220525138 122.60902332980186,77.29415826743934 124.23872083891183,88.30596259434242 117.17669830098748,91.69419788836967 116.27131079602987,95.71771984850056 121.52255832403898,106.30589687463362 130.93858837429434,103.55297623737715 130.75751087255776,84.49419103143737 125.68734084628522,75.81179536459967 121.52255832403898,74.96473035495728 116.6334657985717,78.77652007178403 119.53070581331849,101.22357889381237 126.41165085043758,105.88237086904701 133.1115183858201,101.0118153647054 128.2224258594215,78.77652007178403 122.9711783323437,76.23532773402985 116.27131079602987,80.25888077809941 119.34962831251323,102.28239620407112 127.67919335607439,106.72942279058043 133.29259588569403,87.24713788868394 130.03320086933672,80.04711503034923 120.97932582069188,75.38826290494762 115.18484579119831,82.37653702544048 119.89286081492901,101.43534240045119 127.67919335607439,106.30589687463362 133.1115183858201,101.0118153647054 131.11966587603092,84.49419103143737 133.4736733874306,81.31770918169059 126.7738058520481,72.0" stroke="#4dd2ff" stroke-linecap="round" stroke-linejoin="round" stroke-width="0.5"><title>2021-08-16 2.6km</title></polyline><polyline fill="none" points="176.7338266922161,73.2500091935508 179.94041083287448,95.00006328406744 173.09969800058752,74.0000143928919 165.61766834184527,72.0 158.77695551048964,80.0000474108383 166.0452128937468,104.75002252776176 173.31347027700394,108.0 179.51286628097296,104.75002252776176 181.22304448857903,99.75004845531657 175.87873758934438,77.25003416906111 166.0452128937468,72.5000037571881 159.41827233880758,80.5000494744163 164.97635151445866,103.00003280630335 174.8098762081936,107.25000559585169 180.79549993760884,99.25005046650767 176.0925098657608,77.500035505509 167.75539110135287,72.25000189128332 158.77695551048964,80.5000494744163 165.83144061733037,103.50003000185825 174.59610393363982,107.25000559585169 180.58172766119242,100.50004524108954 178.01646034885198,79.25004411721602 168.3967079296708,72.0 161.12845054641366,75.00002095405944 158.99072778690606,79.75004633911885 166.25898517109454,104.0000270914752 172.45838117413223,107.75000189151615 179.94041083287448,99.75004845531657 177.58891579695046,81.00005143275484" stroke="#4dd2ff" stroke-linecap="round" stroke-linejoin="round" stroke-width="0.5"><title>2021-08-08 1.8km</title></polyline><polyline fill="none" points="37.204580154269934,124.25537945749238 31.746564886532724,113.02128399931826 24.760305342264473,112.0 19.520610686391592,116.59577459190041 24.10534351039678,141.61706045502797 31.746564886532724,148.0 38.73282442986965,144.93619112600572 40.91603053640574,139.5745162346866 36.98625954333693,121.44686049665324 31.309923665598035,112.25532104098238 21.485496181994677,113.78724671551026 19.083969463594258,121.44686049665324 26.94351145066321,145.7021437091753 33.71145038213581,147.48936545848846 39.16946565080434,139.82983435643837 35.239694656804204,116.85109514649957 31.746564886532724,112.7659630398266 24.10534351039678,112.25532104098238 19.302290074527264,120.68090021354146 25.85190839599818,143.91492063668557 38.07786259800196,145.44682620861568 40.91603053640574,136.51069666072726 35.45801526866853,128.85113070416264 19.083969463594258,122.46814049780369 27.380152671597898,122.97878033504821" stroke="#4dd2ff" stroke-linecap="round" stroke-linejoin="round" stroke-width="0.5"><title>2021-06-28 1.3km</title></polyline><polyline fill="none" points="68.49319469835609,113.98622129531577 65.09642712865025,122.67591968970373 69.55468456540257,141.793142859824 74.01294200215489,147.25517801055685 81.44337106402963,147.50345203303732 84.8401386346668,143.779338931432 81.86796700954437,122.92419631336816 77.19741160050035,112.99311085767113 71.46536632347852,112.0 64.67183118127286,116.71727282949723 69.9792805109173,142.04141746019013 78.04660349152982,148.0 84.62784066144377,144.77243633614853 85.90162850078195,139.55867026932538 80.59417917020619,117.95865884027444 72.31455821637064,112.74483318324201 64.8841291544959,119.44832118600607 70.61617443151772,141.793142859824 75.07443186827004,147.50345203303732 80.38188119791448,147.75172602944076 85.26473458204418,142.28969203541055 82.50486092921346,123.17247291048989 76.13592173345387,112.99311085767113 65.09642712865025,116.96555008459836 69.55468456540257,142.04141746019013 74.64983592182398,147.25517801055685 84.8401386346668,142.78624110575765 82.08026498369873,122.42764303903095 77.83430552016944,113.48966612899676 65.94561902061105,115.9724409088958 66.58251293934882,130.62075862567872 75.07443186827004,147.25517801055685 85.47703255433589,143.53106451430358 82.7171589024365,120.19315200368874 87.38771431334317,119.944875090383 88.66150215268135,125.65523744327947" stroke="#4dd2ff" stroke-linecap="round" stroke-linejoin="round" stroke-width="0.5"><title>2021-06-20 2.0km</title></polyline><polyline fill="none" points="117.30585305485874,112.25175014371052 112.35470854025334,122.82523210626096 116.87531874887645,144.22380180028267 122.68753187544644,148.0 129.5760807665065,146.74126793257892 133.23562236409634,140.95109184458852 128.4997450010851,119.80424205493182 121.61119611095637,112.0 112.5699756918475,117.0349978050217 114.72264721989632,133.65041494905017 121.39592895843089,146.4895214389544 128.9302793070674,146.4895214389544 132.80508805811405,142.7133208415471 131.29821798950434,129.87419397127815 117.9516545124352,112.755250350805 111.70890708081424,118.04199608694762 119.24325742945075,145.7342817990575 123.97913479339331,147.24476083973423 133.45088951662183,141.2028389237821 130.22188222408295,117.79024655697867 119.88905888795853,113.00700041372329 112.35470854025334,118.79724451922812 117.73638736084104,142.2098269755952 125.05547055695206,147.7482536402531 134.95775958616287,141.2028389237821 128.9302793070674,120.81123916478828 133.45088951662183,117.0349978050217" stroke="#4dd2ff" stroke-linecap="round" stroke-linejoin="round" stroke-width="0.5"><title>2021-06-12 1.5km</title></polyline><polyline fill="none" points="173.82338900864124,112.0 178.52909856010228,121.63063185173087 167.94125207141042,115.2102153734304 161.27483020815998,117.96182476519607 159.70626035891473,122.54783265269361 165.19625483360142,144.78983320761472 171.47053423337638,147.5414050356485 177.9408848658204,145.01913099363446 179.90159717854112,138.3694853547495 173.43124654702842,117.73252411535941 164.01982744503766,116.12741889199242 159.70626035891473,123.92363312561065 166.1766109894961,144.56053539761342 174.60767393466085,147.5414050356485 180.29373964108527,140.43317066784948 174.80374516546726,119.56692862976342 164.80411237012595,115.43951628939249 159.510189127177,123.23573299893178 165.39232606440783,142.9554500482045 170.68624930921942,148.0 175.58803009055555,147.5414050356485 180.489810872823,139.97457410139032 174.2155314711854,118.64972656732425 171.27446300256997,115.43951628939249 164.01982744503766,115.89811804890633 160.29447405133396,123.92363312561065 166.37268222123384,145.70702420501038 175.1958876280114,147.08280997374095 179.90159717854112,139.51597743784077 173.82338900864124,117.73252411535941 164.80411237012595,115.89811804890633 159.90233158878982,123.69433310767636 165.78446852695197,145.24842875497416 176.1762437839061,147.5414050356485 179.7055259477347,138.82808226021007 173.43124654702842,117.27392274490558 164.2158986767754,115.89811804890633 159.90233158878982,123.69433310767636 165.78446852695197,144.33123756363057 172.25481915846467,147.77070252993144 178.9212410217151,145.01913099363446 179.90159717854112,138.14018686534837 172.4508903902024,116.12741889199242 163.2355425208807,116.35671971132979 159.70626035891473,124.38223309000023 166.37268222123384,145.70702420501038 177.1565999398008,145.93632189417258 179.90159717854112,139.28667906927876 172.6469616210088,117.50322344223969 168.7255369964987,115.43951628939249 160.88268774468452,117.96182476519607 159.70626035891473,126.90453115478158 166.764824683778,145.70702420501038 174.80374516546726,147.31210751691833 180.489810872823,141.12106533534825 175.58803009055555,121.17203130596317" stroke="#4dd2ff" stroke-linecap="round" stroke-linejoin="round" stroke-width="0.5"><title>2021-05-01 3.3km</title></polyline><polyline fill="none" points="31.254747793078423,152.0 36.27373896352947,160.21745304891374 25.566557799465954,159.43484004645143 21.216765452176332,165.500082149636 26.403056328184903,186.04349627450574 32.42584573291242,188.0 37.77943631447852,185.65219528088346 24.897358977235854,178.8044144868618 30.920148381963372,187.80434972059447 32.76044514402747,160.8044125835877 27.5741542680189,159.0435334207723 22.55516309849918,161.97833109321073 21.71866456978023,167.8479124609148 27.90875367913395,186.04349627450574 33.09504455514252,187.80434972059447 38.11403572559357,185.45654475328047 38.78323454782367,175.08703714888543 32.76044514402747,160.4131062476663 28.745252206921577,159.0435334207723 23.391661626286805,161.39137193153147 21.71866456978023,167.45660761592444 28.41065279673785,186.04349627450574 35.269940729252994,186.82609801332 38.11403572559357,184.08699047821574 37.94673602003604,171.36965233634692" stroke="#4dd2ff" stroke-linecap="round" stroke-linejoin="round" stroke-width="0.5"><title>2021-04-29 1.3km</title></polyline><polyline fill="none" points="82.0483454875648,156.53149850387126 71.7155221523717,152.0 66.33384333178401,159.80424205493182 73.00712506845593,183.46856144070625 81.833078334108,187.49650725349784 87.6452914616093,179.18886154214852 80.75674257054925,155.02099996129982 71.28498784638941,152.755250350805 66.97964478936046,158.79724451922812 74.29872798547149,183.97205504006706 82.26361263915896,187.24476083973423 82.26361263915896,153.76225044438615 72.36132361087948,152.50350026017986 66.33384333178401,159.80424205493182 72.14605645742267,183.46856144070625 82.69414694607258,187.49650725349784 88.07582576666027,180.44759760564193 81.40254402905703,155.77624935284257 70.20865208189934,153.0070004137233 65.9033090248704,161.06298837601207 73.43765937443823,184.97904191957787 79.89567395951599,188.0 86.13842139113694,185.48253519949503 88.07582576666027,178.4336195839569 81.40254402905703,155.52449958305806 70.42391923535615,152.755250350805 66.54911048337817,163.32873007422313 72.79185791593045,184.47554853302427 83.77048271056265,186.23777491925284 87.86055861320347,180.19585044588894 80.11094111204147,153.76225044438615 69.34758347086608,154.26575033157133 66.97964478936046,163.83222793671302 73.00712506845593,184.22380180028267 78.81933819502592,187.7482536402531 85.49261993262917,185.7342817990575 87.86055861320347,179.18886154214852 79.6804068069905,153.76225044438615 68.05598055385053,154.76925011142157 65.25750756636262,161.06298837601207 67.19491194188595,167.6084585066419" stroke="#4dd2ff" stroke-linecap="round" stroke-linejoin="round" stroke-width="0.5"><title>2021-04-10 2.5km</title></polyline><polyline fill="none" points="129.15718282945454,156.62165316892788 118.7574515864253,152.24324513599277 112.72560746408999,159.54058722406626 118.965446209535,183.37840992491692 127.9092150805518,186.7837929870002 134.14905382785946,178.0270834916737 128.32520432956517,156.37840849743225 120.21341395936906,152.0 112.72560746408999,159.29734286130406 117.92547308560461,181.67571650235914 123.33333333302289,186.29731000075117 130.19715595431626,185.56758532929234 133.9410592019558,177.29735619481653 125.41327958088368,152.48649024497718 117.71747846156359,152.72973532928154 112.72560746408999,160.75680865324102 118.7574515864253,182.40544240921736 127.07723658159375,186.7837929870002 133.9410592019558,179.9730218180921 128.74119358044118,158.0811206602957 119.38143546041101,152.48649024497718 112.72560746408999,161.00005286140367 117.71747846156359,181.67571650235914 126.86924195662141,187.27027586917393 134.14905382785946,180.70274826558307 127.49322583060712,155.8919190762099 116.67750533670187,153.70271540666 112.51761283818632,163.91898135631345 120.00541933532804,185.3243437211495 129.15718282945454,186.29731000075117 134.14905382785946,178.2703258721158 128.11720970552415,156.86489781481214 118.13346771150827,152.9729803870432 112.3096182141453,161.72978533268906 118.13346771150827,184.3513770289719 124.7892957078293,188.0 129.78116670437157,186.7837929870002 134.56504307687283,178.75681055733003 126.66124733071774,154.4324501948431 115.8455268368125,153.70271540666 112.10162358917296,163.91898135631345 120.8373978342861,185.3243437211495 127.07723658159375,187.02703444100916 133.73306457698345,181.43247448140755" stroke="#4dd2ff" stroke-linecap="round" stroke-linejoin="round" stroke-width="0.5"><title>2021-04-04 2.7km</title></polyline><polyline fill="none" points="174.03366021160036,154.73105384712107 165.3294460736215,152.4965554815717 160.0219984287396,157.21382731269114 160.87119005154818,174.59316800441593 168.51391466055065,186.7586298850365 179.55340576171875,184.02761332131922 178.06732042040676,166.89661872433499 172.12297905888408,153.73794372496195 162.99416910950094,153.9862212948501 160.2342963349074,164.66213194583543 167.02782931923866,185.51725911395624 173.39676649309695,188.0 179.76570366695523,184.27588768606074 175.73204345721751,158.95176717545837 170.8491916237399,153.24138850625604 163.41876492090523,153.48966612946242 160.0219984287396,157.46210451447405 162.14497748576105,173.1035152755212 167.66472303681076,186.01380750117823 174.67055392824113,187.00690396060236 179.76570366695523,182.5379665833898 171.6983832474798,153.48966612946242 161.2957858638838,154.97933131223544 160.2342963349074,171.1173101658933 167.66472303681076,186.51035578362644 172.75987277645618,188.0 178.91651204414666,184.27588768606074 180.40259738452733,177.8207456720993 173.39676649309695,154.73105384712107 164.4802544498816,152.99311085790396 159.38510471116751,160.68970575067215 164.90485026221722,183.03451560135 175.09514973964542,186.7586298850365 180.61489529069513,179.06212051492184 174.24595811590552,155.47588616260327 165.9663397911936,152.0 159.1728068049997,158.70349013106897 165.3294460736215,183.03451560135 170.8491916237399,187.50345203303732 175.5197455510497,186.7586298850365 180.40259738452733,178.56557065644301 174.67055392824113,156.46899554901756 164.05565863847733,152.99311085790396 159.38510471116751,161.18625939334743 166.39093560166657,185.51725911395624 172.97217068169266,187.75172602990642 179.12880994938314,184.5241620244924 180.8271931950003,178.06902069342323 174.03366021160036,155.2276087505743 169.57540418952703,152.4965554815717 162.35727539286017,153.9862212948501 159.8097005225718,163.17247291072272 167.66472303681076,185.76553332107142 175.09514973964542,187.00690396060236 179.97800157312304,182.28969203471206 173.60906439833343,154.97933131223544 167.45242513157427,152.0 161.083487957716,154.73105384712107 160.6588921463117,164.41385550540872 166.39093560166657,167.3931710519828" stroke="#4dd2ff" stroke-linecap="round" stroke-linejoin="round" stroke-width="0.5"><title>2021-03-25 3.3km</title></polyline><polyline fill="none" points="22.620466238819063,214.19184657977894 25.15059209987521,225.28769060783088 36.53615847136825,227.01370604080148 40.120503440499306,221.34250767389312 37.80122140236199,210.00006952905096 18.825277449563146,197.4246931266971 22.620466238819063,193.9726171437651 18.825277449563146,201.12334029120393 24.939748277887702,224.30139550101012 32.95181350316852,228.0 41.17472254950553,220.1096366373822 33.79518878925592,195.6986557743512 27.25903031602502,192.0 19.66865273565054,197.4246931266971 23.252997704781592,218.137041621143 22.198778595775366,213.94527166732587 27.68071796093136,209.26034338376485" stroke="#4dd2ff" stroke-linecap="round" stroke-linejoin="round" stroke-width="0.5"><title>2021-03-21 0.8km</title></polyline><polyline fill="none" points="85.81842822395265,200.0270758725237 74.79471543896943,192.48649024427868 66.26693762280047,199.0540984715335 71.88279130589217,222.8919262185227 79.16260163579136,228.0 85.40243906341493,225.08110208646394 87.69037945196033,218.513568227645 81.24254744593054,195.16218475112692 72.71476962883025,192.48649024427868 68.346883431077,194.67569507239386 66.05894304160029,201.48654120089486 72.50677504949272,224.59461874049157 81.24254744593054,227.02703444100916 87.0663957092911,217.05411371029913 80.41056912112981,195.8919190748129 69.59485091641545,194.67569507239386 66.05894304160029,205.37844421365298 71.88279130589217,224.10813529184088 75.41869918070734,227.27027586987242 82.07452576886863,226.29731000075117 86.44241196662188,218.2703258721158 80.61856370326132,194.67569507239386 77.08265582844615,192.0 70.42682924028486,193.21622541896068 65.64295388013124,201.72978533268906 74.58672085776925,226.54055150668137 83.32249325327575,225.56758532952517 85.81842822395265,214.62168745649979" stroke="#4dd2ff" stroke-linecap="round" stroke-linejoin="round" stroke-width="0.5"><title>2021-03-16 1.5km</title></polyline><polyline fill="none" points="112.14877495635301,197.76003840379417 116.25320004951209,220.56004684744403 124.66727148741484,228.0 129.79780285526067,226.32001271191984 133.08134292811155,219.8400500859134 127.12992654368281,198.24004094302654 119.12629761360586,193.44001097232103 111.73833244666457,201.60005587735213 118.51063384953886,224.4000257155858 126.7194840349257,228.0 133.08134292811155,221.04004456149414 126.7194840349257,197.28003576234914 118.30541259422898,193.68001271272078 112.14877495635301,201.3600549758412 120.15240388642997,226.5600109717343 129.5925815999508,226.32001271191984 133.08134292811155,219.60005111433566 126.1038202708587,194.6400194184389 119.94718263205141,192.0 111.94355370104313,200.6400521188043 118.10019134078175,223.6800301731564 126.51426277961582,227.76000189222395 133.08134292811155,219.8400500859134 126.92470528930426,195.36002418026328 117.68974883016199,193.2000092077069 112.55921746511012,203.76006284961477 120.56284639518708,226.08001442579553 127.12992654368281,226.80000920640305 132.87612167280167,222.72003576089628 134.92833422031254,226.5600109717343 129.18213909026235,202.32005843007937 130.0030241087079,198.00003968621604 133.08134292811155,198.4800421744585 130.82390912808478,195.36002418026328" stroke="#4dd2ff" stroke-linecap="round" stroke-linejoin="round" stroke-width="0.5"><title>2021-03-14 2.0km</title></polyline><polyline fill="none" points="160.76504012010992,204.91040835995227 166.07248832657933,224.52416202472523 172.6537241032347,227.25517801055685 179.87185366358608,223.77933893096633 177.74887438118458,203.42074948293157 171.37993653304875,192.74483318347484 163.3126152595505,193.48966612946242 158.85435876622796,200.1931520041544 165.01099868584424,222.0414174606558 167.77087175194174,226.01380750210956 174.9890013122931,227.25517801055685 179.65955573506653,224.77243633638136 181.14564123284072,217.57247062493116 175.20129924174398,195.4758861628361 163.94950904417783,193.2413885074202 159.0666566947475,201.18625939358026 164.58640282973647,222.0414174606558 172.01683031674474,228.0 180.9333433052525,221.04831889970228 174.9890013122931,195.97244090936147 168.62006346601993,192.0 159.0666566947475,199.44832118647173 165.2232966143638,223.5310645145364 173.50291581545025,227.75172603013925 180.9333433052525,221.793142859824 175.20129924174398,196.7172728306614 166.07248832657933,192.74483318347484 159.27895462326705,199.20004419470206 165.01099868584424,223.28279007133096 173.2906178869307,228.0 180.9333433052525,221.54486823244952 174.9890013122931,196.4689955499489 168.40776553750038,192.49655548180453 159.27895462326705,198.9517671763897 164.16180697269738,219.5586702695582" stroke="#4dd2ff" stroke-linecap="round" stroke-linejoin="round" stroke-width="0.5"><title>2021-03-04 2.1km</title></polyline><polyline fill="none" points="22.037945224903524,249.20984634384513 20.20054796896875,235.51222696586046 23.109760290943086,243.94154359202366 31.68428081739694,233.58050298667513 23.415993167087436,233.22928022115957 21.884828786365688,247.45374714757781 28.775068496353924,256.23422591493 29.540650686249137,267.12195982562844 32.909212321043015,268.0 39.79945203103125,233.75611434387974 37.9620547760278,232.0 24.028458919376135,233.05366881238297 22.19106166344136,235.8634492837591" stroke="#4dd2ff" stroke-linecap="round" stroke-linejoin="round" stroke-width="0.5"><title>2021-02-15 0.9km</title></polyline><polyline fill="none" points="64.50959860440344,237.56687236437574 76.1954624792561,244.0995574472472 76.00698080379516,255.90049215243198 81.84991274122149,260.53655786439776 90.70855148416013,256.3219530398492 90.52006980963051,248.52491471986286 85.24258289858699,245.78540879348293 77.51483420655131,249.15710795414634 74.68760907649994,256.3219530398492 77.13787085656077,259.4829073478468 85.05410122219473,261.5902079218067 92.02792321238667,256.95414423174225 89.3891797568649,247.4712589622941 85.43106457404792,246.83906528679654 77.70331588294357,249.57857001852244 75.44153577741235,255.05757015757263 77.13787085656077,258.639986603288 84.67713787220418,262.2223977348767 91.46247818600386,257.5863352592569 89.57766143232584,247.68199015059508 83.73472949583083,246.62833402492106 76.00698080379516,253.1609945932869 78.83420593570918,259.90436760988086 84.48865619674325,261.3794779467862 91.27399651054293,256.95414423174225 92.59336823876947,253.1609945932869 87.69284467864782,246.62833402492106 78.45724258385599,250.42149392608553 76.57242583017796,256.11122260498814 82.79232111852616,260.95801794249564 93.91273996606469,256.95414423174225 94.66666666697711,253.37172528496012 91.085514835082,248.52491471986286 85.05410122219473,247.04979653004557 76.57242583017796,252.31807164172642 75.81849912833422,256.3219530398492 80.15357766207308,260.74728791229427 84.11169284582138,260.74728791229427 91.83944153692573,253.79318661335856 89.57766143232584,247.8927213207353 83.35776614397764,246.62833402492106 76.1954624792561,250.21076297643594 77.89179755747318,257.37560493545607 85.43106457404792,260.1150977134239 90.89703316055238,257.5863352592569 92.40488656330854,253.37172528496012 88.8237347304821,246.20687144622207 81.09598604030907,248.52491471986286 77.3263525320217,255.26830068370327 82.60383944306523,261.1687479536049 90.70855148416013,259.4829073478468 94.4781849924475,254.42537846812047 87.69284467864782,245.99614012916572 79.21116928569973,247.26052775536664 76.00698080379516,254.6361090496648 82.41535776760429,262.43312763562426 92.02792321238667,256.74341385276057 84.86561954766512,247.26052775536664 75.06457242742181,247.8927213207353 63.944153578951955,238.40980046475306 58.66666666697711,244.31028892938048" stroke="#4dd2ff" stroke-linecap="round" stroke-linejoin="round" stroke-width="0.5"><title>2021-01-31 2.5km</title></polyline><polyline fill="none" points="118.76887944736518,256.68586832354777 120.53804762032814,260.87923429353395 124.99635141598992,265.46817860065494 127.47318685776554,267.4461646730779 130.86998974974267,268.0 140.70656479080208,253.283689228585 140.35273115616292,250.2771017269115 136.95592826441862,247.34962536836974 133.20529173803516,252.8089655492222 125.98708559270017,255.34082230046624 125.77478541224264,259.05947408499196 129.95002230000682,262.6198710753815 132.78069137665443,262.46163150598295 135.5405937260948,259.53419449168723 136.1067275411915,257.31883046764415 135.0452266377397,254.1540153286187 132.35609101504087,252.49248295783764 127.96855394658633,254.8660996980616 123.15641651605256,251.46391377376858 122.3072157932911,253.44193039974198 120.11344725871459,252.8880861796788 119.05194635526277,248.69468324742047 113.95674201706424,240.14957572874846 112.54140747897327,234.37367039569654 108.29540386400186,235.0857703020447 107.87080350262113,232.94946890394203 105.9601018759422,232.0" stroke="#4dd2ff" stroke-linecap="round" stroke-linejoin="round" stroke-width="0.5"><title>2021-01-28 1.8km</title></polyline></svg>