<?xml version="1.0" encoding="utf-8" ?>
<svg baseProfile="full" height="300mm" version="1.1" viewBox="0,0,200,300" width="200mm" xmlns="http://www.w3.org/2000/svg" xmlns:ev="http://www.w3.org/2001/xml-events" xmlns:xlink="http://www.w3.org/1999/xlink"><defs /><rect fill="#222222" height="300" width="200" x="0" y="0" /><text fill="#FFFFFF" style="font-size:12px; font-family:Futura; font-weight:bold;" x="10" y="20">All Runs</text><text fill="#FFFFFF" style="font-size:4px; font-family:Futura" x="10" y="280">ATHLETE</text><text fill="#FFFFFF" style="font-size:9px; font-family:Futura" x="10" y="290">Bill Chen</text><text fill="#FFFFFF" style="font-size:4px; font-family:Futura" x="120" y="280">STATISTICS</text><text fill="#FFFFFF" style="font-size:3px; font-family:Futura" x="120" y="285">Number: 26</text><text fill="#FFFFFF" style="font-size:3px; font-family:Futura" x="120" y="290">Weekly: 1.4</text><text fill="#FFFFFF" style="font-size:3px; font-family:Futura" x="141" y="285">Total: 65.1 km</text><text fill="#FFFFFF" style="font-size:3px; font-family:Futura" x="141" y="290">Avg: 2.5 km</text><text fill="#FFFFFF" style="font-size:3px; font-family:Futura" x="167" y="285">Min: 0.8 km</text><text fill="#FFFFFF" style="font-size:3px; font-family:Futura" x="167" y="290">Max: 5.8 km</text><polyline fill="none" points="15.307874015765265,49.827526962501 17.412598425056785,53.70609473699005 19.453543307026848,53.63150709634647 20.792913385899737,51.9159891854506 18.94330708659254,44.60634433006635 16.519685039296746,43.18915951310191 14.351181102218106,45.27764140692307 16.200787401525304,52.36351599963382 19.070866141701117,53.85526999441208 20.72913385834545,51.617637818155345 19.070866141701117,44.90469866537023 17.412598425056785,43.338336996443104 15.690551181090996,43.41292572621023 14.351181102218106,45.35222993144998 15.690551181090996,51.84140135557391 17.73149606329389,53.92985761119053 20.601574803236872,52.36351599963382 19.9000000001397,47.291528800618835 17.922834645723924,43.48751444835216 15.116535433102399,43.86045793950325 14.414960630005226,46.47105685342103 16.519685039296746,53.10939339158358 18.688188976142555,54.00444522005273 20.474015748128295,52.96021797636058 18.87952755903825,44.30798986874288 15.435433070873842,43.636691868363414 14.414960630005226,46.32188003300689 16.392125984421,52.88563025690382 17.540157480165362,53.92985761119053 19.581102361902595,53.70609473699005 20.920472441008314,50.42423108633375 18.433070866158232,43.785869257117156 15.49921259842813,43.562103162228595 14.414960630005226,46.17270318092778 16.583464567083865,53.40774412738392 17.922834645723924,54.30279557721224 20.21889763791114,53.92985761119053 21.430708661675453,49.75293891137699 18.433070866158232,43.86045793950325 15.626771653536707,43.636691868363414 14.351181102218106,46.023526297707576 16.137007873971015,52.51269154116744 17.60393700771965,53.92985761119053 19.070866141701117,53.7806823697174 20.792913385899737,51.39387420989806 18.751968503929675,44.15881259035086 16.137007873971015,43.26374825858511 14.351181102218106,46.023526297707576 16.200787401525304,52.73645479429979 19.453543307026848,53.63150709634647 20.792913385899737,51.39387420989806 18.56062992126681,43.93504661420593 15.307874015765265,43.562103162228595 14.28740157512948,46.023526297707576 16.200787401525304,52.73645479429979 19.262204724363983,53.85526999441208 20.792913385899737,51.543049956671894 18.87952755903825,44.457167115295306 16.966141732409596,42.96539322886383 15.435433070873842,43.114570759411436 14.15984251955524,45.650583950802684 15.945669291075319,52.214340426493436 18.369291338603944,53.92985761119053 20.72913385834545,52.36351599963382 20.091338582569733,45.650583950802684 20.856692913454026,45.57599545782432 26.66062992135994,60.642710806278046 33.93149606301449,59.59849339717766 44.199999999953434,55.347020831890404 41.84015748021193,48.26117623393657 36.0999999998603,49.30541043984704 29.403149606194347,35.1335285215755 26.596850393805653,36.10319268220337 26.7244094486814,38.26628484809771 22.706299212528393,39.758068680996075 20.856692913454026,37.818749082740396 14.28740157512948,39.235944698622916 11.800000000046566,40.802315484848805 16.45590551197529,58.778035776282195 18.0503937008325,60.86647147848271 26.150393700692803,59.89684138633311 22.196062992094085,47.291528800618835 19.77244094479829,45.87434938258957" stroke="#ff0000" stroke-linecap="round" stroke-linejoin="round" stroke-width="0.5"><title>2021-10-07 5.8km</title></polyline><polyline fill="none" points="63.64619263424538,31.79999999998836 65.11585399927571,40.01155998290051 66.36778775439598,41.73024439782603 67.1298343881499,45.54952551727183 64.40823926823214,47.01357685046969 65.0614220967982,53.31532234826591 61.25118892849423,55.47954294725787 60.8701656118501,56.56165032717399 61.360052733449265,62.54503246763488 63.26516931736842,64.20000000001164 65.27914970647544,62.735990492103156 65.49687731615268,56.4343436776544 63.537328829523176,54.90666178171523 61.577780343126506,56.4343436776544 61.41448463569395,62.79964315338293 63.48289692727849,64.20000000001164 65.49687731615268,62.226768958440516 65.60574112087488,56.56165032717399 64.57153497543186,54.97031527152285 63.26516931736842,54.84300828521373 61.41448463569395,56.752610250900034 61.360052733449265,62.735990492103156 63.42846502480097,64.20000000001164 65.49687731615268,62.60868514905451 65.5513092186302,56.24338365282165 63.37403312209062,54.97031527152285 61.52334844041616,56.68895694980165 61.360052733449265,62.3540743822814 63.42846502480097,64.13634748681216 65.33358160895295,62.79964315338293 65.5513092186302,56.4343436776544 63.755056439200416,54.90666178171523 61.577780343126506,56.116076935781166 61.41448463569395,62.54503246763488 63.319601220078766,64.07269496680237 65.5513092186302,62.03581077232957 65.49687731615268,55.86146342131542 63.37403312209062,54.90666178171523 61.41448463569395,56.37069034262095 61.19675702601671,62.3540743822814 62.884146000724286,64.0090424399823 65.44244541367516,62.67233782389667 64.8981263898313,56.94357011409011" stroke="#4dd2ff" stroke-linecap="round" stroke-linejoin="round" stroke-width="0.5"><title>2021-10-05 2.8km</title></polyline><polyline fill="none" points="92.15351144876331,35.87834865273908 91.37854961678386,42.90215312317014 98.54694656375796,63.29371295985766 108.62145038321614,61.93428167933598 108.23396946769208,43.58187491330318 102.42175572458655,32.70630037179217 97.38450381718576,31.800000000046566 91.18480915855616,36.33149802451953 90.02236641012132,40.862986457534134 98.74068702198565,63.29371295985766 107.84648855216801,62.16085361992009 109.78389313165098,52.87138441973366 103.58419847302139,34.29232509969734 94.0909160291776,33.15945041459054 90.7973282430321,39.95668953820132 98.54694656375796,63.29371295985766 103.39045801572502,64.19999999995343 109.2026717569679,60.34827742842026 108.04022900853306,45.847612655954435 102.80923664197326,33.38602539943531 95.64083969406784,32.479725314769894 91.76603053323925,35.65177393169142 98.15946564823389,62.61399742728099 107.652748093009,61.93428167933598 109.39641221612692,46.527333511039615 102.61549618374556,33.15945041459054 97.57824427355081,32.02657512878068 91.76603053323925,36.1049233507365 95.64083969406784,58.0825550314039 99.70938931312412,63.74685652833432 108.81519084144384,60.801421619951725 108.62145038321614,46.07418629829772 102.03427480906248,33.15945041459054 94.86587786115706,33.15945041459054 90.99106870032847,36.55807267362252 99.51564885489643,63.74685652833432 109.39641221612692,59.89513314096257 105.32786259613931,37.01122190058231 100.29061068687588,32.253150234231725 91.57229007408023,35.87834865273908 98.54694656375796,62.61399742728099 103.00297710020095,64.19999999995343 109.2026717569679,60.5748495364096 109.97763358987868,49.472788055893034" stroke="#4dd2ff" stroke-linecap="round" stroke-linejoin="round" stroke-width="0.5"><title>2021-10-04 2.6km</title></polyline><polyline fill="none" points="136.22105662408285,48.287475669174455 136.76141726085916,54.319353858882096 133.71574821695685,55.75550545513397 133.02801649738103,56.84697812749073 133.42100605135784,62.361753867648076 134.943840573309,63.9127744519501 136.66316987248138,63.39576808299171 137.2526542036794,62.361753867648076 137.3017778978683,57.07676156843081 135.53332490450703,55.69805946422275 133.61750082834624,56.84697812749073 133.3718823569361,60.63839246635325 137.1544068150688,56.7895322520053 135.58244859869592,55.69805946422275 133.66662452253513,56.55974868964404 133.42100605135784,62.189417973859236 137.2526542036794,61.27029228192987 137.0070357322693,56.55974868964404 134.45260363072157,55.985289357893635 133.42100605135784,57.01931571715977 133.47012974577956,62.821315984241664 135.6315722928848,63.9127744519501 137.2526542036794,62.361753867648076 137.3509015920572,58.51290587056428 133.47012974577956,58.340568754822016 133.3718823569361,62.074527347343974 133.76487191137858,63.16598731640261 135.82806707010604,64.20000000001164 137.3509015920572,62.821315984241664 137.2035305092577,57.07676156843081 135.87719076429494,55.75550545513397 134.20698515954427,55.985289357893635 133.42100605135784,57.01931571715977 133.3718823569361,62.189417973859236 137.4982726748567,62.30430857575266 137.2526542036794,57.07676156843081 135.58244859869592,55.69805946422275 133.56837713415734,56.617194589285646 133.22451127436943,62.361753867648076 133.56837713415734,63.39576808299171 135.18945904471911,64.14255490264622 137.1544068150688,62.993651677737944 137.4000252862461,58.340568754822016 136.7122935669031,56.21507316356292 134.40347993653268,55.870397418679204 133.27363496855833,57.536328158399556 133.91224299394526,63.45321325934492 137.44914898043498,60.293719529523514 137.2035305092577,57.134207413415425 135.77894337568432,55.00870709924493 136.85966464946978,54.20446156722028 136.17193292989396,48.517262732901145 138.38249917165376,47.77045442047529 138.97198350261897,46.79385738453129 138.52987025422044,41.681055994238704 136.90878834365867,38.63633116707206 135.0912116561085,31.79999999998836" stroke="#4dd2ff" stroke-linecap="round" stroke-linejoin="round" stroke-width="0.5"><title>2021-10-03 3.6km</title></polyline><polyline fill="none" points="168.04216047003865,32.68163932370953 162.38810400106013,39.293922359123826 167.2882862733677,59.791866357438266 175.39243388175964,63.09796746401116 181.6118959998712,56.92657448700629 175.95783952903003,36.42860228801146 166.9113491764292,33.12245884584263 162.38810400106013,39.73474048124626 168.04216047003865,60.893900643102825 175.95783952903003,63.75918705598451 181.04649035353214,56.706167256459594 175.95783952903003,36.42860228801146 173.31927984301,33.12245884584263 167.2882862733677,33.12245884584263 162.38810400106013,40.61637644702569 168.04216047003865,60.67349383234978 177.84252501931041,62.436747662723064 182.9311758428812,53.40005600405857 174.63855968602002,34.44491685251705 168.7960346667096,32.02040986577049 164.6497265873477,33.78368795407005 161.82269835285842,41.05719428928569 168.04216047003865,62.2163410151843 179.16180486232042,61.775527650956064 181.42342745047063,52.73883312358521 175.01549678388983,35.326555056497455 165.40360078401864,33.78368795407005 161.0688241571188,43.48169075627811 167.4767548236996,59.791866357438266 172.56540564727038,64.19999999995343 177.0886508235708,63.53878054860979 181.988833097741,54.942908575059846 175.95783952903003,36.42860228801146 171.62306290119886,32.02040986577049 167.66522337310016,32.68163932370953 162.19963545072824,41.277603175258264 168.23062901943922,61.555120934033766 178.21946211718023,62.87756088655442 181.23495890107006,59.35105247981846 181.04649035353214,50.975571082904935 172.56540564727038,33.12245884584263 167.4767548236996,31.799999999813735 162.19963545072824,35.326555056497455 178.21946211718023,43.04087342671119 179.16180486232042,39.51433143182658" stroke="#4dd2ff" stroke-linecap="round" stroke-linejoin="round" stroke-width="0.5"><title>2021-10-01 2.5km</title></polyline><polyline fill="none" points="33.446817281190306,83.7670700623421 34.119263858534396,87.22727192693856 26.991330133285373,82.50881284184288 22.553182719275355,83.60978796822019 20.939310932531953,86.59814491437282 24.43603313714266,101.22527907066979 28.067244658246636,104.21360059734434 31.42947754729539,103.8990407192614 34.388242489658296,98.55151261156425 30.48805233789608,84.86804425669834 25.10847971495241,82.66609505238011 20.804821617435664,86.91270845395047 24.301543821580708,101.22527907066979 26.587862186599523,103.74176075542346 31.02600960060954,104.05632066668477 35.32966769859195,97.76510979642626 30.084584391210228,84.08163420134224 24.301543821580708,82.82337724650279 20.804821617435664,88.95736983814277 25.78092629322782,103.11264073371422 30.084584391210228,104.84272015281022 34.52273180568591,103.11264073371422 33.984774542972445,91.63115355768241 29.412137813400477,83.60978796822019 23.763586559332907,82.66609505238011 21.342778879217803,89.42921437334735 25.51194766163826,103.11264073371422 31.29498823126778,104.05632066668477 34.388242489658296,100.28159734024666 30.35356302233413,84.23891624587122 23.494607928209007,82.50881284184288 20.670332301408052,87.69911701173987 25.10847971495241,102.95536068687215 30.89152028458193,105.0 34.9261997519061,102.32624033198226 29.815605760086328,83.60978796822019 23.494607928209007,82.98065942432731 20.939310932531953,88.80008829338476 24.301543821580708,101.85439989098813 31.16049891617149,103.58448077493813 33.850285227410495,98.70879312441684 30.21907370723784,83.92435213981662 25.91541560832411,82.66609505238011 20.804821617435664,87.85639867326245 25.377458347007632,102.32624033198226 27.529287395533174,104.21360059734434 32.10192412510514,103.74176075542346 34.52273180568591,97.13598724512849 31.16049891617149,84.23891624587122 25.78092629322782,82.19424837001134 20.670332301408052,87.22727192693856 24.83950108429417,101.85439989098813 28.605201920028776,104.05632066668477 32.50539207179099,103.11264073371422 34.119263858534396,98.86607362120412 31.96743480907753,88.64280673139729 34.52273180568591,85.49717200163286 28.201733973342925,74.17283184605185 31.29498823126778,72.60000000009313" stroke="#4dd2ff" stroke-linecap="round" stroke-linejoin="round" stroke-width="0.5"><title>2021-09-29 3.3km</title></polyline><polyline fill="none" points="54.092290504835546,80.75369113730267 57.945288642309606,97.49011232110206 65.28433271124959,104.14172853028867 73.90770949516445,98.56295512104407 71.15556796826422,81.82654279295821 64.36695220321417,74.10199819935951 57.945288642309606,74.10199819935951 55.37662321701646,76.89142047474161 56.47747982759029,90.1947662262246 63.81652389746159,103.06888868263923 70.2381874602288,101.78148011537269 72.43990068137646,97.70468092628289 67.66952203493565,77.74970348062925 61.798286778852344,72.8145712390542 54.64271881058812,78.82255672593601 58.67919304873794,98.99209208216053 67.30256983172148,102.85432064463384 72.43990068137646,94.70071838435251 67.1190937301144,76.0331371066859 59.59657355770469,73.24371365003753 54.64271881058812,77.53513276297599 62.532191186212,102.85432064463384 71.88947237562388,99.85036573128309 68.03647423814982,78.60798612236977 61.064382371492684,73.24371365003753 54.27576660737395,79.03712730668485 59.59657355770469,100.06493408745155 65.6512849163264,102.85432064463384 72.07294847723097,97.70468092628289 67.85299813654274,77.74970348062925 61.61481067631394,72.59999999997672 54.27576660737395,78.60798612236977 59.59657355770469,100.27950242056977 66.56866542436182,105.0 73.54075729101896,101.13777552486863 72.62337678205222,86.97622283909004 66.935617627576,76.46227883640677 61.798286778852344,73.02914245624561 55.927051522769034,75.60399528639391 55.00967101380229,79.46626840042882 65.28433271124959,99.20666052843444 71.52252017240971,93.19873544410802 68.03647423814982,79.6808389130747 60.33047796506435,78.39341549575329 57.02790813241154,85.68880405381788 61.798286778852344,95.77356266009156 70.97209186665714,99.42122895235661 70.42166356183589,89.55105795711279 64.73390440735966,81.18283186713234" stroke="#4dd2ff" stroke-linecap="round" stroke-linejoin="round" stroke-width="0.5"><title>2021-09-26 2.9km</title></polyline><polyline fill="none" points="107.12221975065768,104.38868597347755 110.38929303083569,99.80382252647541 106.7301709568128,85.8963143605506 101.37217077706009,83.1453628129093 97.0596340475604,88.64726066822186 101.633536640089,103.1660571442917 106.7301709568128,104.69434301950969 109.99724423699081,98.5811898157699 105.81539043830708,84.52083924214821 100.3267073277384,83.45102435490116 97.19031697930768,87.73027914797422 100.98012198368087,102.2490848430898 104.63924405770376,104.84717151790392 107.64495147531852,104.23585742642172 109.99724423699081,98.7340189613169 106.7301709568128,86.04914484824985 100.3267073277384,83.45102435490116 97.19031697930768,88.18876998068299 100.98012198368087,102.2490848430898 107.64495147531852,104.23585742642172 110.2586100990884,94.60762635665014 106.07675630133599,84.97933109349106 99.41192680923268,84.06234724458773 97.0596340475604,89.41141149017494 100.98012198368087,102.40191360004246 107.51426854450256,104.08302886306774 109.99724423699081,99.03967720328365 105.68470750702545,84.67366987548303 100.06534146517515,83.45102435490116 97.45168284140527,89.71707170596346 101.37217077706009,102.86039977520704 105.55402457620949,104.69434301950969 109.34382958104834,102.86039977520704 109.86656130570918,98.12270228227135 105.9460733695887,84.97933109349106 100.588073189836,83.45102435490116 97.45168284140527,89.56424160592724 102.80968302069232,104.23585742642172 105.42334164492786,105.0 109.86656130570918,101.48494081397075 108.03700026869774,88.9529210452456 110.1279271687381,86.04914484824985 103.855146470014,74.73964505840559 89.48002403741702,78.25476934446488 110.51997596211731,72.60000000009313" stroke="#4dd2ff" stroke-linecap="round" stroke-linejoin="round" stroke-width="0.5"><title>2021-09-21 2.9km</title></polyline><polyline fill="none" points="130.23741339426488,79.08006857871078 133.6728015630506,78.30246215965599 139.43538816925138,87.76330671389587 138.88129330379888,89.83690671331715 132.89706875104457,85.56010286696255 129.0184046891518,88.92970714555122 132.01051696483046,102.14883439789992 136.66491383966058,104.48160674783867 138.99211227614433,103.44481958518736 140.2111209812574,99.55685990850907 137.21900870557874,88.15210698079318 132.7862497777678,85.56010286696255 129.68331852834672,87.63370659714565 129.12922366289422,90.35530616494361 132.45379285793751,102.01923580351286 136.88655178574845,104.22241003951058 140.2111209812574,99.16806326177903 136.99737075902522,87.76330671389587 132.7862497777678,85.56010286696255 129.24004263523966,89.31850704282988 133.2295256704092,103.0560241730418 136.66491383966058,104.611205081339 140.2111209812574,100.72324910759926 136.99737075902522,87.50410646712407 132.01051696483046,85.94890383374877 129.24004263523966,89.83690671331715 132.67543080402538,102.14883439789992 134.44853437552229,103.9632132765837 138.2163794641383,103.70401645812672 140.2111209812574,99.55685990850907 136.88655178574845,87.24490616493858 132.56461183121428,85.17130177665967 129.12922366289422,89.70730681635905 132.34297388466075,101.76003857434262 137.7731035714969,103.70401645812672 140.2111209812574,99.81605760438833 136.7757328124717,86.85610561002977 131.12396517954767,85.04170138563495 128.90758571587503,89.57770690566394 132.67543080402538,103.0560241730418 135.8891810271889,104.3520084003685 140.10030200891197,100.20485404506326 137.21900870557874,87.76330671389587 133.11870669713244,85.30090215371456 128.57512879604474,89.31850704282988 132.45379285793751,101.63043993886095 136.99737075902522,103.83361487428192 140.2111209812574,99.94565643183887 137.32982767838985,88.2817070428282 134.6701723220758,85.68970320280641 130.68068928690627,85.81930352526251 128.46430982323363,90.4849059934495 130.1265944209881,99.68645876343362 135.33508616127074,104.48160674783867 139.5462071429938,102.01923580351286 140.98685379419476,98.52006857655942 139.98948303516954,93.72489724925254 134.6701723220758,85.43050251691602 130.9023272334598,85.17130177665967 128.02103393012658,89.31850704282988 132.34297388466075,101.76003857434262 137.99474151805043,104.09281166491564 140.4327589282766,99.55685990850907 136.99737075902522,87.37450632301625 131.6780600459315,84.65290013037156 127.91021495684981,89.31850704282988 132.01051696483046,101.63043993886095 136.88655178574845,104.611205081339 139.32456919597462,103.70401645812672 141.3193107135594,99.55685990850907 135.66754308110103,84.65290013037156 131.01314620673656,85.30090215371456 127.79939598357305,89.05930712504778 131.89969799248502,101.88963719585445 138.10556049086154,105.0 140.876034820918,96.05768564576283 138.5488363839686,90.61450580810197 140.32193995499983,88.02250690560322 135.11344821518287,80.11687636876013 144.2006040168926,72.59999999997672" stroke="#4dd2ff" stroke-linecap="round" stroke-linejoin="round" stroke-width="0.5"><title>2021-09-11 4.9km</title></polyline><polyline fill="none" points="173.46672775875777,77.55533187568653 168.08872597943991,77.55533187568653 164.8293309621513,82.12947227410041 171.6740604992956,103.28472049464472 179.1706690378487,87.84713143401314 172.65187900327146,102.71296029665973 177.37800177931786,81.36711634765379 175.42236476857215,78.12710006104317 169.8813932389021,76.03061582811642 164.6663612127304,78.50827875046525 162.87369395140558,81.93888332287315 164.34042171016335,91.27771821676288 168.57763523235917,101.9506130835507 173.30375800747424,105.0 178.19285053294152,103.0941337820841 180.14848754368722,88.8000728628831 175.7483042711392,77.17415298474953 171.34812099672854,77.36474244075362 172.814848754555,87.27536633482669 166.45902847126126,90.32477809954435 165.64417971670628,93.94594786362723 170.37030249182135,103.4753071871819 178.8447295371443,100.99767861363944 178.68175978586078,83.84477192827035 174.11860676202923,76.03061582811642 170.37030249182135,75.26825731946155 165.97011921927333,78.69886806455906 168.57763523235917,98.90122100443114 174.7704857653007,103.0941337820841 180.80036654789,98.71063382818829 176.40018327347934,78.69886806455906 171.6740604992956,76.41179496061523 165.64417971670628,80.03299270034768 168.41466548200697,99.85415658366401 175.91127402056009,103.85648051148746 180.9633362973109,86.32242409978062 178.02988078258932,79.84240352734923 169.8813932389021,75.64943661447614 164.6663612127304,81.93888332287315 168.9035747339949,99.09180816041771 175.91127402056009,103.4753071871819 180.80036654789,98.71063382818829 179.00769928842783,83.84477192827035 181.12630604859442,80.98593826347496 175.09642526693642,72.59999999997672" stroke="#4dd2ff" stroke-linecap="round" stroke-linejoin="round" stroke-width="0.5"><title>2021-08-16 2.6km</title></polyline><polyline fill="none" points="34.06044402346015,114.52500827424228 36.9463697494939,134.10005695582367 30.789728200994432,115.2000129534863 24.05590150784701,113.39999999990687 17.89925996027887,120.60004266980104 24.440691605210304,142.87502027489245 30.98212325014174,145.80000000004657 36.561579653061926,142.87502027489245 38.10074003972113,138.37504360987805 33.29086383059621,118.12503075227141 24.440691605210304,113.85000338149257 18.476445104926825,121.05004452704452 23.478716363199055,141.30002952576615 32.32888858765364,145.12500503635965 37.71594994422048,137.92504541995004 33.483258878812194,118.35003195493482 25.97985199186951,113.62500170222484 17.89925996027887,121.05004452704452 24.248296556062996,141.7500270018354 32.136493540368974,145.12500503635965 37.523554895073175,139.05004071700387 35.214814313687384,119.92503970558755 26.557037136517465,113.39999999990687 20.01560549158603,116.10001885867678 18.091655008494854,120.37504170509055 24.63308665342629,142.2000243824441 30.212543056346476,145.57500170217827 36.9463697494939,138.37504360987805 34.83002421725541,121.5000462892931" stroke="#4dd2ff" stroke-linecap="round" stroke-linejoin="round" stroke-width="0.5"><title>2021-08-08 1.8km</title></polyline><polyline fill="none" points="70.48412213847041,124.42984151188284 65.57190839760005,114.31915559945628 59.28427480813116,113.4000000001397 54.56854961719364,117.53619713289663 58.69480915926397,140.0553544096183 65.57190839760005,145.80000000004657 71.85954198706895,143.04257201356813 73.82442748267204,138.2170646111481 70.2876335894689,121.90217444719747 65.1789312986657,113.6297889368143 56.33694656379521,115.00852204393595 54.175572517327964,121.90217444719747 61.24916030559689,143.73192933830433 67.34030534420162,145.34042891254649 72.2525190860033,138.44685092102736 68.71572519186884,117.76598563184962 65.57190839760005,114.08936673589051 58.69480915926397,113.6297889368143 54.3720610672608,121.21281019225717 60.2667175559327,142.12342857313342 71.27007633820176,143.5021435879171 73.82442748267204,135.45962699479423 68.91221374180168,128.5660176340025 54.175572517327964,122.82132644811645 61.64213740453124,123.28090230165981" stroke="#4dd2ff" stroke-linecap="round" stroke-linejoin="round" stroke-width="0.5"><title>2021-06-28 1.3km</title></polyline><polyline fill="none" points="92.64387522917241,115.18759916583076 89.58678441587836,123.00832772091962 93.59921610914171,140.21382857393473 97.61164780240506,145.12966020964086 104.29903395753354,145.35310682980344 107.35612477082759,142.0014050384052 104.68117030896246,123.23177668196149 100.47767044045031,114.29379977216013 95.31882969103754,113.39999999990687 89.2046480635181,117.64554554666393 93.98135246057063,140.43727571424097 101.24194314330816,145.80000000004657 107.16505659557879,142.8951927027665 108.31146565079689,138.20280324248597 103.53476125374436,118.76279295654967 96.08310239575803,114.07034986512735 89.39571623969823,120.1034890676383 94.55455698817968,140.21382857393473 98.56698868144304,145.35310682980344 103.34369307849556,145.57655342645012 107.73826112411916,140.66072283196263 105.25437483657151,123.4552256197203 99.52232956048101,114.29379977216013 89.58678441587836,117.86899507627822 93.59921610914171,140.43727571424097 98.18485233001411,145.12966020964086 107.35612477082759,141.10761699522845 104.87223848514259,122.78487873519771 101.05087496805936,114.74069951637648 90.35105711873621,116.97519681812264 90.92426164634526,130.15868276311085 98.56698868144304,145.12966020964086 107.92932929936796,141.77795806294307 105.44544301275164,120.77383680362254 109.64894288219512,120.55038758157752 110.79535193741322,125.68971369904466" stroke="#4dd2ff" stroke-linecap="round" stroke-linejoin="round" stroke-width="0.5"><title>2021-06-20 2.0km</title></polyline><polyline fill="none" points="130.5752677489072,113.6265751295723 126.11923768557608,123.14270889572799 130.18778687343,142.4014216202777 135.4187786867842,145.80000000004657 141.6184726888314,144.6671411395073 144.91206012666225,139.45598266017623 140.6497705001384,120.4238178494852 134.45007649902254,113.4000000001397 126.31297812238336,117.93149802461267 128.25038249790668,132.88537345430814 134.25633606221527,144.44056929531507 141.0372513756156,144.44056929531507 144.52457925118506,141.04198875743896 143.16839618980885,129.48677457426675 131.15648906026036,114.07972531579435 125.53801637236029,118.83779647829942 132.31893168576062,143.76085361931473 136.5812213132158,145.12028475594707 145.10580056440085,139.68255503149703 142.19969400111586,118.61122190137394 132.9001529989764,114.30630037235096 126.11923768557608,119.51752006751485 130.96274862345308,140.58884427812882 137.54992350004613,145.5734282762278 146.4619836267084,139.68255503149703 141.0372513756156,121.33011524844915 145.10580056440085,117.93149802461267" stroke="#4dd2ff" stroke-linecap="round" stroke-linejoin="round" stroke-width="0.5"><title>2021-06-12 1.5km</title></polyline><polyline fill="none" points="175.44105010759085,113.40000000002328 179.6761887036264,122.06756866641808 170.1471268646419,116.28919383615721 164.14734718762338,118.76564228872303 162.73563432320952,122.89304938726127 167.67662935052067,142.91084988694638 173.32348081003875,145.3872645321535 179.14679637923837,143.11721789417788 180.91143746115267,137.1325368192047 175.08812189195305,118.55927170382347 166.6178447008133,117.1146770027699 162.73563432320952,124.13126981304958 168.5589498905465,142.7044818578288 176.1469065407291,145.3872645321535 181.26436567679048,138.9898536009714 176.323370648548,120.21023576671723 167.32370113302022,116.49556466040667 162.5591702144593,123.51215969899204 167.85309345740825,141.25990504340734 172.61762437783182,145.80000000004657 177.02922708168626,145.3872645321535 181.4408297855407,138.57711669115815 175.79397832415998,119.38475391059183 173.14701670315117,116.49556466040667 166.6178447008133,116.90830624394584 163.26502664666623,124.13126981304958 168.73541399929672,143.7363217845559 176.67629886511713,144.97452897625044 180.91143746115267,138.1643796940334 175.44105010759085,118.55927170382347 167.32370113302022,116.90830624394584 162.9120984300971,123.92489979695529 168.20602167397738,143.3235858794069 177.55861940607429,145.3872645321535 180.73497335333377,137.5452740341425 175.08812189195305,118.14653047034517 166.79430880956352,116.90830624394584 162.9120984300971,123.92489979695529 168.20602167397738,142.4981138072908 174.029337243177,145.59363227686845 180.02911692019552,143.11721789417788 180.91143746115267,136.92616817867383 174.2058013509959,117.1146770027699 165.91198826860636,117.32104774017353 162.73563432320952,124.54400978097692 168.73541399929672,143.7363217845559 178.44093994610012,143.94268970482517 180.91143746115267,137.95801116223447 174.3822654588148,118.35290109808557 170.85298329684883,116.49556466040667 163.79441897012293,118.76564228872303 162.73563432320952,126.81407803925686 169.08834221586585,143.7363217845559 176.323370648548,145.18089676531963 181.4408297855407,139.6089588017203 177.02922708168626,121.65482817532029" stroke="#4dd2ff" stroke-linecap="round" stroke-linejoin="round" stroke-width="0.5"><title>2021-05-01 3.3km</title></polyline><polyline fill="none" points="29.129273013211787,154.19999999995343 33.646365066990256,161.59570774401072 24.009902019053698,160.89135604177136 20.09508890658617,166.35007393476553 24.762750694528222,184.83914664713666 30.18326115887612,186.59999999997672 35.0014926828444,184.48697575286496 23.407623078674078,178.32397303823382 28.828133543021977,186.42391474859323 30.48440062906593,162.12397132522892 25.81673884112388,160.53918007877655 21.29964678734541,163.18049798393622 20.546798111870885,168.46312121476512 26.117878310382366,184.83914664713666 30.78554009925574,186.42391474859323 35.30263215303421,184.31089027796406 35.90491109248251,174.97833343409002 30.48440062906593,161.77179562288802 26.87072698585689,160.53918007877655 22.052495463751256,162.6522347383434 20.546798111870885,168.11094685434364 26.56958751566708,184.83914664713666 32.742946655489504,185.5434882120462 35.30263215303421,183.07829143037088 35.15206241700798,171.63268710265402" stroke="#4dd2ff" stroke-linecap="round" stroke-linejoin="round" stroke-width="0.5"><title>2021-04-29 1.3km</title></polyline><polyline fill="none" points="68.84351093880832,158.27834865357727 59.54396993666887,154.20000000018626 54.70045899879187,161.22381784953177 60.706412562169135,182.5217052968219 68.64977050106972,186.1468565282412 73.88076231535524,178.66997538809665 67.68106831330806,156.91889996547252 59.156489062123,154.87972531584091 55.28168031107634,160.31752006756142 61.868855187669396,182.97484953631647 69.0372513756156,185.92028475599363 69.0372513756156,155.78602540004067 60.125191249884665,154.65315023437142 54.70045899879187,161.22381784953177 59.93145081214607,182.5217052968219 69.42473225202411,186.1468565282412 74.26824318990111,179.80283784517087 68.26228962652385,157.59862441779114 58.187786873430014,155.10630037239753 54.312978122383356,162.35668953857385 61.09389343764633,183.88113772775978 66.906106563285,186.60000000009313 72.52457925211638,184.3342816797085 74.26824318990111,177.9902576257009 68.26228962652385,157.37204962479882 58.381527312099934,154.87972531584091 54.89419943559915,164.39585706684738 60.51267212443054,183.42799367988482 70.39343443885446,185.0139974274207 74.07450275216252,179.57626540143974 67.09984700102359,155.78602540004067 57.41282512340695,156.23917529848404 55.28168031107634,164.84900514315814 60.706412562169135,183.20142162032425 65.93740437552333,186.37342827627435 71.94335793890059,184.5608536193613 74.07450275216252,178.66997538809665 66.71236612647772,155.78602540004067 56.25038249883801,156.69232510053553 53.73175681009889,162.35668953857385 55.47542074788362,168.24761265609413" stroke="#4dd2ff" stroke-linecap="round" stroke-linejoin="round" stroke-width="0.5"><title>2021-04-10 2.5km</title></polyline><polyline fill="none" points="105.24146454688162,158.3594878523145 95.88170642778277,154.41892062244006 90.45304671768099,160.9865285018459 96.0689015891403,182.44056893256493 104.11829357221723,185.50541368848644 109.73414844553918,177.62437514262274 104.49268389679492,158.14056764775887 97.19207256380469,154.20000000018626 90.45304671768099,160.76760857529007 95.13292577769607,180.9081448521465 100.0,185.06757900072262 106.17744035832584,184.4108267966658 109.54695328231901,176.9676205755677 101.87195162381977,154.6378412207123 94.94573061540723,154.85676179639995 90.45304671768099,162.08112778817303 95.88170642778277,181.56489816843532 103.36951292399317,185.50541368848644 109.54695328231901,179.37571963644587 104.86707422230393,159.6730085941963 96.44329191464931,154.6378412207123 90.45304671768099,162.30004757549614 94.94573061540723,180.9081448521465 103.182317760773,185.94324828241952 109.73414844553918,180.0324734391179 103.74390324857086,157.70272716879845 94.00975480303168,155.73244386608712 90.26585155539215,164.92708322079852 97.00487740244716,184.19190934905782 105.24146454688162,185.06757900072262 109.73414844553918,177.84329328499734 104.3054887354374,158.57840803358704 95.32012093998492,155.07568234857172 90.0786563931033,162.9568067996297 95.32012093998492,183.31623932626098 101.31036613695323,186.60000000009313 105.80305003467947,185.50541368848644 110.10853876918554,178.28112950176 102.99512259755284,156.38920517545193 93.2609741538763,155.73244386608712 89.89146123081446,164.92708322079852 97.75365805067122,184.19190934905782 103.36951292399317,185.7243309970945 109.35975811909884,180.6892270334065" stroke="#4dd2ff" stroke-linecap="round" stroke-linejoin="round" stroke-width="0.5"><title>2021-04-04 2.7km</title></polyline><polyline fill="none" points="139.6302941897884,156.65794846252538 131.7965014660731,154.6468999334611 127.01979858614504,158.89244458149187 127.7840710459277,174.53385120397434 134.6625231942162,185.48276689648628 144.5980651853606,183.02485198900104 143.26058837864548,167.6069568519015 137.91068115271628,155.76414935244247 129.69475219864398,155.98759916541167 127.21086670085788,165.5959187510889 133.32504638750106,184.36553320265375 139.05708984378725,186.60000000009313 144.78913330007344,183.24829891743138 141.15883911121637,160.4565904578194 136.7642724616453,155.31724965572357 130.07688842900097,155.54069951642305 127.01979858614504,159.11589406291023 128.93047973699868,173.19316374789923 133.8982507325709,184.81242675124668 140.20349853485823,185.70621356461197 144.78913330007344,181.6841699250508 137.5285449223593,155.54069951642305 128.16620727721602,156.88139818119816 127.21086670085788,171.40557914949022 133.8982507325709,185.25932020531036 138.48388549871743,186.60000000009313 144.02486083935946,183.24829891743138 145.3623376460746,177.4386711048428 139.05708984378725,156.65794846252538 131.0322290053591,155.09379977197386 126.4465942401439,162.02073517558165 131.4143652357161,182.13106404128484 140.58563476614654,185.48276689648628 145.55340576171875,178.55590846342966 139.82136230450124,157.32829754636623 132.36970581114292,154.19999999995343 126.25552612449974,160.23314111796208 131.7965014660731,182.13106404128484 136.7642724616453,186.15310682961717 140.9677709955722,185.48276689648628 145.3623376460746,178.10901359072886 140.20349853485823,158.22209599404596 130.6500927740708,155.09379977197386 126.4465942401439,162.46763345389627 132.7518420414999,184.36553320265375 138.67495361343026,186.37655342696235 144.2159289540723,183.471745822113 145.74447387550026,177.6621186239645 139.6302941897884,157.10484787542373 135.617863769643,154.6468999334611 129.12154785264283,155.98759916541167 126.82873047050089,164.25522561976686 133.8982507325709,184.5889799890574 140.58563476614654,185.70621356461197 144.9802014157176,181.4607228313107 139.2481579585001,156.88139818119816 133.70718261785805,154.19999999995343 127.97513916157186,156.65794846252538 127.59300293121487,165.3724699546583 132.7518420414999,168.05385394673795" stroke="#4dd2ff" stroke-linecap="round" stroke-linejoin="round" stroke-width="0.5"><title>2021-03-25 3.3km</title></polyline><polyline fill="none" points="165.35841961577535,174.17266192194074 167.63553289044648,184.15892154700123 177.88254262506962,185.71233543683775 181.1084530968219,180.60825690673664 179.02109926287085,170.40006257616915 161.94274970516562,159.08222381421365 165.35841961577535,155.97535542934202 161.94274970516562,162.41100626229309 167.44577345065773,183.2712559509091 174.65663215331733,186.60000000009313 182.05725029483438,179.49867297359742 175.41566991154104,157.52879019710235 169.5331272855401,154.20000000018626 162.70178746245801,159.08222381421365 165.9276979342103,177.7233374591451 164.97890073712915,173.9507445008494 169.91264616511762,169.7343090455979" stroke="#4dd2ff" stroke-linecap="round" stroke-linejoin="round" stroke-width="0.5"><title>2021-03-21 0.8km</title></polyline><polyline fill="none" points="36.23658540286124,202.22436828515492 26.315243896096945,195.4378412195947 18.64024386089295,201.3486886243336 23.694512176327407,222.80273359664716 30.246341473422945,227.39999999990687 35.86219515744597,224.7729918777477 37.921341507695615,218.86221140483394 32.11829270143062,197.8459662757814 24.443292667157948,195.4378412195947 20.512195088900626,197.40812556515448 18.453048738650978,203.53788708080538 24.256097544915974,224.33515686634928 32.11829270143062,226.52433099690825 37.35975613910705,217.5487023391761 31.369512209668756,198.5027271672152 21.63536582607776,197.40812556515448 18.453048738650978,207.04059979203157 23.694512176327407,223.8973217625171 26.87682926375419,226.74324828269891 32.86707319319248,225.86757900053635 36.798170771449804,218.64329328481108 31.556707333773375,197.40812556515448 28.374390246346593,195.0 22.3841463169083,196.09460287704132 18.078658492304385,203.75680679944344 26.128048771992326,226.08649635594338 33.99024392850697,225.21082679647952 36.23658540286124,215.35951871075667" stroke="#4dd2ff" stroke-linecap="round" stroke-linejoin="round" stroke-width="0.5"><title>2021-03-16 1.5km</title></polyline><polyline fill="none" points="53.93389746081084,200.1840345633682 57.62788004428148,220.7040421627462 65.20054433867335,227.39999999990687 69.81802256871015,225.88801144063473 72.77320863492787,220.05604507727548 67.4169338895008,200.61603684863076 60.21366785187274,196.2960098751355 53.56449920218438,203.64005028945394 59.65957046486437,224.16002314398065 67.04753563087434,227.39999999990687 72.77320863492787,221.1360401052516 67.04753563087434,199.7520321861375 59.47487133461982,196.51201144140214 53.93389746081084,203.42404947825707 61.13716349750757,226.1040098743979 69.63332343939692,225.88801144063473 72.77320863492787,219.8400460027624 66.49343824386597,197.37601747643203 60.95246436819434,195.0 53.74919833056629,202.77604690683074 59.29017220623791,223.51202715584077 66.8628365015611,227.18400170304812 72.77320863492787,220.05604507727548 67.23223476018757,198.0240217621904 58.92077394761145,196.08000828698277 54.30329571850598,205.58405656460673 61.50656175520271,225.67201298312284 67.4169338895008,226.32000828557648 72.58850950561464,222.64803218469024 74.43550079781562,226.1040098743979 69.26392518077046,204.28805258707143 70.00272169709206,200.4000357175246 72.77320863492787,200.83203795715235 70.74151821434498,198.0240217621904" stroke="#4dd2ff" stroke-linecap="round" stroke-linejoin="round" stroke-width="0.5"><title>2021-03-14 2.0km</title></polyline><polyline fill="none" points="91.68853610940278,206.61936752381735 96.46523949410766,224.27174582192674 102.38835169374943,226.72966020926833 108.88466829806566,223.60140503756702 106.97398694325238,205.27867453428917 101.2419428806752,195.67034986498766 93.98135373461992,196.34069951623678 89.96892288979143,202.37383680348285 95.50989881809801,222.0372757143341 97.99378457758576,225.6124267517589 104.49010118190199,226.72966020926833 108.69360016286373,224.4951927026268 110.03107711020857,218.01522356225178 104.68116931803524,198.1282975464128 94.55455814022571,196.11724965646863 90.15999102592468,203.26763345394284 95.12776254769415,222.0372757143341 101.81514728628099,227.39999999990687 109.84000897500664,221.1434870096855 104.49010118190199,198.57519681821577 98.75805712025613,194.99999999976717 90.15999102592468,201.7034890674986 95.70096695329994,223.37795806280337 103.15262423455715,227.1765534270089 109.84000897500664,221.8138285735622 104.68116931803524,199.24554554745555 96.46523949410766,195.67034986498766 90.35105916205794,201.48003977513872 95.50989881809801,223.15451106405817 102.96155609935522,227.39999999990687 109.84000897500664,221.59038140904158 104.49010118190199,199.02209599479102 98.5669889850542,195.44689993327484 90.35105916205794,201.25659045856446 94.74562627635896,219.80280324234627" stroke="#4dd2ff" stroke-linecap="round" stroke-linejoin="round" stroke-width="0.5"><title>2021-03-04 2.1km</title></polyline><polyline fill="none" points="128.8341507022269,210.4888617094839 127.18049317225814,198.1610042693792 129.79878426203504,205.74738923285622 137.51585273630917,196.42245268798433 130.07439385028556,196.10635219910182 128.69634590810165,208.9083724328084 134.89756164699793,216.81080332351848 135.58658561762422,226.6097638431238 138.61829108931124,227.40000000002328 144.81950682820752,196.58050290960819 143.16584929823875,195.0 130.62561302725226,195.94830193114467 128.97195549681783,198.4771043554647" stroke="#4dd2ff" stroke-linecap="round" stroke-linejoin="round" stroke-width="0.5"><title>2021-02-15 0.9km</title></polyline><polyline fill="none" points="161.0586387431249,200.01018512807786 171.57591623067856,205.88960170256905 171.40628272294998,216.51044293725863 176.66492146626115,220.68290207791142 184.6376963350922,216.88975773588754 184.4680628273636,209.87242324789986 179.71832460723817,207.40686791413464 172.7633507847786,210.44139715866186 170.21884816791862,216.88975773588754 172.42408377025276,219.73461661301553 179.5486910995096,221.63118712953292 185.82513089012355,217.4587298084516 183.45026178006083,208.92413306608796 179.88795811496675,208.3551587581169 172.9329842934385,210.8207130166702 170.89738219883293,215.75181314186193 172.42408377025276,218.97598794288933 179.20942408405244,222.20015796157531 185.3162303660065,218.02770173340105 183.61989528872073,209.11379113560542 178.36125654540956,208.16550062247552 171.40628272294998,214.04489513393492 173.95078534074128,220.11393084889278 179.03979057539254,221.44153015199117 185.14659685827792,217.4587298084516 186.33403141330928,214.04489513393492 181.92356020957232,208.16550062247552 173.6115183243528,211.57934453338385 171.9151832461357,216.70010034460574 177.51308900583535,221.06221614824608 187.52146596834064,217.4587298084516 188.19999999925494,214.23455275641754 184.97696335054934,209.87242324789986 179.5486910995096,208.54481687699445 171.9151832461357,213.2862644775305 171.23664921429008,216.88975773588754 175.1382198948413,220.8725591211114 178.7005235599354,220.8725591211114 185.65549738239497,214.6138679520227 183.61989528872073,209.30344918882474 178.02198952808976,208.16550062247552 171.57591623067856,211.38968667876907 173.10261780116707,217.8380444420036 179.88795811496675,220.30358794191852 184.80732984282076,218.02770173340105 186.1643979055807,214.23455275641754 182.9413612568751,207.78618430159986 175.98638743534684,209.87242324789986 172.59371727705002,215.94147061533295 177.34345549810678,221.25187315815128 184.6376963350922,219.73461661301553 188.0303664924577,215.1828406213317 181.92356020957232,207.59652611636557 174.29005235619843,208.7344749798067 171.40628272294998,215.37249814462848 177.17382198944688,222.38981487206183 185.82513089012355,217.26907246769406 179.37905759178102,208.7344749798067 170.55811518337578,209.30344918882474 160.54973821993917,200.76882041827776 155.79999999981374,206.07926003658213" stroke="#4dd2ff" stroke-linecap="round" stroke-linejoin="round" stroke-width="0.5"><title>2021-01-31 2.5km</title></polyline><polyline fill="none" points="23.891991502372548,258.017281491193 25.484242858132347,261.79131086415146 29.49671627418138,265.9213607405545 31.72586817177944,267.7015482057468 34.78299077437259,268.20000000001164 43.635908311465755,254.95532030565664 43.317458040313795,252.24939155421453 40.26033543772064,249.61466283147456 36.88476256420836,254.52806899423013 30.388377033174038,256.80674007040216 30.197306870715693,260.1535266764695 33.95502006984316,263.35788396780845 36.502622238593176,263.2154683553381 38.98653435334563,260.58077504247194 39.49605478695594,258.5869474208448 38.54070397373289,255.7386137957801 36.120481913210824,254.24323466204805 32.17169855162501,256.3794897282496 27.84077486419119,253.31752239633352 27.076494213659316,255.09773735975614 25.102102532749996,254.5992775616469 24.146751719526947,250.82521492266096 19.561067815171555,243.13461815589108 18.287266730796546,237.93630335608032 14.465863477438688,238.5771932718344 14.083723152289167,236.65452201350126 12.364091688301414,235.79999999998836" stroke="#4dd2ff" stroke-linecap="round" stroke-linejoin="round" stroke-width="0.5"><title>2021-01-28 1.8km</title></polyline></svg>