<?xml version="1.0" encoding="utf-8" ?>
<svg baseProfile="full" height="300mm" version="1.1" viewBox="0,0,200,300" width="200mm" xmlns="http://www.w3.org/2000/svg" xmlns:ev="http://www.w3.org/2001/xml-events" xmlns:xlink="http://www.w3.org/1999/xlink"><defs /><rect fill="#222222" height="300" width="200" x="0" y="0" /><text fill="#FFFFFF" style="font-size:12px; font-family:Futura; font-weight:bold;" x="10" y="20">All Runs</text><text fill="#FFFFFF" style="font-size:4px; font-family:Futura" x="10" y="280">ATHLETE</text><text fill="#FFFFFF" style="font-size:9px; font-family:Futura" x="10" y="290">Bill Chen</text><text fill="#FFFFFF" style="font-size:4px; font-family:Futura" x="120" y="280">STATISTICS</text><text fill="#FFFFFF" style="font-size:3px; font-family:Futura" x="120" y="285">Number: 24</text><text fill="#FFFFFF" style="font-size:3px; font-family:Futura" x="120" y="290">Weekly: 1.3</text><text fill="#FFFFFF" style="font-size:3px; font-family:Futura" x="141" y="285">Total: 56.5 km</text><text fill="#FFFFFF" style="font-size:3px; font-family:Futura" x="141" y="290">Avg: 2.4 km</text><text fill="#FFFFFF" style="font-size:3px; font-family:Futura" x="167" y="285">Min: 0.8 km</text><text fill="#FFFFFF" style="font-size:3px; font-family:Futura" x="167" y="290">Max: 4.9 km</text><polyline fill="none" points="21.28167938720435,36.53149850317277 20.420610684901476,44.335725692333654 28.385496181435883,66.99301439966075 39.5793893141672,65.4825351992622 39.148854963481426,45.090972125995904 32.69083969388157,33.0070004130248 27.093893129378557,32.0 20.205343509092927,37.0349978050217 18.913740455172956,42.069984952686355 28.600763357244432,66.99301439966075 38.71832061279565,65.73428179975599 40.87099236808717,55.4126493553631 33.98244274780154,34.76925011072308 23.434351143427193,33.51050046039745 19.77480915840715,41.06298837577924 28.385496181435883,66.99301439966075 33.76717557199299,68.0 40.225190840661526,63.72030825377442 38.933587786741555,47.60845850664191 33.12137404642999,33.76225044368766 25.156488548964262,32.75525034987368 20.851145036518574,36.27974881301634 27.954961830750108,66.23777491902001 38.50305343605578,65.4825351992622 40.4404580174014,48.363703901181 32.90610686969012,33.51050046039745 27.309160304255784,32.25175014301203 20.851145036518574,36.78324816725217 25.156488548964262,61.20283892354928 29.677099236287177,67.49650725349784 39.79465648997575,64.22380179981701 39.5793893141672,47.860206997953355 32.260305343195796,33.51050046039745 24.295419845730066,33.51050046039745 19.990076333284378,37.28674741508439 29.461832060478628,67.49650725349784 40.4404580174014,63.21681460086256 35.91984732821584,37.79024655604735 30.32290076185018,32.50350026017986 20.635877859778702,36.53149850317277 28.385496181435883,66.23777491902001 33.33664122130722,68.0 40.225190840661526,63.97205504053272 41.08625954389572,51.63643117318861" stroke="#4dd2ff" stroke-linecap="round" stroke-linejoin="round" stroke-width="0.5"><title>2021-10-04 2.6km</title></polyline><polyline fill="none" points="76.91228513768874,50.319417410180904 77.5126858453732,57.02150428760797 74.12860912992619,58.61722828348866 73.36446277471259,59.829975697153714 73.80111783463508,65.95750429737382 75.49315619259141,67.6808605021215 77.40352208050899,67.10640898102429 78.05850467062555,65.95750429737382 78.11308655305766,60.08529063157039 76.14813878270797,58.55339940462727 74.01944536482915,59.829975697153714 73.74653595197015,64.04265829594806 77.94934090552852,59.76614694658201 76.20272066514008,58.55339940462727 74.07402724726126,59.510831877356395 73.80111783463508,65.7660199708771 78.05850467062555,64.74476920213783 77.78559525776654,59.510831877356395 74.94733736733906,58.872543730947655 73.80111783463508,60.02146190794883 73.85569971730001,66.46812887134729 76.25730254757218,67.6808605021215 78.05850467062555,65.95750429737382 78.16766843548976,61.6810065228492 73.85569971730001,61.48952083865879 73.74653595197015,65.63836371921934 74.18319101259112,66.85109701822512 76.47563007776625,68.0 78.16766843548976,66.46812887134729 78.00392278796062,60.08529063157039 76.53021196019836,58.61722828348866 74.67442795494571,58.872543730947655 73.80111783463508,60.02146190794883 73.74653595197015,65.7660199708771 78.3314140830189,65.89367619529366 78.05850467062555,60.08529063157039 76.20272066514008,58.55339940462727 73.96486348216422,59.57466065476183 73.58279030467384,65.95750429737382 73.96486348216422,67.10640898102429 75.76606560521759,67.93617211398669 77.94934090552852,66.6596129751997 78.22225031792186,61.48952083865879 77.45810396317393,59.127859070606064 74.89275548490696,58.744886020664126 73.63737218710594,60.595920175954234 74.34693665988743,67.17023695481475 78.27683220035397,63.65968836611137 78.00392278796062,60.14911934820702 76.42104819510132,57.787452332500834 77.62184961047024,56.893846185761504 76.85770325525664,50.57473636983195 79.31388796842657,49.74494935601251 79.9688705583103,48.6598415383487 79.47763361572288,42.9789511046838 77.67643149290234,39.59592351887841 75.65690184012055,32.0" stroke="#4dd2ff" stroke-linecap="round" stroke-linejoin="round" stroke-width="0.5"><title>2021-10-03 3.6km</title></polyline><polyline fill="none" points="118.9357338566333,32.97959924861789 112.65344888996333,40.326580399181694 118.09809586033225,63.10207373066805 127.10270431358367,66.77551940456033 134.0132177779451,59.91841609706171 127.7309328103438,37.142891431227326 117.67927686218172,33.46939871786162 112.65344888996333,40.81637831265107 118.9357338566333,64.3265562702436 127.7309328103438,67.51020784024149 133.38498928118497,59.673519174102694 127.7309328103438,37.142891431227326 124.79919982515275,33.46939871786162 118.09809586033225,33.46939871786162 112.65344888996333,41.79597383015789 118.9357338566333,64.0816598138772 129.8250277992338,66.04083073674701 135.47908427007496,56.000062226783484 126.26506631728262,34.93879650300369 119.77337185293436,32.24489985103719 115.1663628751412,34.204097726847976 112.02522039227188,42.285771432798356 118.9357338566333,65.79593446152285 131.29089429136366,65.30614183470607 133.80380827840418,55.26537013752386 126.68388531543314,35.918394507374614 116.00400087144226,34.204097726847976 111.18758239690214,44.97965639596805 118.30750535987318,63.10207373066805 123.96156183071434,68.0 128.98738980386406,67.26531172078103 134.4320367751643,57.71434286120348 127.7309328103438,37.142891431227326 122.91451433487236,32.24489985103719 118.51691485848278,32.97959924861789 112.4440393904224,42.530670195119455 119.14514335524291,65.06124548264779 130.24384679738432,66.53062320756726 133.59439877886325,62.6122805334162 133.38498928118497,53.306190092349425 123.96156183071434,33.46939871786162 118.30750535987318,32.0 112.4440393904224,35.918394507374614 130.24384679738432,44.489859363297 131.29089429136366,40.5714793689549" stroke="#4dd2ff" stroke-linecap="round" stroke-linejoin="round" stroke-width="0.5"><title>2021-10-01 2.5km</title></polyline><polyline fill="none" points="176.05201920121908,44.407855624798685 176.79918206576258,48.25252436322626 168.87925570365041,43.00979204650503 163.94798079971224,44.23309774242807 162.15478992462158,47.55349434935488 166.04003681894392,63.805865634116344 170.07471628673375,67.1262228860287 173.8105306085199,66.77671191026457 177.09804721083492,60.835014012875035 172.76450259797275,45.63116028520744 166.78719968348742,43.18455005821306 162.00535735301673,47.90300939325243 165.89060424640775,63.805865634116344 168.43095798511058,66.60195639496669 173.36223288998008,66.95146740740165 178.14407522045076,59.96123310714029 172.31620487943292,44.75737133482471 165.89060424640775,43.35930805176031 162.00535735301673,50.174855375662446 167.5343625480309,65.90293414855842 172.31620487943292,67.82524461415596 177.2474797843024,65.90293414855842 176.6497494922951,53.14572617516387 171.56904201488942,44.23309774242807 165.29287395440042,43.18455005821306 162.60308764316142,50.69912708143238 167.23549740202725,65.90293414855842 173.66109803505242,66.95146740740165 177.09804721083492,62.75733037805185 172.61507002450526,44.93212916201446 164.99400880932808,43.00979204650503 161.85592477954924,48.77679667971097 166.78719968348742,65.72817854094319 173.21280031651258,68.0 177.69577750191092,65.0291559244506 172.01733973342925,44.23309774242807 164.99400880932808,43.53406602691393 162.15478992462158,50.000098103657365 165.89060424640775,64.5048887678422 173.51166546251625,66.42720086092595 176.50031691975892,61.00977013830561 172.4656374519691,44.58261348865926 167.68379512056708,43.18455005821306 162.00535735301673,48.95155408140272 167.08606482949108,65.0291559244506 169.47698599472642,67.1262228860287 174.5576934721321,66.60195639496669 177.2474797843024,59.2622080501169 173.51166546251625,44.93212916201446 167.5343625480309,42.66027596674394 161.85592477954924,48.25252436322626 166.48833453748375,64.5048887678422 170.67244657780975,66.95146740740165 175.00599119067192,65.90293414855842 176.79918206576258,61.18452624580823 174.4082608986646,49.82534081256017 177.2474797843024,46.33019111293834 170.22414885926992,33.747590940096416 173.66109803505242,32.0" stroke="#4dd2ff" stroke-linecap="round" stroke-linejoin="round" stroke-width="0.5"><title>2021-09-29 3.3km</title></polyline><polyline fill="none" points="18.991433894261718,81.05965681932867 23.27254293486476,99.6556803570129 31.427036345936358,107.04636503383517 41.00856610480696,100.84772791247815 37.950631075538695,82.25171421444975 30.407724669203162,73.66888688830659 23.27254293486476,73.66888688830659 20.418470240198076,76.76824497198686 21.641644252464175,91.54974025138654 29.796137663535774,105.85432075872086 36.9313193988055,104.42386679491028 39.3776674233377,99.8940899183508 34.07724670507014,77.72189275640994 27.5536519754678,72.2384124880191 19.603020899929106,78.91395191778429 24.08799227606505,101.32454675808549 33.66952203400433,105.61591182742268 39.3776674233377,96.55635376041755 33.46565969940275,75.81459678546526 25.107303951866925,72.71523738908581 19.603020899929106,77.48348084790632 28.369101317599416,105.61591182742268 38.76608041673899,102.27818414615467 34.48497137520462,78.67554013617337 26.73820263519883,72.71523738908581 19.19529622979462,79.1523636742495 25.107303951866925,102.51659343065694 31.834761017002165,105.61591182742268 38.96994275227189,99.8940899183508 34.28110903967172,77.72189275640994 27.349789639934897,72.0 19.19529622979462,78.67554013617337 25.107303951866925,102.75500268978067 32.85407269373536,108.0 40.60084143374115,103.70863947225735 39.58152975700796,87.97358093247749 33.261797363869846,76.29142092959955 27.5536519754678,72.47682495159097 21.030057246796787,75.33777254051529 20.01074557006359,79.6291871117428 31.427036345936358,101.56295614293776 38.3583557466045,94.88748382683843 34.48497137520462,79.86759879253805 25.92275329399854,78.43712832871825 22.253231258131564,86.5431156156119 27.5536519754678,97.74840295570903 37.74676874000579,101.80136550287716 37.135181735269725,90.83450884139165 30.81544934026897,81.53647985239513" stroke="#4dd2ff" stroke-linecap="round" stroke-linejoin="round" stroke-width="0.5"><title>2021-09-26 2.9km</title></polyline><polyline fill="none" points="84.58024416863918,107.32076219271403 88.21032559033483,102.22646947391331 84.14463439770043,86.77368262282107 78.19130086433142,83.71706979209557 73.39959338773042,89.8302896313835 78.48170737922192,105.96228571597021 84.14463439770043,107.6603811327368 87.77471581939608,100.86798868421465 83.12821159884334,85.24537693569437 77.02967480942607,84.05669372761622 73.54479664471,88.8114212754881 77.75569109339267,104.94342760334257 81.8213822869584,107.8301905754488 85.1610571956262,107.15095269610174 87.77471581939608,101.03779884579126 84.14463439770043,86.94349427579436 77.02967480942607,84.05669372761622 73.54479664471,89.32085553405341 77.75569109339267,104.94342760334257 85.1610571956262,107.15095269610174 88.06512233335525,96.45291817409452 83.41861811373383,85.75481232604943 76.0132520115003,84.73594138282351 73.39959338773042,90.67934610019438 77.75569109339267,105.11323733336758 85.01585393957794,106.98114318121225 87.77471581939608,101.37741911469493 82.98300834186375,85.41518875048496 76.7392682954669,84.05669372761622 73.83520315773785,91.01896856212988 78.19130086433142,105.62266641680617 82.83780508581549,107.6603811327368 87.04869953542948,105.62266641680617 87.62951256334782,100.35855809145141 83.27341485582292,85.75481232604943 77.32008132338524,84.05669372761622 73.83520315773785,90.84915733989328 79.78853669110686,107.15095269610174 82.6926018288359,108.0 87.62951256334782,104.09437868208624 85.59666696563363,90.16991227248218 87.91991907730699,86.94349427579436 80.95016274601221,74.37738339812495 64.9778044866398,78.28307704941835 88.35552884824574,72.0" stroke="#4dd2ff" stroke-linecap="round" stroke-linejoin="round" stroke-width="0.5"><title>2021-09-21 2.9km</title></polyline><polyline fill="none" points="116.9304593265988,79.2000761985546 120.7475572922267,78.3360690663103 127.15043129911646,88.8481185710989 126.53477033693343,91.15211857028771 119.88563194544986,86.40011429670267 115.576005209703,90.1441190505866 118.90057440521196,104.83203821990173 124.07212648820132,107.42400749761146 126.65790252899751,106.2720217613969 128.01235664542764,101.95206656504888 124.68778745038435,89.28011886763852 119.76249975292012,86.40011429670267 116.31479836441576,88.70411844132468 115.6991374026984,91.72811796108726 119.39310317533091,104.68803978164215 124.31839087279513,107.13601115497295 128.01235664542764,101.52007029089145 124.44152306532487,88.8481185710989 119.76249975292012,86.40011429670267 115.82226959429681,90.57611893652938 120.25502852257341,105.84002685896121 124.07212648820132,107.56800564599689 128.01235664542764,103.24805456411559 124.44152306532487,88.56011829676572 118.90057440521196,86.83211537078023 115.82226959429681,91.15211857028771 119.63936755992472,104.83203821990173 121.60948263900355,106.84801475179847 125.795977181755,106.56001828692388 128.01235664542764,101.95206656504888 124.31839087279513,88.27211796108168 119.51623536739498,85.96811308525503 115.6991374026984,91.00811868486926 119.26997098233551,104.40004286030307 125.30344841210172,106.56001828692388 128.01235664542764,102.2400640049018 124.1952586802654,87.84011734451633 117.91551686590537,85.8241126507055 115.45287301717326,90.86411878408398 119.63936755992472,105.84002685896121 123.21020114095882,107.28000933374278 127.88922445382923,102.6720600501867 124.68778745038435,88.8481185710989 120.13189633004367,86.1121135042049 115.08347643958405,90.57611893652938 119.39310317533091,104.2560443765251 124.44152306532487,106.70401652692817 128.01235664542764,102.38406270206906 124.81091964198276,89.4241189364111 121.85574702406302,86.5441146697849 117.42298809625208,86.6881150280824 114.96034424798563,91.87211777060293 116.80732713406906,102.09606529271696 122.59454017877579,107.42400749761146 127.2735634916462,104.68803978164215 128.8742819931358,100.80007619620301 127.76609226083383,95.47210805478971 121.85574702406302,86.25611390767153 117.66925248131156,85.96811308525503 114.46781547786668,90.57611893652938 119.26997098233551,104.40004286030307 125.54971279716119,106.99201296106912 128.25862103095278,101.95206656504888 124.44152306532487,88.41611813672353 118.5311778280884,85.39211125602014 114.34468328487128,90.57611893652938 118.90057440521196,104.2560443765251 124.31839087279513,107.56800564599689 127.02729910612106,106.56001828692388 129.24367857025936,101.95206656504888 122.963936756365,85.39211125602014 117.79238467337564,86.1121135042049 114.2215510928072,90.28811902785674 118.77744221314788,104.54404132883064 125.67284498969093,108.0 128.75114980060607,98.06409516197164 126.16537375980988,92.01611756451894 128.13548883842304,89.13611878408119 122.34827579418197,80.35208485426847 132.4451155741699,72.0" stroke="#4dd2ff" stroke-linecap="round" stroke-linejoin="round" stroke-width="0.5"><title>2021-09-11 4.9km</title></polyline><polyline fill="none" points="171.62969750910997,77.50592430634424 165.6541399769485,77.50592430634424 162.03258995711803,82.58830252673943 169.63784499838948,106.09413388289977 177.96741004195064,88.94125714886468 170.72431000322104,105.45884477405343 175.97555753123015,81.74124038626906 173.8026275197044,78.14122229011264 167.64599248673767,75.81179536459967 161.8515124572441,78.564754167106 159.85965994559228,82.37653702544048 161.48935745470226,92.75302024080884 166.19737247936428,104.61179231503047 171.4486200073734,108.0 176.88094503618777,105.88237086904701 179.05387504771352,90.00008095870726 174.16478252224624,77.08239220525138 169.27568999584764,77.29415826743934 170.90538750495762,88.30596259434242 163.84336496703327,91.69419788836967 162.93797746207565,95.71771984850056 168.18922499008477,106.30589687463362 177.60525504034013,103.55297623737715 177.42417753860354,84.49419103143737 172.354007512331,75.81179536459967 168.18922499008477,74.96473035495728 163.3001324646175,78.77652007178403 166.19737247936428,101.22357889381237 173.07831751648337,105.88237086904701 179.77818505186588,101.0118153647054 174.88909252546728,78.77652007178403 169.63784499838948,76.23532773402985 162.93797746207565,80.25888077809941 166.01629497855902,102.28239620407112 174.34586002212018,106.72942279058043 179.9592625517398,87.24713788868394 176.6998675353825,80.04711503034923 167.64599248673767,75.38826290494762 161.8515124572441,82.37653702544048 166.5595274809748,101.43534240045119 174.34586002212018,106.30589687463362 179.77818505186588,101.0118153647054 177.7863325420767,84.49419103143737 180.1403400534764,81.31770918169059 173.44047251809388,72.0" stroke="#4dd2ff" stroke-linecap="round" stroke-linejoin="round" stroke-width="0.5"><title>2021-08-16 2.6km</title></polyline><polyline fill="none" points="36.7338266922161,113.2500091935508 39.94041083287448,135.00006328406744 33.09969800058752,114.0000143928919 25.617668341845274,112.0 18.776955510489643,120.0000474108383 26.045212893746793,144.75002252776176 33.313470277003944,148.0 39.51286628097296,144.75002252776176 41.223044488579035,139.75004845531657 35.87873758934438,117.25003416906111 26.045212893746793,112.5000037571881 19.418272338807583,120.5000494744163 24.976351514458656,143.00003280630335 34.8098762081936,147.2500055958517 40.79549993760884,139.25005046650767 36.0925098657608,117.500035505509 27.75539110135287,112.25000189128332 18.776955510489643,120.5000494744163 25.831440617330372,143.50003000185825 34.596103933639824,147.2500055958517 40.58172766119242,140.50004524108954 38.01646034885198,119.25004411721602 28.39670792967081,112.0 21.12845054641366,115.00002095405944 18.990727786906064,119.75004633911885 26.258985171094537,144.0000270914752 32.45838117413223,147.75000189151615 39.94041083287448,139.75004845531657 37.58891579695046,121.00005143275484" stroke="#4dd2ff" stroke-linecap="round" stroke-linejoin="round" stroke-width="0.5"><title>2021-08-08 1.8km</title></polyline><polyline fill="none" points="83.87124682124704,124.25537945749238 78.41323155350983,113.02128399931826 71.42697200924158,112.0 66.1872773533687,116.59577459190041 70.77201017737389,141.61706045502797 78.41323155350983,148.0 85.39949109684676,144.93619112600572 87.58269720338285,139.5745162346866 83.65292621031404,121.44686049665324 77.97659033257514,112.25532104098238 68.15216284897178,113.78724671551026 65.75063613057137,121.44686049665324 73.61017811764032,145.7021437091753 80.37811704911292,147.48936545848846 85.83613231778145,139.82983435643837 81.90636132378131,116.85109514649957 78.41323155350983,112.7659630398266 70.77201017737389,112.25532104098238 65.96895674150437,120.68090021354146 72.51857506297529,143.91492063668557 84.74452926497906,145.44682620861568 87.58269720338285,136.51069666072726 82.12468193564564,128.85113070416264 65.75063613057137,122.46814049780369 74.046819338575,122.97878033504821" stroke="#4dd2ff" stroke-linecap="round" stroke-linejoin="round" stroke-width="0.5"><title>2021-06-28 1.3km</title></polyline><polyline fill="none" points="115.1598613653332,113.98622129531577 111.76309379562736,122.67591968970373 116.22135123237967,141.793142859824 120.679608669132,147.25517801055685 128.11003773100674,147.50345203303732 131.5068053016439,143.779338931432 128.53463367652148,122.92419631336816 123.86407826747745,112.99311085767113 118.13203299045563,112.0 111.33849784824997,116.71727282949723 116.64594717789441,142.04141746019013 124.71327015850693,148.0 131.29450732842088,144.77243633614853 132.56829516775906,139.55867026932538 127.2608458371833,117.95865884027444 118.98122488334775,112.74483318324201 111.550795821473,119.44832118600607 117.28284109849483,141.793142859824 121.74109853524715,147.50345203303732 127.04854786489159,147.75172602944076 131.9314012490213,142.28969203541055 129.17152759619057,123.17247291048989 122.80258840043098,112.99311085767113 111.76309379562736,116.96555008459836 116.22135123237967,142.04141746019013 121.31650258880109,147.25517801055685 131.5068053016439,142.78624110575765 128.74693165067583,122.42764303903095 124.50097218714654,113.48966612899676 112.61228568758816,115.9724409088958 113.24917960632592,130.62075862567872 121.74109853524715,147.25517801055685 132.143699221313,143.53106451430358 129.3838255694136,120.19315200368874 134.05438098032027,119.944875090383 135.32816881965846,125.65523744327947" stroke="#4dd2ff" stroke-linecap="round" stroke-linejoin="round" stroke-width="0.5"><title>2021-06-20 2.0km</title></polyline><polyline fill="none" points="163.97251972090453,112.25175014371052 159.02137520629913,122.82523210626096 163.54198541492224,144.22380180028267 169.35419854149222,148.0 176.24274743255228,146.74126793257892 179.90228903014213,140.95109184458852 175.1664116671309,119.80424205493182 168.27786277700216,112.0 159.2366423578933,117.0349978050217 161.3893138859421,133.65041494905017 168.06259562447667,146.4895214389544 175.59694597311318,146.4895214389544 179.47175472415984,142.7133208415471 177.96488465555012,129.87419397127815 164.61832117848098,112.755250350805 158.37557374686003,118.04199608694762 165.90992409549654,145.7342817990575 170.6458014594391,147.24476083973423 180.1175561826676,141.2028389237821 176.88854889012873,117.79024655697867 166.5557255540043,113.00700041372329 159.02137520629913,118.79724451922812 164.40305402688682,142.2098269755952 171.72213722299784,147.7482536402531 181.62442625220865,141.2028389237821 175.59694597311318,120.81123916478828 180.1175561826676,117.0349978050217" stroke="#4dd2ff" stroke-linecap="round" stroke-linejoin="round" stroke-width="0.5"><title>2021-06-12 1.5km</title></polyline><polyline fill="none" points="33.82338900864124,152.0 38.529098560102284,161.63063185173087 27.941252071410418,155.2102153734304 21.274830208159983,157.96182476519607 19.706260358914733,162.54783265269361 25.196254833601415,184.78983320761472 31.470534233376384,187.5414050356485 37.94088486582041,185.01913099363446 39.901597178541124,178.3694853547495 33.43124654702842,157.7325241153594 24.019827445037663,156.12741889199242 19.706260358914733,163.92363312561065 26.176610989496112,184.56053539761342 34.60767393466085,187.5414050356485 40.29373964108527,180.43317066784948 34.80374516546726,159.56692862976342 24.80411237012595,155.4395162893925 19.510189127177,163.23573299893178 25.392326064407825,182.9554500482045 30.68624930921942,188.0 35.58803009055555,187.5414050356485 40.489810872823,179.97457410139032 34.215531471185386,158.64972656732425 31.274463002569973,155.4395162893925 24.019827445037663,155.89811804890633 20.294474051333964,163.92363312561065 26.372682221233845,185.70702420501038 35.195887628011405,187.08280997374095 39.901597178541124,179.51597743784077 33.82338900864124,157.7325241153594 24.80411237012595,155.89811804890633 19.90233158878982,163.69433310767636 25.78446852695197,185.24842875497416 36.1762437839061,187.5414050356485 39.705525947734714,178.82808226021007 33.43124654702842,157.27392274490558 24.215898676775396,155.89811804890633 19.90233158878982,163.69433310767636 25.78446852695197,184.33123756363057 32.25481915846467,187.77070252993144 38.921241021715105,185.01913099363446 39.901597178541124,178.14018686534837 32.4508903902024,156.12741889199242 23.2355425208807,156.3567197113298 19.706260358914733,164.38223309000023 26.372682221233845,185.70702420501038 37.1565999398008,185.93632189417258 39.901597178541124,179.28667906927876 32.64696162100881,157.5032234422397 28.725536996498704,155.4395162893925 20.882687744684517,157.96182476519607 19.706260358914733,166.90453115478158 26.764824683777988,185.70702420501038 34.80374516546726,187.31210751691833 40.489810872823,181.12106533534825 35.58803009055555,161.17203130596317" stroke="#4dd2ff" stroke-linecap="round" stroke-linejoin="round" stroke-width="0.5"><title>2021-05-01 3.3km</title></polyline><polyline fill="none" points="77.92141446005553,152.0 82.94040563050658,160.21745304891374 72.23322446644306,159.43484004645143 67.88343211915344,165.500082149636 73.06972299516201,186.04349627450574 79.09251239988953,188.0 84.44610298145562,185.65219528088346 71.56402564421296,178.8044144868618 77.58681504894048,187.80434972059447 79.42711181100458,160.8044125835877 74.24082093499601,159.0435334207723 69.22182976547629,161.97833109321073 68.38533123675734,167.8479124609148 74.57542034611106,186.04349627450574 79.76171122211963,187.80434972059447 84.78070239257067,185.45654475328047 85.44990121480078,175.08703714888543 79.42711181100458,160.4131062476663 75.41191887389868,159.0435334207723 70.05832829326391,161.39137193153147 68.38533123675734,167.45660761592444 75.07731946371496,186.04349627450574 81.9366073962301,186.82609801332 84.78070239257067,184.08699047821574 84.61340268701315,171.36965233634692" stroke="#4dd2ff" stroke-linecap="round" stroke-linejoin="round" stroke-width="0.5"><title>2021-04-29 1.3km</title></polyline><polyline fill="none" points="128.7150121545419,156.53149850387126 118.38218881934881,152.0 113.00050999876112,159.80424205493182 119.67379173543304,183.46856144070625 128.4997450010851,187.49650725349784 134.3119581285864,179.18886154214852 127.42340923752636,155.02099996129982 117.95165451336652,152.755250350805 113.64631145633757,158.79724451922812 120.9653946524486,183.97205504006706 128.93027930613607,187.24476083973423 128.93027930613607,153.76225044438615 119.02799027785659,152.50350026017986 113.00050999876112,159.80424205493182 118.81272312439978,183.46856144070625 129.3608136130497,187.49650725349784 134.74249243363738,180.44759760564193 128.06921069603413,155.77624935284257 116.87531874887645,153.0070004137233 112.5699756918475,161.06298837601207 120.10432604141533,184.97904191957787 126.5623406264931,188.0 132.80508805811405,185.48253519949503 134.74249243363738,178.4336195839569 128.06921069603413,155.52449958305806 117.09058590233326,152.755250350805 113.21577715035528,163.32873007422313 119.45852458290756,184.47554853302427 130.43714937753975,186.23777491925284 134.52722528018057,180.19585044588894 126.77760777901858,153.76225044438615 116.01425013784319,154.26575033157133 113.64631145633757,163.83222793671302 119.67379173543304,184.22380180028267 125.48600486200303,187.7482536402531 132.15928659960628,185.7342817990575 134.52722528018057,179.18886154214852 126.34707347396761,153.76225044438615 114.72264722082764,154.76925011142157 111.92417423333973,161.06298837601207 113.86157860886306,167.6084585066419" stroke="#4dd2ff" stroke-linecap="round" stroke-linejoin="round" stroke-width="0.5"><title>2021-04-10 2.5km</title></polyline><polyline fill="none" points="175.82384949643165,156.62165316892788 165.4241182534024,152.24324513599277 159.3922741310671,159.54058722406626 165.6321128765121,183.37840992491692 174.5758817475289,186.7837929870002 180.81572049483657,178.0270834916737 174.99187099654227,156.37840849743225 166.88008062634617,152.0 159.3922741310671,159.29734286130406 164.59213975258172,181.67571650235914 170.0,186.29731000075117 176.86382262129337,185.56758532929234 180.6077258689329,177.29735619481653 172.0799462478608,152.48649024497718 164.3841451285407,152.72973532928154 159.3922741310671,160.75680865324102 165.4241182534024,182.40544240921736 173.74390324857086,186.7837929870002 180.6077258689329,179.9730218180921 175.40786024741828,158.0811206602957 166.04810212738812,152.48649024497718 159.3922741310671,161.00005286140367 164.3841451285407,181.67571650235914 173.53590862359852,187.27027586917393 180.81572049483657,180.70274826558307 174.15989249758422,155.8919190762099 163.34417200367898,153.70271540666 159.18427950516343,163.91898135631345 166.67208600230515,185.3243437211495 175.82384949643165,186.29731000075117 180.81572049483657,178.2703258721158 174.78387637250125,156.86489781481214 164.80013437848538,152.9729803870432 158.9762848811224,161.72978533268906 164.80013437848538,184.3513770289719 171.4559623748064,188.0 176.44783337134868,186.7837929870002 181.23170974384993,178.75681055733003 173.32791399769485,154.4324501948431 162.5121935037896,153.70271540666 158.76829025615007,163.91898135631345 167.5040645012632,185.3243437211495 173.74390324857086,187.02703444100916 180.39973124396056,181.43247448140755" stroke="#4dd2ff" stroke-linecap="round" stroke-linejoin="round" stroke-width="0.5"><title>2021-04-04 2.7km</title></polyline><polyline fill="none" points="34.03366021160036,194.73105384712107 25.32944607362151,192.4965554815717 20.021998428739607,197.21382731269114 20.871190051548183,214.59316800441593 28.513914660550654,226.7586298850365 39.55340576171875,224.02761332131922 38.06732042040676,206.89661872433499 32.122979058884084,193.73794372496195 22.994169109500945,193.9862212948501 20.234296334907413,204.66213194583543 27.027829319238663,225.51725911395624 33.39676649309695,228.0 39.76570366695523,224.27588768606074 35.732043457217515,198.95176717545837 30.849191623739898,193.24138850625604 23.418764920905232,193.48966612946242 20.021998428739607,197.46210451447405 22.144977485761046,213.1035152755212 27.664723036810756,226.01380750117823 34.670553928241134,227.00690396060236 39.76570366695523,222.5379665833898 31.698383247479796,193.48966612946242 21.295785863883793,194.97933131223544 20.234296334907413,211.1173101658933 27.664723036810756,226.51035578362644 32.75987277645618,228.0 38.91651204414666,224.27588768606074 40.402597384527326,217.8207456720993 33.39676649309695,194.73105384712107 24.480254449881613,192.99311085790396 19.385104711167514,200.68970575067215 24.904850262217224,223.03451560135 35.09514973964542,226.7586298850365 40.61489529069513,219.06212051492184 34.24595811590552,195.47588616260327 25.966339791193604,192.0 19.17280680499971,198.70349013106897 25.32944607362151,223.03451560135 30.849191623739898,227.50345203303732 35.51974555104971,226.7586298850365 40.402597384527326,218.56557065644301 34.670553928241134,196.46899554901756 24.055658638477325,192.99311085790396 19.385104711167514,201.18625939334743 26.39093560166657,225.51725911395624 32.97217068169266,227.75172602990642 39.12880994938314,224.5241620244924 40.82719319500029,218.06902069342323 34.03366021160036,195.2276087505743 29.575404189527035,192.4965554815717 22.357275392860174,193.9862212948501 19.809700522571802,203.17247291072272 27.664723036810756,225.76553332107142 35.09514973964542,227.00690396060236 39.97800157312304,222.28969203471206 33.60906439833343,194.97933131223544 27.452425131574273,192.0 21.083487957715988,194.73105384712107 20.6588921463117,204.41385550540872 26.39093560166657,207.3931710519828" stroke="#4dd2ff" stroke-linecap="round" stroke-linejoin="round" stroke-width="0.5"><title>2021-03-25 3.3km</title></polyline><polyline fill="none" points="69.28713290579617,214.19184657977894 71.81725876685232,225.28769060783088 83.20282513834536,227.01370604080148 86.78717010747641,221.34250767389312 84.4678880693391,210.00006952905096 65.49194411654025,197.4246931266971 69.28713290579617,193.9726171437651 65.49194411654025,201.12334029120393 71.60641494486481,224.30139550101012 79.61848017014563,228.0 87.84138921648264,220.1096366373822 80.46185545623302,195.6986557743512 73.92569698300213,192.0 66.33531940262765,197.4246931266971 69.9196643717587,218.137041621143 68.86544526275247,213.94527166732587 74.34738462790847,209.26034338376485" stroke="#4dd2ff" stroke-linecap="round" stroke-linejoin="round" stroke-width="0.5"><title>2021-03-21 0.8km</title></polyline><polyline fill="none" points="132.48509489092976,200.0270758725237 121.46138210594654,192.48649024427868 112.93360428977758,199.0540984715335 118.54945797286928,222.8919262185227 125.82926830276847,228.0 132.06910573039204,225.08110208646394 134.35704611893743,218.513568227645 127.90921411290765,195.16218475112692 119.38143629580736,192.48649024427868 115.01355009805411,194.67569507239386 112.7256097085774,201.48654120089486 119.17344171646982,224.59461874049157 127.90921411290765,227.02703444100916 133.7330623762682,217.05411371029913 127.07723578810692,195.8919190748129 116.26151758339256,194.67569507239386 112.7256097085774,205.37844421365298 118.54945797286928,224.10813529184088 122.08536584768444,227.27027586987242 128.74119243584573,226.29731000075117 133.10907863359898,218.2703258721158 127.28523037023842,194.67569507239386 123.74932249542326,192.0 117.09349590726197,193.21622541896068 112.30962054710835,201.72978533268906 121.25338752474636,226.54055150668137 129.98915992025286,225.56758532952517 132.48509489092976,214.62168745649979" stroke="#4dd2ff" stroke-linecap="round" stroke-linejoin="round" stroke-width="0.5"><title>2021-03-16 1.5km</title></polyline><polyline fill="none" points="158.81544162333012,197.76003840379417 162.9198667164892,220.56004684744403 171.33393815439194,228.0 176.46446952223778,226.32001271191984 179.74800959508866,219.8400500859134 173.79659321065992,198.24004094302654 165.79296428058296,193.44001097232103 158.40499911364168,201.60005587735213 165.17730051651597,224.4000257155858 173.3861507019028,228.0 179.74800959508866,221.04004456149414 173.3861507019028,197.28003576234914 164.9720792612061,193.68001271272078 158.81544162333012,201.3600549758412 166.81907055340707,226.5600109717343 176.2592482669279,226.32001271191984 179.74800959508866,219.60005111433566 172.7704869378358,194.6400194184389 166.61384929902852,192.0 158.61022036802024,200.6400521188043 164.76685800775886,223.6800301731564 173.18092944659293,227.76000189222395 179.74800959508866,219.8400500859134 173.59137195628136,195.36002418026328 164.3564154971391,193.2000092077069 159.22588413208723,203.76006284961477 167.2295130621642,226.08001442579553 173.79659321065992,226.80000920640305 179.54278833977878,222.72003576089628 181.59500088728964,226.5600109717343 175.84880575723946,202.32005843007937 176.669690775685,198.00003968621604 179.74800959508866,198.4800421744585 177.4905757950619,195.36002418026328" stroke="#4dd2ff" stroke-linecap="round" stroke-linejoin="round" stroke-width="0.5"><title>2021-03-14 2.0km</title></polyline><polyline fill="none" points="20.765040120109916,244.91040835995227 26.072488326579332,264.52416202472523 32.65372410323471,267.25517801055685 39.87185366358608,263.77933893096633 37.74887438118458,243.42074948293157 31.37993653304875,232.74483318347484 23.312615259550512,233.48966612946242 18.85435876622796,240.1931520041544 25.010998685844243,262.0414174606558 27.77087175194174,266.01380750210956 34.98900131229311,267.25517801055685 39.65955573506653,264.77243633638136 41.14564123284072,257.57247062493116 35.20129924174398,235.4758861628361 23.94950904417783,233.2413885074202 19.066656694747508,241.18625939358026 24.58640282973647,262.0414174606558 32.016830316744745,268.0 40.93334330525249,261.0483188997023 34.98900131229311,235.97244090936147 28.62006346601993,232.0 19.066656694747508,239.44832118647173 25.22329661436379,263.5310645145364 33.50291581545025,267.75172603013925 40.93334330525249,261.793142859824 35.20129924174398,236.7172728306614 26.072488326579332,232.74483318347484 19.278954623267055,239.20004419470206 25.010998685844243,263.28279007133096 33.290617886930704,268.0 40.93334330525249,261.5448682324495 34.98900131229311,236.4689955499489 28.40776553750038,232.49655548180453 19.278954623267055,238.9517671763897 24.161806972697377,259.5586702695582" stroke="#4dd2ff" stroke-linecap="round" stroke-linejoin="round" stroke-width="0.5"><title>2021-03-04 2.1km</title></polyline><polyline fill="none" points="68.70461189188063,249.20984634384513 66.86721463594586,235.51222696586046 69.7764269579202,243.94154359202366 78.35094748437405,233.58050298667513 70.08265983406454,233.22928022115957 68.5514954533428,247.45374714757781 75.44173516333103,256.23422591493 76.20731735322624,267.12195982562844 79.57587898802012,268.0 86.46611869800836,233.75611434387974 84.6287214430049,232.0 70.69512558635324,233.05366881238297 68.85772833041847,235.8634492837591" stroke="#4dd2ff" stroke-linecap="round" stroke-linejoin="round" stroke-width="0.5"><title>2021-02-15 0.9km</title></polyline><polyline fill="none" points="111.17626527044922,237.56687236437574 122.86212914530188,244.0995574472472 122.67364746984094,255.90049215243198 128.51657940726727,260.53655786439776 137.3752181502059,256.3219530398492 137.1867364756763,248.52491471986286 131.90924956463277,245.78540879348293 124.1815008725971,249.15710795414634 121.35427574254572,256.3219530398492 123.80453752260655,259.4829073478468 131.72076788824052,261.5902079218067 138.69458987843245,256.95414423174225 136.0558464229107,247.4712589622941 132.0977312400937,246.83906528679654 124.36998254898936,249.57857001852244 122.10820244345814,255.05757015757263 123.80453752260655,258.639986603288 131.34380453824997,262.2223977348767 138.12914485204965,257.5863352592569 136.24432809837162,247.68199015059508 130.40139616187662,246.62833402492106 122.67364746984094,253.1609945932869 125.50087260175496,259.90436760988086 131.15532286278903,261.3794779467862 137.9406631765887,256.95414423174225 139.26003490481526,253.1609945932869 134.3595113446936,246.62833402492106 125.12390924990177,250.42149392608553 123.23909249622375,256.11122260498814 129.45898778457195,260.95801794249564 140.57940663211048,256.95414423174225 141.3333333330229,253.37172528496012 137.75218150112778,248.52491471986286 131.72076788824052,247.04979653004557 123.23909249622375,252.31807164172642 122.48516579438001,256.3219530398492 126.82024432811886,260.74728791229427 130.77835951186717,260.74728791229427 138.50610820297152,253.79318661335856 136.24432809837162,247.8927213207353 130.02443281002343,246.62833402492106 122.86212914530188,250.21076297643594 124.55846422351897,257.37560493545607 132.0977312400937,260.1150977134239 137.56369982659817,257.5863352592569 139.07155322935432,253.37172528496012 135.4904013965279,246.20687144622207 127.76265270635486,248.52491471986286 123.99301919806749,255.26830068370327 129.270506109111,261.1687479536049 137.3752181502059,259.4829073478468 141.14485165849328,254.42537846812047 134.3595113446936,245.99614012916572 125.87783595174551,247.26052775536664 122.67364746984094,254.6361090496648 129.08202443365008,262.43312763562426 138.69458987843245,256.74341385276057 131.5322862137109,247.26052775536664 121.7312390934676,247.8927213207353 110.61082024499774,238.40980046475306 105.33333333302289,244.31028892938048" stroke="#4dd2ff" stroke-linecap="round" stroke-linejoin="round" stroke-width="0.5"><title>2021-01-31 2.5km</title></polyline><polyline fill="none" points="165.43554611410946,256.68586832354777 167.20471428707242,260.87923429353395 171.6630180827342,265.46817860065494 174.13985352450982,267.4461646730779 177.53665641648695,268.0 187.37323145754635,253.283689228585 187.0193978229072,250.2771017269115 183.6225949311629,247.34962536836974 179.87195840477943,252.8089655492222 172.65375225944445,255.34082230046624 172.4414520789869,259.05947408499196 176.6166889667511,262.6198710753815 179.4473580433987,262.46163150598295 182.2072603928391,259.53419449168723 182.77339420793578,257.31883046764415 181.71189330448397,254.1540153286187 179.02275768178515,252.49248295783764 174.6352206133306,254.8660996980616 169.82308318279684,251.46391377376858 168.97388246003538,253.44193039974198 166.78011392545886,252.8880861796788 165.71861302200705,248.69468324742047 160.62340868380852,240.14957572874846 159.20807414571755,234.37367039569654 154.96207053074613,235.0857703020447 154.5374701693654,232.94946890394203 152.62676854268648,232.0" stroke="#4dd2ff" stroke-linecap="round" stroke-linejoin="round" stroke-width="0.5"><title>2021-01-28 1.8km</title></polyline></svg>