<?xml version="1.0" encoding="utf-8" ?>
<svg baseProfile="full" height="300mm" version="1.1" viewBox="0,0,200,300" width="200mm" xmlns="http://www.w3.org/2000/svg" xmlns:ev="http://www.w3.org/2001/xml-events" xmlns:xlink="http://www.w3.org/1999/xlink"><defs /><rect fill="#222222" height="300" width="200" x="0" y="0" /><text fill="#FFFFFF" style="font-size:12px; font-family:Futura; font-weight:bold;" x="10" y="20">All Runs</text><text fill="#FFFFFF" style="font-size:4px; font-family:Futura" x="10" y="280">ATHLETE</text><text fill="#FFFFFF" style="font-size:9px; font-family:Futura" x="10" y="290">Bill Chen</text><text fill="#FFFFFF" style="font-size:4px; font-family:Futura" x="120" y="280">STATISTICS</text><text fill="#FFFFFF" style="font-size:3px; font-family:Futura" x="120" y="285">Number: 25</text><text fill="#FFFFFF" style="font-size:3px; font-family:Futura" x="120" y="290">Weekly: 1.4</text><text fill="#FFFFFF" style="font-size:3px; font-family:Futura" x="141" y="285">Total: 59.3 km</text><text fill="#FFFFFF" style="font-size:3px; font-family:Futura" x="141" y="290">Avg: 2.4 km</text><text fill="#FFFFFF" style="font-size:3px; font-family:Futura" x="167" y="285">Min: 0.8 km</text><text fill="#FFFFFF" style="font-size:3px; font-family:Futura" x="167" y="290">Max: 4.9 km</text><polyline fill="none" points="27.64619263424538,31.79999999998836 29.115853999275714,40.01155998290051 30.367787754395977,41.73024439782603 31.129834388149902,45.54952551727183 28.408239268232137,47.01357685046969 29.061422096798196,53.31532234826591 25.25118892849423,55.47954294725787 24.870165611850098,56.56165032717399 25.360052733449265,62.54503246763488 27.265169317368418,64.20000000001164 29.279149706475437,62.735990492103156 29.496877316152677,56.4343436776544 27.537328829523176,54.90666178171523 25.577780343126506,56.4343436776544 25.414484635693952,62.79964315338293 27.48289692727849,64.20000000001164 29.496877316152677,62.226768958440516 29.60574112087488,56.56165032717399 28.57153497543186,54.97031527152285 27.265169317368418,54.84300828521373 25.414484635693952,56.752610250900034 25.360052733449265,62.735990492103156 27.42846502480097,64.20000000001164 29.496877316152677,62.60868514905451 29.551309218630195,56.24338365282165 27.374033122090623,54.97031527152285 25.523348440416157,56.68895694980165 25.360052733449265,62.3540743822814 27.42846502480097,64.13634748681216 29.333581608952954,62.79964315338293 29.551309218630195,56.4343436776544 27.755056439200416,54.90666178171523 25.577780343126506,56.116076935781166 25.414484635693952,62.54503246763488 27.319601220078766,64.07269496680237 29.551309218630195,62.03581077232957 29.496877316152677,55.86146342131542 27.374033122090623,54.90666178171523 25.414484635693952,56.37069034262095 25.196757026016712,62.3540743822814 26.884146000724286,64.0090424399823 29.44244541367516,62.67233782389667 28.898126389831305,56.94357011409011" stroke="#4dd2ff" stroke-linecap="round" stroke-linejoin="round" stroke-width="0.5"><title>2021-10-05 2.8km</title></polyline><polyline fill="none" points="56.15351144876331,35.87834865273908 55.37854961678386,42.90215312317014 62.546946563757956,63.29371295985766 72.62145038321614,61.93428167933598 72.23396946769208,43.58187491330318 66.42175572458655,32.70630037179217 61.38450381718576,31.800000000046566 55.18480915855616,36.33149802451953 54.02236641012132,40.862986457534134 62.74068702198565,63.29371295985766 71.84648855216801,62.16085361992009 73.78389313165098,52.87138441973366 67.58419847302139,34.29232509969734 58.090916029177606,33.15945041459054 54.7973282430321,39.95668953820132 62.546946563757956,63.29371295985766 67.39045801572502,64.19999999995343 73.2026717569679,60.34827742842026 72.04022900853306,45.847612655954435 66.80923664197326,33.38602539943531 59.640839694067836,32.479725314769894 55.766030533239245,35.65177393169142 62.15946564823389,62.61399742728099 71.652748093009,61.93428167933598 73.39641221612692,46.527333511039615 66.61549618374556,33.15945041459054 61.57824427355081,32.02657512878068 55.766030533239245,36.1049233507365 59.640839694067836,58.0825550314039 63.70938931312412,63.74685652833432 72.81519084144384,60.801421619951725 72.62145038321614,46.07418629829772 66.03427480906248,33.15945041459054 58.86587786115706,33.15945041459054 54.99106870032847,36.55807267362252 63.515648854896426,63.74685652833432 73.39641221612692,59.89513314096257 69.32786259613931,37.01122190058231 64.29061068687588,32.253150234231725 55.57229007408023,35.87834865273908 62.546946563757956,62.61399742728099 67.00297710020095,64.19999999995343 73.2026717569679,60.5748495364096 73.97763358987868,49.472788055893034" stroke="#4dd2ff" stroke-linecap="round" stroke-linejoin="round" stroke-width="0.5"><title>2021-10-04 2.6km</title></polyline><polyline fill="none" points="100.22105662408285,48.287475669174455 100.76141726085916,54.319353858882096 97.71574821695685,55.75550545513397 97.02801649738103,56.84697812749073 97.42100605135784,62.361753867648076 98.94384057330899,63.9127744519501 100.66316987248138,63.39576808299171 101.25265420367941,62.361753867648076 101.3017778978683,57.07676156843081 99.53332490450703,55.69805946422275 97.61750082834624,56.84697812749073 97.37188235693611,60.63839246635325 101.1544068150688,56.7895322520053 99.58244859869592,55.69805946422275 97.66662452253513,56.55974868964404 97.42100605135784,62.189417973859236 101.25265420367941,61.27029228192987 101.00703573226929,56.55974868964404 98.45260363072157,55.985289357893635 97.42100605135784,57.01931571715977 97.47012974577956,62.821315984241664 99.63157229288481,63.9127744519501 101.25265420367941,62.361753867648076 101.3509015920572,58.51290587056428 97.47012974577956,58.340568754822016 97.37188235693611,62.074527347343974 97.76487191137858,63.16598731640261 99.82806707010604,64.20000000001164 101.3509015920572,62.821315984241664 101.20353050925769,57.07676156843081 99.87719076429494,55.75550545513397 98.20698515954427,55.985289357893635 97.42100605135784,57.01931571715977 97.37188235693611,62.189417973859236 101.49827267485671,62.30430857575266 101.25265420367941,57.07676156843081 99.58244859869592,55.69805946422275 97.56837713415734,56.617194589285646 97.22451127436943,62.361753867648076 97.56837713415734,63.39576808299171 99.18945904471911,64.14255490264622 101.1544068150688,62.993651677737944 101.40002528624609,58.340568754822016 100.7122935669031,56.21507316356292 98.40347993653268,55.870397418679204 97.27363496855833,57.536328158399556 97.91224299394526,63.45321325934492 101.44914898043498,60.293719529523514 101.20353050925769,57.134207413415425 99.77894337568432,55.00870709924493 100.85966464946978,54.20446156722028 100.17193292989396,48.517262732901145 102.38249917165376,47.77045442047529 102.97198350261897,46.79385738453129 102.52987025422044,41.681055994238704 100.90878834365867,38.63633116707206 99.0912116561085,31.79999999998836" stroke="#4dd2ff" stroke-linecap="round" stroke-linejoin="round" stroke-width="0.5"><title>2021-10-03 3.6km</title></polyline><polyline fill="none" points="132.04216047003865,32.68163932370953 126.38810400106013,39.293922359123826 131.2882862733677,59.791866357438266 139.39243388175964,63.09796746401116 145.6118959998712,56.92657448700629 139.95783952903003,36.42860228801146 130.9113491764292,33.12245884584263 126.38810400106013,39.73474048124626 132.04216047003865,60.893900643102825 139.95783952903003,63.75918705598451 145.04649035353214,56.706167256459594 139.95783952903003,36.42860228801146 137.31927984301,33.12245884584263 131.2882862733677,33.12245884584263 126.38810400106013,40.61637644702569 132.04216047003865,60.67349383234978 141.84252501931041,62.436747662723064 146.9311758428812,53.40005600405857 138.63855968602002,34.44491685251705 132.7960346667096,32.02040986577049 128.6497265873477,33.78368795407005 125.82269835285842,41.05719428928569 132.04216047003865,62.2163410151843 143.16180486232042,61.775527650956064 145.42342745047063,52.73883312358521 139.01549678388983,35.326555056497455 129.40360078401864,33.78368795407005 125.0688241571188,43.48169075627811 131.4767548236996,59.791866357438266 136.56540564727038,64.19999999995343 141.0886508235708,63.53878054860979 145.988833097741,54.942908575059846 139.95783952903003,36.42860228801146 135.62306290119886,32.02040986577049 131.66522337310016,32.68163932370953 126.19963545072824,41.277603175258264 132.23062901943922,61.555120934033766 142.21946211718023,62.87756088655442 145.23495890107006,59.35105247981846 145.04649035353214,50.975571082904935 136.56540564727038,33.12245884584263 131.4767548236996,31.799999999813735 126.19963545072824,35.326555056497455 142.21946211718023,43.04087342671119 143.16180486232042,39.51433143182658" stroke="#4dd2ff" stroke-linecap="round" stroke-linejoin="round" stroke-width="0.5"><title>2021-10-01 2.5km</title></polyline><polyline fill="none" points="177.4468172811903,42.967070062295534 178.1192638585344,46.42727192689199 170.99133013328537,41.708812841796316 166.55318271927536,42.80978796817362 164.93931093253195,45.79814491432626 168.43603313714266,60.42527907062322 172.06724465824664,63.41360059729777 175.4294775472954,63.09904071921483 178.3882424896583,57.75151261151768 174.48805233789608,44.068044256651774 169.1084797149524,41.86609505233355 164.80482161743566,46.112708453903906 168.3015438215807,60.42527907062322 170.58786218659952,62.94176075537689 175.02600960060954,63.2563206666382 179.32966769859195,56.96510979637969 174.08458439121023,43.281634201295674 168.3015438215807,42.02337724645622 164.80482161743566,48.1573698380962 169.78092629322782,62.31264073366765 174.08458439121023,64.04272015276365 178.5227318056859,62.31264073366765 177.98477454297245,50.831153557635844 173.41213781340048,42.80978796817362 167.7635865593329,41.86609505233355 165.3427788792178,48.62921437330078 169.51194766163826,62.31264073366765 175.29498823126778,63.2563206666382 178.3882424896583,59.481597340200096 174.35356302233413,43.43891624582466 167.494607928209,41.708812841796316 164.67033230140805,46.899117011693306 169.1084797149524,62.15536068682559 174.89152028458193,64.19999999995343 178.9261997519061,61.526240331935696 173.81560576008633,42.80978796817362 167.494607928209,42.18065942428075 164.93931093253195,48.000088293338194 168.3015438215807,61.05439989094157 175.1604989161715,62.78448077489156 177.8502852274105,57.90879312437028 174.21907370723784,43.12435213977005 169.9154156083241,41.86609505233355 164.80482161743566,47.05639867321588 169.37745834700763,61.526240331935696 171.52928739553317,63.41360059729777 176.10192412510514,62.94176075537689 178.5227318056859,56.335987245081924 175.1604989161715,43.43891624582466 169.78092629322782,41.39424836996477 164.67033230140805,46.42727192689199 168.83950108429417,61.05439989094157 172.60520192002878,63.2563206666382 176.505392071791,62.31264073366765 178.1192638585344,58.06607362115756 175.96743480907753,47.84280673135072 178.5227318056859,44.697172001586296 172.20173397334293,33.37283184600528 175.29498823126778,31.800000000046566" stroke="#4dd2ff" stroke-linecap="round" stroke-linejoin="round" stroke-width="0.5"><title>2021-09-29 3.3km</title></polyline><polyline fill="none" points="18.092290504835546,90.9536911372561 21.945288642309606,107.6901123210555 29.28433271124959,114.34172853024211 37.907709495164454,108.7629551209975 35.15556796826422,92.02654279291164 28.36695220321417,84.30199819931295 21.945288642309606,84.30199819931295 19.37662321701646,87.09142047469504 20.477479827590287,100.39476622617804 27.816523897461593,113.26888868259266 34.2381874602288,111.98148011532612 36.43990068137646,107.90468092623632 31.669522034935653,87.94970348058268 25.798286778852344,83.01457123900764 18.64271881058812,89.02255672588944 22.679193048737943,109.19209208211396 31.302569831721485,113.05432064458728 36.43990068137646,104.90071838430595 31.1190937301144,86.23313710663933 23.596573557704687,83.44371364999097 18.64271881058812,87.73513276292942 26.532191186212003,113.05432064458728 35.88947237562388,110.05036573123652 32.03647423814982,88.8079861223232 25.064382371492684,83.44371364999097 18.275766607373953,89.23712730663829 23.596573557704687,110.26493408740498 29.651284916326404,113.05432064458728 36.072948477230966,107.90468092623632 31.852998136542737,87.94970348058268 25.614810676313937,82.79999999993015 18.275766607373953,88.8079861223232 23.596573557704687,110.4795024205232 30.568665424361825,115.19999999995343 37.54075729101896,111.33777552482206 36.62337678205222,97.17622283904348 30.935617627575994,86.6622788363602 25.798286778852344,83.22914245619904 19.927051522769034,85.80399528634734 19.00967101380229,89.66626840038225 29.28433271124959,109.40666052838787 35.52252017240971,103.39873544406146 32.03647423814982,89.88083891302813 24.330477965064347,88.59341549570672 21.02790813241154,95.88880405377131 25.798286778852344,105.97356266004499 34.97209186665714,109.62122895231005 34.421663561835885,99.75105795706622 28.73390440735966,91.38283186708577" stroke="#4dd2ff" stroke-linecap="round" stroke-linejoin="round" stroke-width="0.5"><title>2021-09-26 2.9km</title></polyline><polyline fill="none" points="71.12221975065768,114.58868597343098 74.38929303083569,110.00382252642885 70.7301709568128,96.09631436050404 65.37217077706009,93.34536281286273 61.059634047560394,98.8472606681753 65.633536640089,113.36605714424513 70.7301709568128,114.89434301946312 73.99724423699081,108.78118981572334 69.81539043830708,94.72083924210165 64.3267073277384,93.6510243548546 61.19031697930768,97.93027914792765 64.98012198368087,112.44908484304324 68.63924405770376,115.04717151785735 71.64495147531852,114.43585742637515 73.99724423699081,108.93401896127034 70.7301709568128,96.24914484820329 64.3267073277384,93.6510243548546 61.19031697930768,98.38876998063643 64.98012198368087,112.44908484304324 71.64495147531852,114.43585742637515 74.2586100990884,104.80762635660358 70.07675630133599,95.17933109344449 63.41192680923268,94.26234724454116 61.059634047560394,99.61141149012838 64.98012198368087,112.6019135999959 71.51426854450256,114.28302886302117 73.99724423699081,109.23967720323708 69.68470750702545,94.87366987543646 64.06534146517515,93.6510243548546 61.45168284140527,99.9170717059169 65.37217077706009,113.06039977516048 69.55402457620949,114.89434301946312 73.34382958104834,113.06039977516048 73.86656130570918,108.32270228222478 69.9460733695887,95.17933109344449 64.588073189836,93.6510243548546 61.45168284140527,99.76424160588067 66.80968302069232,114.43585742637515 69.42334164492786,115.19999999995343 73.86656130570918,111.68494081392419 72.03700026869774,99.15292104519904 74.1279271687381,96.24914484820329 67.855146470014,84.93964505835902 53.480024037417024,88.45476934441831 74.51997596211731,82.80000000004657" stroke="#4dd2ff" stroke-linecap="round" stroke-linejoin="round" stroke-width="0.5"><title>2021-09-21 2.9km</title></polyline><polyline fill="none" points="94.23741339426488,89.28006857866421 97.6728015630506,88.50246215960942 103.43538816925138,97.9633067138493 102.88129330379888,100.03690671327058 96.89706875104457,95.76010286691599 93.0184046891518,99.12970714550465 96.01051696483046,112.34883439785335 100.66491383966058,114.6816067477921 102.99211227614433,113.6448195851408 104.21112098125741,109.7568599084625 101.21900870557874,98.35210698074661 96.78624977776781,95.76010286691599 93.68331852834672,97.83370659709908 93.12922366289422,100.55530616489705 96.45379285793751,112.21923580346629 100.88655178574845,114.42241003946401 104.21112098125741,109.36806326173246 100.99737075902522,97.9633067138493 96.78624977776781,95.76010286691599 93.24004263523966,99.51850704278331 97.2295256704092,113.25602417299524 100.66491383966058,114.81120508129243 104.21112098125741,110.92324910755269 100.99737075902522,97.70410646707751 96.01051696483046,96.1489038337022 93.24004263523966,100.03690671327058 96.67543080402538,112.34883439785335 98.44853437552229,114.16321327653714 102.2163794641383,113.90401645808015 104.21112098125741,109.7568599084625 100.88655178574845,97.44490616489202 96.56461183121428,95.37130177661311 93.12922366289422,99.90730681631248 96.34297388466075,111.96003857429605 101.7731035714969,113.90401645808015 104.21112098125741,110.01605760434177 100.77573281247169,97.0561056099832 95.12396517954767,95.24170138558839 92.90758571587503,99.77770690561738 96.67543080402538,113.25602417299524 99.8891810271889,114.55200840032194 104.10030200891197,110.40485404501669 101.21900870557874,97.9633067138493 97.11870669713244,95.500902153668 92.57512879604474,99.51850704278331 96.45379285793751,111.83043993881438 100.99737075902522,114.03361487423535 104.21112098125741,110.1456564317923 101.32982767838985,98.48170704278164 98.67017232207581,95.88970320275985 94.68068928690627,96.01930352521595 92.46430982323363,100.68490599340294 94.12659442098811,109.88645876338705 99.33508616127074,114.6816067477921 103.54620714299381,112.21923580346629 104.98685379419476,108.72006857651286 103.98948303516954,103.92489724920597 98.67017232207581,95.63050251686946 94.9023272334598,95.37130177661311 92.02103393012658,99.51850704278331 96.34297388466075,111.96003857429605 101.99474151805043,114.29281166486908 104.4327589282766,109.7568599084625 100.99737075902522,97.57450632296968 95.67806004593149,94.852900130325 91.91021495684981,99.51850704278331 96.01051696483046,111.83043993881438 100.88655178574845,114.81120508129243 103.32456919597462,113.90401645808015 105.31931071355939,109.7568599084625 99.66754308110103,94.852900130325 95.01314620673656,95.500902153668 91.79939598357305,99.25930712500121 95.89969799248502,112.08963719580788 102.10556049086154,115.19999999995343 104.876034820918,106.25768564571626 102.54883638396859,100.8145058080554 104.32193995499983,98.22250690555666 99.11344821518287,90.31687636871357 108.20060401689261,82.79999999993015" stroke="#4dd2ff" stroke-linecap="round" stroke-linejoin="round" stroke-width="0.5"><title>2021-09-11 4.9km</title></polyline><polyline fill="none" points="137.46672775875777,87.75533187563997 132.08872597943991,87.75533187563997 128.8293309621513,92.32947227405384 135.6740604992956,113.48472049459815 143.1706690378487,98.04713143396657 136.65187900327146,112.91296029661316 141.37800177931786,91.56711634760723 139.42236476857215,88.3271000609966 133.8813932389021,86.23061582806986 128.6663612127304,88.70827875041869 126.87369395140558,92.13888332282659 128.34042171016335,101.47771821671631 132.57763523235917,112.15061308350414 137.30375800747424,115.19999999995343 142.19285053294152,113.29413378203753 144.14848754368722,99.00007286283653 139.7483042711392,87.37415298470296 135.34812099672854,87.56474244070705 136.814848754555,97.47536633478012 130.45902847126126,100.52477809949778 129.64417971670628,104.14594786358066 134.37030249182135,113.67530718713533 142.8447295371443,111.19767861359287 142.68175978586078,94.04477192822378 138.11860676202923,86.23061582806986 134.37030249182135,85.46825731941499 129.97011921927333,88.8988680645125 132.57763523235917,109.10122100438457 138.7704857653007,113.29413378203753 144.80036654789,108.91063382814173 140.40018327347934,88.8988680645125 135.6740604992956,86.61179496056866 129.64417971670628,90.23299270030111 132.41466548200697,110.05415658361744 139.91127402056009,114.0564805114409 144.9633362973109,96.52242409973405 142.02988078258932,90.04240352730267 133.8813932389021,85.84943661442958 128.6663612127304,92.13888332282659 132.9035747339949,109.29180816037115 139.91127402056009,113.67530718713533 144.80036654789,108.91063382814173 143.00769928842783,94.04477192822378 145.12630604859442,91.1859382634284 139.09642526693642,82.79999999993015" stroke="#4dd2ff" stroke-linecap="round" stroke-linejoin="round" stroke-width="0.5"><title>2021-08-16 2.6km</title></polyline><polyline fill="none" points="178.06044402346015,83.92500827414915 180.9463697494939,103.50005695573054 174.78972820099443,84.60001295339316 168.055901507847,82.79999999981374 161.89925996027887,90.00004266970791 168.4406916052103,112.27502027479932 174.98212325014174,115.19999999995343 180.56157965306193,112.27502027479932 182.10074003972113,107.77504360978492 177.2908638305962,87.52503075217828 168.4406916052103,83.25000338139944 162.47644510492682,90.45004452695139 167.47871636319906,110.70002952567302 176.32888858765364,114.52500503626652 181.71594994422048,107.3250454198569 177.4832588788122,87.75003195484169 169.9798519918695,83.0250017021317 161.89925996027887,90.45004452695139 168.248296556063,111.15002700174227 176.13649354036897,114.52500503626652 181.52355489507318,108.45004071691073 179.21481431368738,89.32503970549442 170.55703713651747,82.79999999981374 164.01560549158603,85.50001885858364 162.09165500849485,89.77504170499742 168.6330866534263,111.60002438235097 174.21254305634648,114.97500170208514 180.9463697494939,107.77504360978492 178.8300242172554,90.90004628919996" stroke="#4dd2ff" stroke-linecap="round" stroke-linejoin="round" stroke-width="0.5"><title>2021-08-08 1.8km</title></polyline><polyline fill="none" points="34.48412213847041,144.8298415117897 29.571908397600055,134.71915559936315 23.28427480813116,133.80000000004657 18.56854961719364,137.9361971328035 22.69480915926397,160.45535440952517 29.571908397600055,166.19999999995343 35.85954198706895,163.442572013475 37.824427482672036,158.61706461105496 34.287633589468896,142.30217444710433 29.178931298665702,134.02978893672116 20.33694656379521,135.40852204384282 18.175572517327964,142.30217444710433 25.249160305596888,164.1319293382112 31.340305344201624,165.74042891245335 36.2525190860033,158.84685092093423 32.71572519186884,138.16598563175648 29.571908397600055,134.48936673579738 22.69480915926397,134.02978893672116 18.372061067260802,141.61281019216403 24.2667175559327,162.5234285730403 35.27007633820176,163.90214358782396 37.824427482672036,155.8596269947011 32.91221374180168,148.96601763390936 18.175572517327964,143.22132644802332 25.64213740453124,143.68090230156668" stroke="#4dd2ff" stroke-linecap="round" stroke-linejoin="round" stroke-width="0.5"><title>2021-06-28 1.3km</title></polyline><polyline fill="none" points="56.64387522917241,135.58759916573763 53.586784415878356,143.4083277208265 57.59921610914171,160.6138285738416 61.61164780240506,165.52966020954773 68.29903395753354,165.7531068297103 71.35612477082759,162.40140503831208 68.68117030896246,143.63177668186836 64.47767044045031,134.693799772067 59.318829691037536,133.79999999981374 53.20464806351811,138.0455455465708 57.98135246057063,160.83727571414784 65.24194314330816,166.19999999995343 71.16505659557879,163.29519270267338 72.31146565079689,158.60280324239284 67.53476125374436,139.16279295645654 60.08310239575803,134.47034986503422 53.39571623969823,140.50348906754516 58.554556988179684,160.6138285738416 62.566988681443036,165.7531068297103 67.34369307849556,165.976553426357 71.73826112411916,161.0607228318695 69.25437483657151,143.85522561962716 63.52232956048101,134.693799772067 53.586784415878356,138.2689950761851 57.59921610914171,160.83727571414784 62.18485233001411,165.52966020954773 71.35612477082759,161.50761699513532 68.87223848514259,143.18487873510458 65.05087496805936,135.14069951628335 54.35105711873621,137.3751968180295 54.92426164634526,150.5586827630177 62.566988681443036,165.52966020954773 71.92932929936796,162.17795806284994 69.44544301275164,141.1738368035294 73.64894288219512,140.9503875814844 74.79535193741322,146.08971369895153" stroke="#4dd2ff" stroke-linecap="round" stroke-linejoin="round" stroke-width="0.5"><title>2021-06-20 2.0km</title></polyline><polyline fill="none" points="94.57526774890721,134.02657512947917 90.11923768557608,143.54270889563486 94.18778687343001,162.80142162018456 99.41877868678421,166.19999999995343 105.61847268883139,165.06714113941416 108.91206012666225,159.8559826600831 104.6497705001384,140.82381784939207 98.45007649902254,133.80000000004657 90.31297812238336,138.33149802451953 92.25038249790668,153.285373454215 98.25633606221527,164.84056929522194 105.0372513756156,164.84056929522194 108.52457925118506,161.44198875734583 107.16839618980885,149.88677457417361 95.15648906026036,134.47972531570122 89.53801637236029,139.2377964782063 96.31893168576062,164.1608536192216 100.58122131321579,165.52028475585394 109.10580056440085,160.0825550314039 106.19969400111586,139.0112219012808 96.90015299897641,134.70630037225783 90.11923768557608,139.91752006742172 94.96274862345308,160.98884427803569 101.54992350004613,165.97342827613465 110.46198362670839,160.0825550314039 105.0372513756156,141.73011524835601 109.10580056440085,138.33149802451953" stroke="#4dd2ff" stroke-linecap="round" stroke-linejoin="round" stroke-width="0.5"><title>2021-06-12 1.5km</title></polyline><polyline fill="none" points="139.44105010759085,133.79999999993015 143.6761887036264,142.46756866632495 134.1471268646419,136.68919383606408 128.14734718762338,139.1656422886299 126.73563432320952,143.29304938716814 131.67662935052067,163.31084988685325 137.32348081003875,165.78726453206036 143.14679637923837,163.51721789408475 144.91143746115267,157.53253681911156 139.08812189195305,138.95927170373034 130.6178447008133,137.51467700267676 126.73563432320952,144.53126981295645 132.5589498905465,163.10448185773566 140.1469065407291,165.78726453206036 145.26436567679048,159.38985360087827 140.323370648548,140.6102357666241 131.32370113302022,136.89556466031354 126.5591702144593,143.9121596988989 131.85309345740825,161.6599050433142 136.61762437783182,166.19999999995343 141.02922708168626,165.78726453206036 145.4408297855407,158.97711669106502 139.79397832415998,139.7847539104987 137.14701670315117,136.89556466031354 130.6178447008133,137.3083062438527 127.26502664666623,144.53126981295645 132.73541399929672,164.13632178446278 140.67629886511713,165.3745289761573 144.91143746115267,158.56437969394028 139.44105010759085,138.95927170373034 131.32370113302022,137.3083062438527 126.9120984300971,144.32489979686216 132.20602167397738,163.72358587931376 141.55861940607429,165.78726453206036 144.73497335333377,157.94527403404936 139.08812189195305,138.54653047025204 130.79430880956352,137.3083062438527 126.9120984300971,144.32489979686216 132.20602167397738,162.89811380719766 138.029337243177,165.99363227677532 144.02911692019552,163.51721789408475 144.91143746115267,157.3261681785807 138.2058013509959,137.51467700267676 129.91198826860636,137.7210477400804 126.73563432320952,144.9440097808838 132.73541399929672,164.13632178446278 142.44093994610012,164.34268970473204 144.91143746115267,158.35801116214134 138.3822654588148,138.75290109799244 134.85298329684883,136.89556466031354 127.79441897012293,139.1656422886299 126.73563432320952,147.21407803916372 133.08834221586585,164.13632178446278 140.323370648548,165.5808967652265 145.4408297855407,160.00895880162716 141.02922708168626,142.05482817522716" stroke="#4dd2ff" stroke-linecap="round" stroke-linejoin="round" stroke-width="0.5"><title>2021-05-01 3.3km</title></polyline><polyline fill="none" points="173.1292730132118,133.79999999993015 177.64636506699026,141.19570774398744 168.0099020190537,140.49135604174808 164.09508890658617,145.95007393474225 168.76275069452822,164.43914664711338 174.18326115887612,166.19999999995343 179.0014926828444,164.08697575284168 167.40762307867408,157.92397303821053 172.82813354302198,166.02391474856995 174.48440062906593,141.72397132520564 169.81673884112388,140.13918007875327 165.2996467873454,142.78049798391294 164.54679811187088,148.06312121474184 170.11787831038237,164.43914664711338 174.78554009925574,166.02391474856995 179.3026321530342,163.91089027794078 179.9049110924825,154.57833343406674 174.48440062906593,141.37179562286474 170.8707269858569,140.13918007875327 166.05249546375126,142.2522347383201 164.54679811187088,147.71094685432035 170.56958751566708,164.43914664711338 176.7429466554895,165.14348821202293 179.3026321530342,162.6782914303476 179.15206241700798,151.23268710263073" stroke="#4dd2ff" stroke-linecap="round" stroke-linejoin="round" stroke-width="0.5"><title>2021-04-29 1.3km</title></polyline><polyline fill="none" points="32.84351093880832,188.87834865343757 23.543969936668873,184.80000000004657 18.700458998791873,191.82381784939207 24.706412562169135,213.1217052966822 32.649770501069725,216.7468565281015 37.88076231535524,209.26997538795695 31.68106831330806,187.51889996533282 23.156489062123,185.47972531570122 19.281680311076343,190.91752006742172 25.868855187669396,213.57484953617677 33.0372513756156,216.52028475585394 33.0372513756156,186.38602539990097 24.125191249884665,185.25315023423173 18.700458998791873,191.82381784939207 23.931450812146068,213.1217052966822 33.424732252024114,216.7468565281015 38.26824318990111,210.40283784503117 32.26228962652385,188.19862441765144 22.187786873430014,185.70630037225783 18.312978122383356,192.95668953843415 25.09389343764633,214.48113772762008 30.906106563284993,217.19999999995343 36.52457925211638,214.9342816795688 38.26824318990111,208.5902576255612 32.26228962652385,187.97204962465912 22.381527312099934,185.47972531570122 18.89419943559915,194.99585706670769 24.512672124430537,214.02799367974512 34.393434438854456,215.613997427281 38.074502752162516,210.17626540130004 31.09984700102359,186.38602539990097 21.412825123406947,186.83917529834434 19.281680311076343,195.44900514301844 24.706412562169135,213.80142162018456 29.93740437552333,216.97342827613465 35.94335793890059,215.1608536192216 38.074502752162516,209.26997538795695 30.71236612647772,186.38602539990097 20.250382498838007,187.29232510039583 17.731756810098886,192.95668953843415 19.475420747883618,198.84761265595444" stroke="#4dd2ff" stroke-linecap="round" stroke-linejoin="round" stroke-width="0.5"><title>2021-04-10 2.5km</title></polyline><polyline fill="none" points="69.24146454688162,188.9594878521748 59.881706427782774,185.01892062230036 54.45304671768099,191.5865285017062 60.068901589140296,213.04056893242523 68.11829357221723,216.10541368834674 73.73414844553918,208.22437514248304 68.49268389679492,188.74056764761917 61.192072563804686,184.80000000004657 54.45304671768099,191.36760857515037 59.13292577769607,211.5081448520068 64.0,215.66757900058292 70.17744035832584,215.0108267965261 73.54695328231901,207.567620575428 65.87195162381977,185.2378412205726 58.94573061540723,185.45676179626025 54.45304671768099,192.68112778803334 59.881706427782774,212.16489816829562 67.36951292399317,216.10541368834674 73.54695328231901,209.97571963630617 68.86707422230393,190.2730085940566 60.44329191464931,185.2378412205726 54.45304671768099,192.90004757535644 58.94573061540723,211.5081448520068 67.182317760773,216.54324828227982 73.73414844553918,210.6324734389782 67.74390324857086,188.30272716865875 58.00975480303168,186.33244386594743 54.265851555392146,195.52708322065882 61.004877402447164,214.79190934891813 69.24146454688162,215.66757900058292 73.73414844553918,208.44329328485765 68.3054887354374,189.17840803344734 59.32012093998492,185.67568234843202 54.0786563931033,193.55680679949 59.32012093998492,213.91623932612129 65.31036613695323,217.19999999995343 69.80305003467947,216.10541368834674 74.10853876918554,208.8811295016203 66.99512259755284,186.98920517531224 57.260974153876305,186.33244386594743 53.89146123081446,195.52708322065882 61.75365805067122,214.79190934891813 67.36951292399317,216.3243309969548 73.35975811909884,211.2892270332668" stroke="#4dd2ff" stroke-linecap="round" stroke-linejoin="round" stroke-width="0.5"><title>2021-04-04 2.7km</title></polyline><polyline fill="none" points="103.6302941897884,187.25794846238568 95.7965014660731,185.2468999333214 91.01979858614504,189.49244458135217 91.7840710459277,205.13385120383464 98.66252319421619,216.08276689634658 108.59806518536061,213.62485198886134 107.26058837864548,198.2069568517618 101.91068115271628,186.36414935230277 93.69475219864398,186.58759916527197 91.21086670085788,196.1959187509492 97.32504638750106,214.96553320251405 103.05708984378725,217.19999999995343 108.78913330007344,213.8482989172917 105.15883911121637,191.0565904576797 100.7642724616453,185.91724965558387 94.07688842900097,186.14069951628335 91.01979858614504,189.71589406277053 92.93047973699868,203.79316374775954 97.89825073257089,215.41242675110698 104.20349853485823,216.30621356447227 108.78913330007344,212.2841699249111 101.52854492235929,186.14069951628335 92.16620727721602,187.48139818105847 91.21086670085788,202.00557914935052 97.89825073257089,215.85932020517066 102.48388549871743,217.19999999995343 108.02486083935946,213.8482989172917 109.3623376460746,208.0386711047031 103.05708984378725,187.25794846238568 95.03222900535911,185.69379977183416 90.4465942401439,192.62073517544195 95.4143652357161,212.73106404114515 104.58563476614654,216.08276689634658 109.55340576171875,209.15590846328996 103.82136230450124,187.92829754622653 96.36970581114292,184.79999999981374 90.25552612449974,190.83314111782238 95.7965014660731,212.73106404114515 100.7642724616453,216.75310682947747 104.96777099557221,216.08276689634658 109.3623376460746,208.70901359058917 104.20349853485823,188.82209599390626 94.6500927740708,185.69379977183416 90.4465942401439,193.06763345375657 96.75184204149991,214.96553320251405 102.67495361343026,216.97655342682265 108.2159289540723,214.0717458219733 109.74447387550026,208.2621186238248 103.6302941897884,187.70484787528403 99.61786376964301,185.2468999333214 93.12154785264283,186.58759916527197 90.82873047050089,194.85522561962716 97.89825073257089,215.1889799889177 104.58563476614654,216.30621356447227 108.9802014157176,212.060722831171 103.24815795850009,187.48139818105847 97.70718261785805,184.79999999981374 91.97513916157186,187.25794846238568 91.59300293121487,195.9724699545186 96.75184204149991,198.65385394659825" stroke="#4dd2ff" stroke-linecap="round" stroke-linejoin="round" stroke-width="0.5"><title>2021-03-25 3.3km</title></polyline><polyline fill="none" points="129.35841961577535,204.77266192180105 131.63553289044648,214.75892154686153 141.88254262506962,216.31233543669805 145.1084530968219,211.20825690659694 143.02109926287085,201.00006257602945 125.94274970516562,189.68222381407395 129.35841961577535,186.57535542920232 125.94274970516562,193.0110062621534 131.44577345065773,213.8712559507694 138.65663215331733,217.19999999995343 146.05725029483438,210.09867297345772 139.41566991154104,188.12879019696265 133.5331272855401,184.80000000004657 126.70178746245801,189.68222381407395 129.9276979342103,208.32333745900542 128.97890073712915,204.5507445007097 133.91264616511762,200.3343090454582" stroke="#4dd2ff" stroke-linecap="round" stroke-linejoin="round" stroke-width="0.5"><title>2021-03-21 0.8km</title></polyline><polyline fill="none" points="180.23658540286124,192.0243682852015 170.31524389609694,185.23784121964127 162.64024386089295,191.14868862438016 167.6945121763274,212.60273359669372 174.24634147342294,217.19999999995343 179.86219515744597,214.57299187779427 181.92134150769562,208.6622114048805 176.11829270143062,187.64596627582796 168.44329266715795,185.23784121964127 164.51219508890063,187.20812556520104 162.45304873865098,193.33788708085194 168.25609754491597,214.13515686639585 176.11829270143062,216.3243309969548 181.35975613910705,207.34870233922265 175.36951220966876,188.30272716726176 165.63536582607776,187.20812556520104 162.45304873865098,196.84059979207814 167.6945121763274,213.69732176256366 170.8768292637542,216.54324828274548 176.86707319319248,215.66757900058292 180.7981707714498,208.44329328485765 175.55670733377337,187.20812556520104 172.3743902463466,184.80000000004657 166.3841463169083,185.8946028770879 162.07865849230438,193.55680679949 170.12804877199233,215.88649635598995 177.99024392850697,215.0108267965261 180.23658540286124,205.15951871080324" stroke="#4dd2ff" stroke-linecap="round" stroke-linejoin="round" stroke-width="0.5"><title>2021-03-16 1.5km</title></polyline><polyline fill="none" points="17.93389746081084,240.98403456341475 21.627880044281483,261.50404216279276 29.200544338673353,268.19999999995343 33.81802256871015,266.6880114406813 36.77320863492787,260.85604507732205 31.416933889500797,241.41603684867732 24.213667851872742,237.09600987518206 17.56449920218438,244.4400502895005 23.659570464864373,264.9600231440272 31.047535630874336,268.19999999995343 36.77320863492787,261.93604010529816 31.047535630874336,240.55203218618408 23.47487133461982,237.3120114414487 17.93389746081084,244.22404947830364 25.137163497507572,266.90400987444445 33.63332343939692,266.6880114406813 36.77320863492787,260.64004600280896 30.493438243865967,238.1760174764786 24.95246436819434,235.80000000004657 17.749198330566287,243.5760469068773 23.290172206237912,264.31202715588734 30.862836501561105,267.9840017030947 36.77320863492787,260.85604507732205 31.232234760187566,238.82402176223695 22.92077394761145,236.88000828702934 18.30329571850598,246.3840565646533 25.50656175520271,266.4720129831694 31.416933889500797,267.12000828562304 36.58850950561464,263.4480321847368 38.43550079781562,266.90400987444445 33.26392518077046,245.088052587118 34.002721697092056,241.20003571757115 36.77320863492787,241.63203795719892 34.74151821434498,238.82402176223695" stroke="#4dd2ff" stroke-linecap="round" stroke-linejoin="round" stroke-width="0.5"><title>2021-03-14 2.0km</title></polyline><polyline fill="none" points="55.688536109402776,247.4193675238639 60.465239494107664,265.0717458219733 66.38835169374943,267.5296602093149 72.88466829806566,264.4014050376136 70.97398694325238,246.07867453433573 65.2419428806752,236.47034986503422 57.981353734619915,237.14069951628335 53.96892288979143,243.1738368035294 59.50989881809801,262.83727571438067 61.99378457758576,266.41242675180547 68.49010118190199,267.5296602093149 72.69360016286373,265.2951927026734 74.03107711020857,258.81522356229834 68.68116931803524,238.92829754645936 58.55455814022571,236.9172496565152 54.15999102592468,244.0676334539894 59.12776254769415,262.83727571438067 65.81514728628099,268.19999999995343 73.84000897500664,261.94348700973205 68.49010118190199,239.37519681826234 62.758057120256126,235.79999999981374 54.15999102592468,242.50348906754516 59.70096695329994,264.17795806284994 67.15262423455715,267.9765534270555 73.84000897500664,262.61382857360877 68.68116931803524,240.04554554750212 60.465239494107664,236.47034986503422 54.351059162057936,242.2800397751853 59.50989881809801,263.95451106410474 66.96155609935522,268.19999999995343 73.84000897500664,262.39038140908815 68.49010118190199,239.82209599483758 62.566988985054195,236.2468999333214 54.351059162057936,242.05659045861103 58.74562627635896,260.60280324239284" stroke="#4dd2ff" stroke-linecap="round" stroke-linejoin="round" stroke-width="0.5"><title>2021-03-04 2.1km</title></polyline><polyline fill="none" points="92.8341507022269,251.28886170941405 91.18049317225814,238.96100426930934 93.79878426203504,246.54738923278637 101.51585273630917,237.22245268791448 94.07439385028556,236.90635219903197 92.69634590810165,249.70837243273854 98.89756164699793,257.61080332344864 99.58658561762422,267.40976384305395 102.61829108931124,268.19999999995343 108.81950682820752,237.38050290953834 107.16584929823875,235.79999999993015 94.62561302725226,236.74830193107482 92.97195549681783,239.27710435539484" stroke="#4dd2ff" stroke-linecap="round" stroke-linejoin="round" stroke-width="0.5"><title>2021-02-15 0.9km</title></polyline><polyline fill="none" points="125.0586387431249,240.81018512812443 135.57591623067856,246.68960170261562 135.40628272294998,257.3104429373052 140.66492146626115,261.482902077958 148.6376963350922,257.6897577359341 148.4680628273636,250.67242324794643 143.71832460723817,248.2068679141812 136.7633507847786,251.24139715870842 134.21884816791862,257.6897577359341 136.42408377025276,260.5346166130621 143.5486910995096,262.4311871295795 149.82513089012355,258.2587298084982 147.45026178006083,249.72413306613453 143.88795811496675,249.15515875816345 136.9329842934385,251.62071301671676 134.89738219883293,256.5518131419085 136.42408377025276,259.7759879429359 143.20942408405244,263.0001579616219 149.3162303660065,258.8277017334476 147.61989528872073,249.913791135652 142.36125654540956,248.9655006225221 135.40628272294998,254.84489513398148 137.95078534074128,260.91393084893934 143.03979057539254,262.24153015203774 149.14659685827792,258.2587298084982 150.33403141330928,254.84489513398148 145.92356020957232,248.9655006225221 137.6115183243528,252.3793445334304 135.9151832461357,257.5001003446523 141.51308900583535,261.86221614829265 151.52146596834064,258.2587298084982 152.19999999925494,255.0345527564641 148.97696335054934,250.67242324794643 143.5486910995096,249.344816877041 135.9151832461357,254.08626447757706 135.23664921429008,257.6897577359341 139.1382198948413,261.672559121158 142.7005235599354,261.672559121158 149.65549738239497,255.41386795206927 147.61989528872073,250.1034491888713 142.02198952808976,248.9655006225221 135.57591623067856,252.18968667881563 137.10261780116707,258.63804444205016 143.88795811496675,261.1035879419651 148.80732984282076,258.8277017334476 150.1643979055807,255.0345527564641 146.9413612568751,248.58618430164643 139.98638743534684,250.67242324794643 136.59371727705002,256.7414706153795 141.34345549810678,262.05187315819785 148.6376963350922,260.5346166130621 152.0303664924577,255.98284062137827 145.92356020957232,248.39652611641213 138.29005235619843,249.53447497985326 135.40628272294998,256.17249814467505 141.17382198944688,263.1898148721084 149.82513089012355,258.0690724677406 143.37905759178102,249.53447497985326 134.55811518337578,250.1034491888713 124.54973821993917,241.56882041832432 119.79999999981374,246.8792600366287" stroke="#4dd2ff" stroke-linecap="round" stroke-linejoin="round" stroke-width="0.5"><title>2021-01-31 2.5km</title></polyline><polyline fill="none" points="167.89199150237255,258.017281491193 169.48424285813235,261.79131086415146 173.49671627418138,265.9213607405545 175.72586817177944,267.7015482057468 178.7829907743726,268.20000000001164 187.63590831146576,254.95532030565664 187.3174580403138,252.24939155421453 184.26033543772064,249.61466283147456 180.88476256420836,254.52806899423013 174.38837703317404,256.80674007040216 174.1973068707157,260.1535266764695 177.95502006984316,263.35788396780845 180.50262223859318,263.2154683553381 182.98653435334563,260.58077504247194 183.49605478695594,258.5869474208448 182.5407039737329,255.7386137957801 180.12048191321082,254.24323466204805 176.171698551625,256.3794897282496 171.8407748641912,253.31752239633352 171.07649421365932,255.09773735975614 169.10210253275,254.5992775616469 168.14675171952695,250.82521492266096 163.56106781517155,243.13461815589108 162.28726673079655,237.93630335608032 158.4658634774387,238.5771932718344 158.08372315228917,236.65452201350126 156.36409168830141,235.79999999998836" stroke="#4dd2ff" stroke-linecap="round" stroke-linejoin="round" stroke-width="0.5"><title>2021-01-28 1.8km</title></polyline></svg>