<?xml version="1.0" encoding="utf-8" ?>
<svg baseProfile="full" height="200mm" version="1.1" viewBox="0,0,200,200" width="200mm" xmlns="http://www.w3.org/2000/svg" xmlns:ev="http://www.w3.org/2001/xml-events" xmlns:xlink="http://www.w3.org/1999/xlink"><defs /><rect fill="#1a1a1a" height="200" width="200" x="0" y="0" /><text alignment-baseline="middle" fill="#e1ed5e" style="dominant-baseline: central; font-size:9.0px; font-family:Arial;" text-anchor="middle" x="100.0" y="100.0">2022</text><line stroke="#e1ed5e" stroke-width="0.3" x1="100.0" x2="100.0" y1="15.0" y2="10.0" /><path d="M 100.0 14.0 a86.0,86.0 0 0,1 42.46469731375804,11.215312516191453" fill="none" id="id13" stroke="none" /><text fill="#e1ed5e" style="font-size:6.75px; font-family:Arial;" text-anchor="middle"><textPath startOffset="22.20632615414155" xlink:href="#id13">January</textPath></text><path d="M 103.59715602781102 79.31037775812273 l 5.999957892755852 -34.50972415667756 a56.02742577017069,56.02742577017069 0 0,0 0.9487440931389408,0.17337691880151285 l -6.593097106997693 34.4013317565253" fill="#9eff22" stroke="none" /><path d="M 103.95276090670814 79.375362276772 l 5.620266072220731 -29.32531321360324 a50.85902519839669,50.85902519839669 0 0,0 0.8583879481937945,0.17218454711312284 l -6.1242204298816505 29.224224710412912" fill="#e7ff1a" stroke="none" /><path d="M 105.36241919743992 79.69619591428918 l 11.852139519965913 -44.875924456779565 a67.414672325153,67.414672325153 0 0,0 1.1194113589082257,0.3059774103986792 l -12.62284876809785 44.66526050555459" fill="#34ff58" stroke="none" /><path d="M 105.71112130821622 79.79150937346287 l 6.82044331498005 -24.13376592111848 a46.07901721655368,46.07901721655368 0 0,0 0.7614223681826069,0.2222800688486057 l -7.234855900886084 24.01278752335117" fill="#ffcf13" stroke="none" /><path d="M 106.74666289553966 80.11325718540242 l 6.148961367426478 -18.12493304975266 a40.13956436171209,40.13956436171209 0 0,0 0.6523978888434673,0.2276088132491401 l -6.4600412603332185 18.016403383331312" fill="#ff6e0a" stroke="none" /><path d="M 107.4271985657038 80.35727306442388 l 6.1156394691441 -16.17404396370085 a38.29163798650322,38.29163798650322 0 0,0 0.6145203162471351,0.2384243355579613 l -6.393142950390902 16.066376924252342" fill="#ff4f07" stroke="none" /><path d="M 107.76421540070413 80.48803036053334 l 21.07566982748017 -52.964505565871136 a78.00370784882465,78.00370784882465 0 0,0 1.243290440424596,0.5071693878130237 l -21.984244137493153 52.59387529187453" fill="#44ffe6" stroke="none" /><path d="M 108.43124777332544 80.76684994638697 l 11.341710576966257 -25.872424492324583 a49.24919021711428,49.24919021711428 0 0,0 0.7734887421254859,0.3470418519360502 l -11.785381437558524 25.673362309872" fill="#ffff18" stroke="none" /><path d="M 108.76106565485865 80.91482961587045 l 6.0372684726011485 -13.15163040587732 a35.471143456654026,35.471143456654026 0 0,0 0.5527110004349949,0.2595052257496185 l -6.2627576843357415 13.045760197487699" fill="#ff1e03" stroke="none" /><line stroke="#e1ed5e" stroke-width="0.3" x1="143.23703022742887" x2="145.7803849466894" y1="26.81831364943548" y2="22.513508569990506" /><path d="M 143.74570117128098 25.957352633546492 a86.0,86.0 0 0,1 28.547481713284135,27.462654790039103" fill="none" id="id14" stroke="none" /><text fill="#e1ed5e" style="font-size:6.75px; font-family:Arial;" text-anchor="middle"><textPath startOffset="19.985693538727396" xlink:href="#id14">February</textPath></text><path d="M 110.68208982089419 81.91981866633111 l 6.519322795887735 -11.03440808855739 a33.81638527751886,33.81638527751886 0 0,0 0.4986112221580592,0.30040768235118726 l -6.708296084263432 10.920553796747587" fill="#ff0000" stroke="none" /><path d="M 112.48926042617603 83.11751280151076 l 13.604907669189627 -18.390574919899166 a43.875899076792564,43.875899076792564 0 0,0 0.6033016483682317,0.4543942937960995 l -13.919455471316242 18.153664036597217" fill="#ffac0f" stroke="none" /><path d="M 116.60985879189232 87.15038557335679 l 20.993056547321405 -16.24051628912527 a47.54171796505225,47.54171796505225 0 0,0 0.4951675029541155,0.6515823910053431 l -21.269499990499632 15.876749122238893" fill="#ffe515" stroke="none" /><line stroke="#e1ed5e" stroke-width="0.3" x1="172.23445277983987" x2="176.4835382374775" y1="55.19839476539836" y2="52.563006222186495" /><path d="M 173.08426987136738 54.67131705675599 a86.0,86.0 0 0,1 12.851231095245387,41.99856678651699" fill="none" id="id15" stroke="none" /><text fill="#e1ed5e" style="font-size:6.75px; font-family:Arial;" text-anchor="middle"><textPath startOffset="22.20632615414155" xlink:href="#id15">March</textPath></text><path d="M 117.84615892207809 88.93136811851018 l 19.21941457764064 -11.920359213795 a43.6159426178334,43.6159426178334 0 0,0 0.3902260267021663,0.6414289848732212 l -19.421756402629033 11.587762455714698" fill="#ffa70f" stroke="none" /><path d="M 119.85752413597 93.16781622104841 l 33.68116102945216 -11.588347090302486 a56.61896119452685,56.61896119452685 0 0,0 0.30914682449502773,0.9243096562895977 l -33.87564514771896 11.006864331090574" fill="#96ff23" stroke="none" /><path d="M 120.94382443527127 98.46500227214037 l 35.82184742410424 -2.6254256749370177 a56.917928849676485,56.917928849676485 0 0,0 0.06320440295367542,0.9777441387624503 l -35.86173241806233 2.0084224719215324" fill="#92ff23" stroke="none" /><path d="M 120.98425023603335 99.18683210126433 l 40.41628912733285 -1.566185521745808 a61.44662364045595,61.44662364045595 0 0,0 0.03185950537458417,1.0572618791065482 l -40.43726032716308 0.8702534952142607" fill="#57ff2a" stroke="none" /><line stroke="#e1ed5e" stroke-width="0.3" x1="184.98032266829074" x2="189.97916517819016" y1="98.17113171792111" y2="98.06355123074" /><path d="M 185.9800911702706 98.14961562048488 a86.0,86.0 0 0,1 -9.607161424134198,41.387399972396054" fill="none" id="id16" stroke="none" /><text fill="#e1ed5e" style="font-size:6.75px; font-family:Arial;" text-anchor="middle"><textPath startOffset="21.466115282336823" xlink:href="#id16">April</textPath></text><path d="M 120.99980553446 99.90962569577887 l 45.13941410857534 -0.19426099619435644 a66.13983211532906,66.13983211532906 0 0,0 -0.004899710290173003,1.1385201153757616 l -45.13607010099566 -0.5827685973850898" fill="#32ff45" stroke="none" /><path d="M 119.54520255179757 107.68017299344265 l 21.054510476825907 8.273246712370444 a43.621649422235336,43.621649422235336 0 0,0 -0.28062718089164385,0.6964936489054607 l -20.908980681676873 -8.634439729118718" fill="#ffa80f" stroke="none" /><path d="M 119.26925614724726 108.34839909993367 l 32.19935504658121 13.950360337481158 a56.09146646923383,56.09146646923383 0 0,0 -0.39146211816967086,0.882643733491569 l -31.954451843680268 -14.502552407465414" fill="#9dff22" stroke="none" /><path d="M 119.12269723197855 108.67885076344098 l 53.71561040607663 24.37887086356604 a79.98894935392423,79.98894935392423 0 0,0 -0.5798261173324019,1.2488938729810333 l -53.2880096719044 -25.2998848038259" fill="#47fffe" stroke="none" /><path d="M 118.64920377521936 109.65438752849418 l 18.071683582674176 9.355414778152397 a41.3496814025077,41.3496814025077 0 0,0 -0.33266309326921245,0.6292732051054083 l -17.90796798118007 -9.66510299834394" fill="#ff820c" stroke="none" /><line stroke="#e1ed5e" stroke-width="0.3" x1="174.80103733775053" x2="179.2010983576182" y1="140.37084112569926" y2="142.7455964860345" /><path d="M 175.68104954172406 140.8457921977663 a86.0,86.0 0 0,1 -30.038265399797805,32.042727171017184" fill="none" id="id17" stroke="none" /><text fill="#e1ed5e" style="font-size:6.75px; font-family:Arial;" text-anchor="middle"><textPath startOffset="22.206326154141568" xlink:href="#id17">May</textPath></text><path d="M 118.48025628344425 109.97397251340804 l 28.625521059663345 15.449469739596795 a53.52855009329415,53.52855009329415 0 0,0 -0.44460199543462375,0.8070817650931834 l -28.355342654777214 -15.939922023087783" fill="#c1ff1e" stroke="none" /><path d="M 117.94076556474637 110.91462005526583 l 38.64616718969357 23.51116121246461 a66.23605796278284,66.23605796278284 0 0,0 -0.6009671986148821,0.9689504762890131 l -38.235735351410725 -24.1729080201189" fill="#32ff47" stroke="none" /><path d="M 117.55443506779139 111.5257021239791 l 19.12064837205253 12.554029605770182 a43.87362790442804,43.87362790442804 0 0,0 -0.41992680776931285,0.6277336011976509 l -18.901718458872494 -12.881300121173641" fill="#ffac0f" stroke="none" /><path d="M 117.35343817320211 111.8261652097733 l 21.311729053103743 14.52369416206724 a46.79006567161418,46.79006567161418 0 0,0 -0.4592981757795533,0.6616532782870957 l -21.058569970162054 -14.888388702541356" fill="#ffda14" stroke="none" /><path d="M 116.93607887273984 112.41649034213515 l 27.20728472481794 19.94670611537912 a54.73584780245806,54.73584780245806 0 0,0 -0.563619542627322,0.7550604827385936 l -26.859903915495526 -20.412079477627028" fill="#b0ff20" stroke="none" /><path d="M 116.498646956653 112.99209946851258 l 49.495940869959 38.97629840553772 a84.0,84.0 0 0,0 -0.9043283517805842,1.1282886656869988 l -48.81769460612357 -39.822514904802965" fill="#4dd2ff" stroke="none" /><path d="M 116.0416608686014 113.55231037782055 l 18.852689136390644 15.927122305210995 a45.67989288061298,45.67989288061298 0 0,0 -0.5126099485390907,0.596281178401157 l -18.575736678280773 -16.24928058277368" fill="#ffc812" stroke="none" /><path d="M 115.07121518719521 114.62390073753431 l 24.667412725267795 23.93528263418291 a55.371194412428,55.371194412428 0 0,0 -0.6696206629956493,0.6783221962972289 l -24.25175143721661 -24.356345324460804" fill="#a7ff21" stroke="none" /><path d="M 114.81725581225074 114.88116024355365 l 17.607377751098582 17.683315527713685 a45.95434630124703,45.95434630124703 0 0,0 -0.565347978831734,0.5533119872633712 l -17.300379819891052 -17.983777617899626" fill="#ffcd13" stroke="none" /><path d="M 114.29624159901734 115.38237550388516 l 9.593736175840197 10.32260481329056 a35.09240731539485,35.09240731539485 0 0,0 -0.44600853917958116,0.40741822578015124 l -9.414628087193751 -10.486215805657293" fill="#ff1702" stroke="none" /><line stroke="#e1ed5e" stroke-width="0.3" x1="143.8653032363475" x2="146.44561519142675" y1="172.8068346515853" y2="177.08958963109032" /><path d="M 144.38136562736335 173.6633856474863 a86.0,86.0 0 0,1 -40.68145358897372,12.25698825130547" fill="none" id="id18" stroke="none" /><text fill="#e1ed5e" style="font-size:6.75px; font-family:Arial;" text-anchor="middle"><textPath startOffset="21.466115282336833" xlink:href="#id18">June</textPath></text><line stroke="#e1ed5e" stroke-width="0.3" x1="102.19456741930631" x2="102.32365962044197" y1="184.97166512339345" y2="189.96999836594603" /><path d="M 102.22038585953345 185.97133177190398 a86.0,86.0 0 0,1 -42.740103519485714,-10.115201625700543" fill="none" id="id19" stroke="none" /><text fill="#e1ed5e" style="font-size:6.75px; font-family:Arial;" text-anchor="middle"><textPath startOffset="22.20632615414155" xlink:href="#id19">July</textPath></text><line stroke="#e1ed5e" stroke-width="0.3" x1="58.666819895761336" x2="56.23545636021788" y1="174.27360380694188" y2="178.64263932499728" /><path d="M 58.180547188652646 175.14741091055294 a86.0,86.0 0 0,1 -31.652253787137756,-30.449443065178592" fill="none" id="id20" stroke="none" /><text fill="#e1ed5e" style="font-size:6.75px; font-family:Arial;" text-anchor="middle"><textPath startOffset="22.20632615414155" xlink:href="#id20">August</textPath></text><line stroke="#e1ed5e" stroke-width="0.3" x1="26.63291911575756" x2="22.317208475507996" y1="142.92168965132927" y2="145.44649492493687" /><path d="M 25.769776987707644 143.4266507060508 a86.0,86.0 0 0,1 -11.730757126820373,-40.83630448921669" fill="none" id="id21" stroke="none" /><text fill="#e1ed5e" style="font-size:6.75px; font-family:Arial;" text-anchor="middle"><textPath startOffset="21.46611528233685" xlink:href="#id21">September</textPath></text><line stroke="#e1ed5e" stroke-width="0.3" x1="15.007084014347285" x2="10.007500721073583" y1="101.09737516637583" y2="101.16192664675087" /><path d="M 14.007167355692545 101.11028546245083 a86.0,86.0 0 0,1 10.666146001902534,-42.60595125391555" fill="none" id="id22" stroke="none" /><text fill="#e1ed5e" style="font-size:6.75px; font-family:Arial;" text-anchor="middle"><textPath startOffset="22.20632615414155" xlink:href="#id22">October</textPath></text><line stroke="#e1ed5e" stroke-width="0.3" x1="26.266209847984243" x2="21.928928074336255" y1="57.711370442889674" y2="55.22380399835377" /><path d="M 25.398753493254645 57.213857153982495 a86.0,86.0 0 0,1 29.58750427330803,-30.492523968695096" fill="none" id="id23" stroke="none" /><text fill="#e1ed5e" style="font-size:6.75px; font-family:Arial;" text-anchor="middle"><textPath startOffset="21.46611528233685" xlink:href="#id23">November</textPath></text><line stroke="#e1ed5e" stroke-width="0.3" x1="56.762969772571076" x2="54.21961505331055" y1="26.818313649435495" y2="22.513508569990535" /><path d="M 56.25429882871897 25.957352633546506 a86.0,86.0 0 0,1 42.265352541879196,-11.944610805530505" fill="none" id="id24" stroke="none" /><text fill="#e1ed5e" style="font-size:6.75px; font-family:Arial;" text-anchor="middle"><textPath startOffset="22.20632615414155" xlink:href="#id24">December</textPath></text></svg>