<?xml version="1.0" encoding="utf-8" ?>
<svg baseProfile="full" height="200mm" version="1.1" viewBox="0,0,200,200" width="200mm" xmlns="http://www.w3.org/2000/svg" xmlns:ev="http://www.w3.org/2001/xml-events" xmlns:xlink="http://www.w3.org/1999/xlink"><defs /><rect fill="#1a1a1a" height="200" width="200" x="0" y="0" /><text alignment-baseline="middle" fill="#e1ed5e" style="dominant-baseline: central; font-size:9.0px; font-family:Arial;" text-anchor="middle" x="100.0" y="100.0">2023</text><line stroke="#e1ed5e" stroke-width="0.3" x1="100.0" x2="100.0" y1="15.0" y2="10.0" /><path d="M 100.0 14.0 a86.0,86.0 0 0,1 42.46469731375804,11.215312516191453" fill="none" id="id25" stroke="none" /><text fill="#e1ed5e" style="font-size:6.75px; font-family:Arial;" text-anchor="middle"><textPath startOffset="22.20632615414155" xlink:href="#id25">January</textPath></text><path d="M 105.36241919743992 79.69619591428918 l 8.240779061218916 -31.202178981549363 a53.272068615638275,53.272068615638275 0 0,0 0.8845753700805893,0.2417878636712154 l -8.776652320523217 31.055704577051852" fill="#ffed16" stroke="none" /><line stroke="#e1ed5e" stroke-width="0.3" x1="143.23703022742887" x2="145.7803849466894" y1="26.81831364943548" y2="22.513508569990506" /><path d="M 143.74570117128098 25.957352633546492 a86.0,86.0 0 0,1 28.547481713284135,27.462654790039103" fill="none" id="id26" stroke="none" /><text fill="#e1ed5e" style="font-size:6.75px; font-family:Arial;" text-anchor="middle"><textPath startOffset="19.985693538727396" xlink:href="#id26">February</textPath></text><path d="M 117.45458315368197 88.32363383020206 l 30.598374621650542 -20.4689979209087 a57.81358995497495,57.81358995497495 0 0,0 0.5462100366240145,0.831915359095011 l -30.94618129363248 19.939264497836014" fill="#c3ff1e" stroke="none" /><line stroke="#e1ed5e" stroke-width="0.3" x1="172.23445277983987" x2="176.4835382374775" y1="55.19839476539836" y2="52.563006222186495" /><path d="M 173.08426987136738 54.67131705675599 a86.0,86.0 0 0,1 12.851231095245387,41.99856678651699" fill="none" id="id27" stroke="none" /><text fill="#e1ed5e" style="font-size:6.75px; font-family:Arial;" text-anchor="middle"><textPath startOffset="22.20632615414155" xlink:href="#id27">March</textPath></text><path d="M 118.73160827565052 90.50648371742162 l 17.95444074985025 -9.099633789847276 a41.128717737332735,41.128717737332735 0 0,0 0.3146150802175269,0.634244803646113 l -18.108415843021184 8.789229397702213" fill="#ff0000" stroke="none" /><line stroke="#e1ed5e" stroke-width="0.3" x1="184.98032266829074" x2="189.97916517819016" y1="98.17113171792111" y2="98.06355123074" /><path d="M 185.9800911702706 98.14961562048488 a86.0,86.0 0 0,1 -9.607161424134198,41.387399972396054" fill="none" id="id28" stroke="none" /><text fill="#e1ed5e" style="font-size:6.75px; font-family:Arial;" text-anchor="middle"><textPath startOffset="21.466115282336823" xlink:href="#id28">April</textPath></text><path d="M 120.76222939487914 103.15116336523771 l 30.765136825296143 4.669343077112404 a52.11746147504597,52.11746147504597 0 0,0 -0.14225149804251297,0.8858002141003868 l -30.68020357289234 -5.198222520905996" fill="#ffd814" stroke="none" /><path d="M 119.67450827220406 107.3425965602758 l 33.91634943525443 12.657702406328687 a57.20132855602765,57.20132855602765 0 0,0 -0.3522123331974128,0.9195152603023451 l -33.69344282246351 -13.239641233464175" fill="#cdff1d" stroke="none" /><line stroke="#e1ed5e" stroke-width="0.3" x1="174.80103733775053" x2="179.2010983576182" y1="140.37084112569926" y2="142.7455964860345" /><path d="M 175.68104954172406 140.8457921977663 a86.0,86.0 0 0,1 -30.038265399797805,32.042727171017184" fill="none" id="id29" stroke="none" /><text fill="#e1ed5e" style="font-size:6.75px; font-family:Arial;" text-anchor="middle"><textPath startOffset="22.206326154141568" xlink:href="#id29">May</textPath></text><path d="M 111.7513745106137 117.40417183066458 l 16.890411775195613 25.01525490151644 a51.183588052508085,51.183588052508085 0 0,0 -0.7344242899757891,0.4867363724634579 l -16.45731278647986 -25.302289295071215" fill="#ffc712" stroke="none" /><line stroke="#e1ed5e" stroke-width="0.3" x1="143.8653032363475" x2="146.44561519142675" y1="172.8068346515853" y2="177.08958963109032" /><path d="M 144.38136562736335 173.6633856474863 a86.0,86.0 0 0,1 -40.68145358897372,12.25698825130547" fill="none" id="id30" stroke="none" /><text fill="#e1ed5e" style="font-size:6.75px; font-family:Arial;" text-anchor="middle"><textPath startOffset="21.466115282336833" xlink:href="#id30">June</textPath></text><line stroke="#e1ed5e" stroke-width="0.3" x1="102.19456741930631" x2="102.32365962044197" y1="184.97166512339345" y2="189.96999836594603" /><path d="M 102.22038585953345 185.97133177190398 a86.0,86.0 0 0,1 -42.740103519485714,-10.115201625700543" fill="none" id="id31" stroke="none" /><text fill="#e1ed5e" style="font-size:6.75px; font-family:Arial;" text-anchor="middle"><textPath startOffset="22.20632615414155" xlink:href="#id31">July</textPath></text><path d="M 94.81253420990036 120.34920634021253 l -9.006926222337059 35.33204990753053 a57.462014078254796,57.462014078254796 0 0,0 -0.9563582426500382,-0.2525829040886808 l 9.613774907798586 -35.171775654138266" fill="#c9ff1d" stroke="none" /><line stroke="#e1ed5e" stroke-width="0.3" x1="58.666819895761336" x2="56.23545636021788" y1="174.27360380694188" y2="178.64263932499728" /><path d="M 58.180547188652646 175.14741091055294 a86.0,86.0 0 0,1 -31.652253787137756,-30.449443065178592" fill="none" id="id32" stroke="none" /><text fill="#e1ed5e" style="font-size:6.75px; font-family:Arial;" text-anchor="middle"><textPath startOffset="22.20632615414155" xlink:href="#id32">August</textPath></text><path d="M 89.7882731507175 118.34994917583269 l -19.511495785222223 35.06115677471908 a61.12459572579111,61.12459572579111 0 0,0 -0.914980573230721,-0.5195498490065054 l 20.112125125374153 -34.72010375991794" fill="#8eff24" stroke="none" /><path d="M 87.95078237400918 117.19931262002967 l -26.17661773903145 37.36506765862271 a66.62196397996067,66.62196397996067 0 0,0 -0.9335725411589634,-0.6660792202285941 l 26.8159176080393 -36.9089441765499" fill="#3cff2e" stroke="none" /><path d="M 85.44109423537348 115.13401014063109 l -28.791207881955387 29.928515170776524 a62.528901642463055,62.528901642463055 0 0,0 -0.7692545103437909,-0.7528774449838832 l 29.30211234467497 -29.428487622870072" fill="#78ff26" stroke="none" /><path d="M 83.72743513129214 113.27417163493432 l -24.30436400082596 19.826026310411695 a52.365162660916994,52.365162660916994 0 0,0 -0.5637535861889023,-0.703369279847223 l 24.642035499069724 -19.40472919698621" fill="#ffdc14" stroke="none" /><path d="M 83.50135304334701 112.99209946851258 l -22.406415999759158 17.644258111987526 a49.5195954087133,49.5195954087133 0 0,0 -0.5215903294536581,-0.6742258119028319 l 22.706813146430886 -17.25595430597144" fill="#ffa80f" stroke="none" /><path d="M 82.44556493220864 111.52570212397912 l -45.576518873133764 29.924140443771265 a75.52222715454373,75.52222715454373 0 0,0 -0.704137370656842,-1.0928368360996048 l 46.084861107167654 -29.13518200775021" fill="#3effb4" stroke="none" /><line stroke="#e1ed5e" stroke-width="0.3" x1="26.63291911575756" x2="22.317208475507996" y1="142.92168965132927" y2="145.44649492493687" /><path d="M 25.769776987707644 143.4266507060508 a86.0,86.0 0 0,1 -11.730757126820373,-40.83630448921669" fill="none" id="id33" stroke="none" /><text fill="#e1ed5e" style="font-size:6.75px; font-family:Arial;" text-anchor="middle"><textPath startOffset="21.46611528233685" xlink:href="#id33">September</textPath></text><path d="M 81.87401531095188 110.60418214915194 l -54.3779540671444 31.812546447455823 a84.0,84.0 0 0,0 -0.7193920153904911,-1.2543206165667722 l 54.91749807868727 -30.871805985030743" fill="#4dd2ff" stroke="none" /><line stroke="#e1ed5e" stroke-width="0.3" x1="15.007084014347285" x2="10.007500721073583" y1="101.09737516637583" y2="101.16192664675087" /><path d="M 14.007167355692545 101.11028546245083 a86.0,86.0 0 0,1 10.666146001902534,-42.60595125391555" fill="none" id="id34" stroke="none" /><text fill="#e1ed5e" style="font-size:6.75px; font-family:Arial;" text-anchor="middle"><textPath startOffset="22.20632615414155" xlink:href="#id34">October</textPath></text><path d="M 79.00175016825051 100.2711162175752 l -41.13794036493723 0.531147256554327 a62.14136914198745,62.14136914198745 0 0,0 -0.004603499828961128,-1.0696912360130983 l 41.14098816205569 0.17705345766244676" fill="#7eff26" stroke="none" /><path d="M 79.01574976396665 99.18683210126434 l -59.0723477853863 -2.2891328678276626 a80.11668463440928,80.11668463440928 0 0,0 0.06526225687568722,-1.3775830950320105 l 59.02419192027711 3.3056270694826817" fill="#46fff7" stroke="none" /><path d="M 79.05617556472873 98.46500227214037 l -50.71363335456094 -3.7168623243259766 a71.84965755596423,71.84965755596423 0 0,0 0.10101896317772456,-1.2326872224190903 l 50.64213990756372 4.589263463952845" fill="#37ff79" stroke="none" /><path d="M 79.12142395522702 97.74499172005258 l -57.96853423757062 -6.260940612128742 a79.30566300970258,79.30566300970258 0 0,0 0.15827011150252246,-1.3559616614253382 l 57.852173773064514 7.257846011878942" fill="#45ffec" stroke="none" /><path d="M 79.26566170972629 96.67025291283419 l -39.68405608181739 -6.372900272749035 a61.19251379288477,61.19251379288477 0 0,0 0.17596676175478038,-1.0385657887839927 l 39.56847745854238 7.055051849848856" fill="#8dff24" stroke="none" /><path d="M 79.54389044137918 95.25157060432595 l -33.866607788669185 -7.861377330554472 a55.76705878622614,55.76705878622614 0 0,0 0.22510559099994837,-0.9332080021142123 l 33.72626939740842 8.443170564328081" fill="#e6ff1a" stroke="none" /><path d="M 79.81627453868168 94.20196356495316 l -38.645581642603744 -11.1014436282745 a61.20849451455386,61.20849451455386 0 0,0 0.29961296584602715,-1.0101459752490487 l 38.44876277964601 11.76501899027009" fill="#8cff24" stroke="none" /><line stroke="#e1ed5e" stroke-width="0.3" x1="26.266209847984243" x2="21.928928074336255" y1="57.711370442889674" y2="55.22380399835377" /><path d="M 25.398753493254645 57.213857153982495 a86.0,86.0 0 0,1 29.58750427330803,-30.492523968695096" fill="none" id="id35" stroke="none" /><text fill="#e1ed5e" style="font-size:6.75px; font-family:Arial;" text-anchor="middle"><textPath startOffset="21.46611528233685" xlink:href="#id35">November</textPath></text><path d="M 83.84228863543731 86.58626213691792 l -23.171443008321425 -19.23636679787799 a51.115669985414414,51.115669985414414 0 0,0 0.5678449186710451,-0.672149276199229 l 22.836887476163255 19.632375023706334" fill="#ffc612" stroke="none" /><path d="M 84.80347519578584 85.50635884689758 l -43.526060002278875 -41.51285261657272 a81.1484399771704,81.1484399771704 0 0,0 0.9727601089045854,-1.0025148002537956 l 42.805035629671174 42.25593161237664" fill="#48f8ff" stroke="none" /><path d="M 88.09926311788651 82.69761687909137 l -29.049790046961306 -42.23524996422062 a72.26116113894349,72.26116113894349 0 0,0 1.0309097454266698,-0.6960748619940414 l 28.318475607128097 42.72903673851333" fill="#38ff80" stroke="none" /><line stroke="#e1ed5e" stroke-width="0.3" x1="56.762969772571076" x2="54.21961505331055" y1="26.818313649435495" y2="22.513508569990535" /><path d="M 56.25429882871897 25.957352633546506 a86.0,86.0 0 0,1 42.265352541879196,-11.944610805530505" fill="none" id="id36" stroke="none" /><text fill="#e1ed5e" style="font-size:6.75px; font-family:Arial;" text-anchor="middle"><textPath startOffset="22.20632615414155" xlink:href="#id36">December</textPath></text></svg>