<?xml version="1.0" encoding="utf-8" ?>
<svg baseProfile="full" height="200mm" version="1.1" viewBox="0,0,200,200" width="200mm" xmlns="http://www.w3.org/2000/svg" xmlns:ev="http://www.w3.org/2001/xml-events" xmlns:xlink="http://www.w3.org/1999/xlink"><defs /><rect fill="#1a1a1a" height="200" width="200" x="0" y="0" /><text alignment-baseline="middle" fill="#e1ed5e" style="dominant-baseline: central; font-size:9.0px; font-family:Arial;" text-anchor="middle" x="100.0" y="100.0">2024</text><line stroke="#e1ed5e" stroke-width="0.3" x1="100.0" x2="100.0" y1="15.0" y2="10.0" /><path d="M 100.0 14.0 a86.0,86.0 0 0,1 42.35913384403234,11.155469271406648" fill="none" id="id37" stroke="none" /><text fill="#e1ed5e" style="font-size:6.75px; font-family:Arial;" text-anchor="middle"><textPath startOffset="22.145653131862478" xlink:href="#id37">January</textPath></text><path d="M 101.08105385017728 79.02784411241856 l 1.487285004343956 -28.852931752889756 a49.89123893883854,49.89123893883854 0 0,0 0.8549354338690411,0.05143079270959902 l -1.9823647903454595 28.823148982355466" fill="#cbff1d" stroke="none" /><path d="M 103.23170211078529 79.25015418208739 l 5.2568474109999554 -33.75273138650649 a55.1596446227445,55.1596446227445 0 0,0 0.934358405519426,0.1537483200631488 l -5.835483319572452 33.65751706794767" fill="#89ff24" stroke="none" /><path d="M 104.29559338865022 79.4440306129975 l 11.624283121761362 -55.62640277548713 a77.82799172798198,77.82799172798198 0 0,0 1.3054258916976378,0.28451149720657976 l -12.577471430078134 55.41865982014683" fill="#44ffea" stroke="none" /><line stroke="#e1ed5e" stroke-width="0.3" x1="143.13028292997686" x2="145.6673583964461" y1="26.7553504044142" y2="22.446841604673864" /><path d="M 143.63769802327073 25.89364864446614 a86.0,86.0 0 0,1 29.32050498858742,28.57503671076993" fill="none" id="id38" stroke="none" /><text fill="#e1ed5e" style="font-size:6.75px; font-family:Arial;" text-anchor="middle"><textPath startOffset="20.669276256404974" xlink:href="#id38">February</textPath></text><path d="M 110.96478420261332 82.08984904055464 l 10.654338014164535 -17.403060441551077 a41.4054265148355,41.4054265148355 0 0,0 0.60301260433325,0.3763244637233346 l -10.951514747287499 17.217600180986196" fill="#ffbe11" stroke="none" /><path d="M 117.01052211995028 87.68569379921539 l 9.286495886854611 -6.7227068679411435 a32.464457836672025,32.464457836672025 0 0,0 0.32292071792816585,0.45422843023539766 l -9.400531703312737 6.5623012109962415" fill="#ff3505" stroke="none" /><line stroke="#e1ed5e" stroke-width="0.3" x1="172.87174338648825" x2="177.1583165268699" y1="56.24261187166439" y2="53.66864786411523" /><path d="M 173.72905801456457 55.72781907015455 a86.0,86.0 0 0,1 12.242430191666344,42.057860355516425" fill="none" id="id39" stroke="none" /><text fill="#e1ed5e" style="font-size:6.75px; font-family:Arial;" text-anchor="middle"><textPath startOffset="22.145653131862474" xlink:href="#id39">March</textPath></text><path d="M 119.71291397450082 92.76114493625339 l 16.288886722275453 -5.98150482901016 a38.352412819852844,38.352412819852844 0 0,0 0.2216401094391349,0.6199668328946872 l -16.38916700175853 5.701003039734556" fill="#ff910d" stroke="none" /><line stroke="#e1ed5e" stroke-width="0.3" x1="184.99686870605535" x2="189.99668451229388" y1="99.2704041080226" y2="99.22748670261217" /><path d="M 185.99683186730306 99.26182062694052 a86.0,86.0 0 0,1 -10.086455211305974,41.156179273409016" fill="none" id="id40" stroke="none" /><text fill="#e1ed5e" style="font-size:6.75px; font-family:Arial;" text-anchor="middle"><textPath startOffset="21.40746469413373" xlink:href="#id40">April</textPath></text><line stroke="#e1ed5e" stroke-width="0.3" x1="174.33088141563837" x2="178.70328620479359" y1="141.23008692659167" y2="143.65538615756765" /><path d="M 175.20536237346943 141.71514677278685 a86.0,86.0 0 0,1 -30.301960400862466,31.631185727798858" fill="none" id="id41" stroke="none" /><text fill="#e1ed5e" style="font-size:6.75px; font-family:Arial;" text-anchor="middle"><textPath startOffset="22.145653131862474" xlink:href="#id41">May</textPath></text><path d="M 117.423217284605 111.72311816256416 l 12.446569061463249 8.374607137280897 a36.001704106719686,36.001704106719686 0 0,0 -0.34940556138511913,0.5097931561725992 l -12.30097376326281 -8.58703502852354" fill="#ff6d0a" stroke="none" /><line stroke="#e1ed5e" stroke-width="0.3" x1="143.1302829299769" x2="145.66735839644613" y1="173.24464959558577" y2="177.55315839532614" /><path d="M 143.63769802327073 174.10635135553383 a86.0,86.0 0 0,1 -40.68552437913181,11.842963189579606" fill="none" id="id42" stroke="none" /><text fill="#e1ed5e" style="font-size:6.75px; font-family:Arial;" text-anchor="middle"><textPath startOffset="21.407464694133747" xlink:href="#id42">June</textPath></text><path d="M 110.65571695917076 118.09573695890943 l 4.156873030793141 7.059279185534139 a29.192253414870105,29.192253414870105 0 0,0 -0.4340019712500214,0.250571154930029 l -4.035078591682722 -7.129597237740341" fill="#ff0000" stroke="none" /><path d="M 109.06512990194946 118.94263497670748 l 7.358533852013364 15.376505602248294 a38.04655229033718,38.04655229033718 0 0,0 -0.5915537486225231,0.27687702365514644 l -7.093491389519335 -15.500558857473974" fill="#ff8c0c" stroke="none" /><line stroke="#e1ed5e" stroke-width="0.3" x1="101.45913802915013" x2="101.54496967792366" y1="184.9874750549273" y2="189.98673829345242" /><path d="M 101.47630435890484 185.9873277026323 a86.0,86.0 0 0,1 -42.54439059252881,-10.42667462771756" fill="none" id="id43" stroke="none" /><text fill="#e1ed5e" style="font-size:6.75px; font-family:Arial;" text-anchor="middle"><textPath startOffset="22.145653131862474" xlink:href="#id43">July</textPath></text><path d="M 100.36049292484886 120.99690560180557 l 0.1945853581518249 11.333621591381903 a32.33529187265353,32.33529187265353 0 0,0 -0.5550782830006757,0.004764679466060235 l -1.388172890924615e-15 -11.335291872653528" fill="#ff3304" stroke="none" /><path d="M 96.05791012581884 120.62667999033965 l -5.4095665847484655 28.305138236661406 a49.81742981654226,49.81742981654226 0 0,0 -0.8386017391410726,-0.16774383423967892 l 5.8946648094204965 -28.208105005758867" fill="#ccff1d" stroke="none" /><path d="M 95.35216902796893 120.47920084513623 l -6.234221086973315 27.469128400191835 a49.16768587632801,49.16768587632801 0 0,0 -0.8214933356676639,-0.19387019040718448 l 6.7048465763808665 -27.358062066138423" fill="#d5ff1c" stroke="none" /><line stroke="#e1ed5e" stroke-width="0.3" x1="58.13341422392154" x2="55.67067388415222" y1="173.97424548756322" y2="178.32567169271397" /><path d="M 57.64086615596768 174.84453072859336 a86.0,86.0 0 0,1 -31.369924170532247,-30.572349798747897" fill="none" id="id44" stroke="none" /><text fill="#e1ed5e" style="font-size:6.75px; font-family:Arial;" text-anchor="middle"><textPath startOffset="22.145653131862474" xlink:href="#id44">August</textPath></text><path d="M 89.34428304082925 118.09573695890944 l -8.809699515809632 14.960795762121027 a38.36191854014858,38.36191854014858 0 0,0 -0.5645910674462974,-0.33902071398253064 l 9.065223339813356 -14.807361047602578" fill="#ff910d" stroke="none" /><line stroke="#e1ed5e" stroke-width="0.3" x1="26.387840678322732" x2="22.057713659400548" y1="142.50000000000003" y2="145.00000000000006" /><path d="M 25.521815274538298 143.00000000000003 a86.0,86.0 0 0,1 -11.493303480769221,-40.785679425670985" fill="none" id="id45" stroke="none" /><text fill="#e1ed5e" style="font-size:6.75px; font-family:Arial;" text-anchor="middle"><textPath startOffset="21.40746469413373" xlink:href="#id45">September</textPath></text><path d="M 81.29705330413844 109.54985784667822 l -21.35561147676728 10.90432738479357 a44.97845902599651,44.97845902599651 0 0,0 -0.3452205680672595,-0.690672390225133 l 21.539651958046278 -10.536123138404683" fill="#fff016" stroke="none" /><path d="M 80.5471966667186 107.91128576633889 l -19.48837014834725 7.925750480393923 a42.03839565452786,42.03839565452786 0 0,0 -0.2661257152672024,-0.6708106486574268 l 19.62155453858058 -7.590038814522931" fill="#ffc712" stroke="none" /><path d="M 79.56144815229197 104.8234425847677 l -27.59473883650029 6.512283228835738 a49.352767842086116,49.352767842086116 0 0,0 -0.18751499170783612,-0.8262256523026481 l 27.702464689765794 -6.037623242594064" fill="#d2ff1c" stroke="none" /><path d="M 79.407916724674 104.11899336999214 l -42.66036902528839 8.533268578373068 a64.50544515350273,64.50544515350273 0 0,0 -0.20787250673940486,-1.08767679382093 l 42.80056782430995 -7.799689219518823" fill="#32ff45" stroke="none" /><path d="M 79.2786578344484 103.40968896794605 l -34.942264172573175 5.749736272505954 a56.412163061711745,56.412163061711745 0 0,0 -0.14903155390078615,-0.9568894840662782 l 35.03581721861223 -5.149058606508226" fill="#7aff26" stroke="none" /><path d="M 79.0935383218832 101.97986365728391 l -30.326235769389463 2.8719260574296306 a51.46191942770416,51.46191942770416 0 0,0 -0.07573816659671846,-0.880192300956231 l 30.371067558683922 -2.3509127090977375" fill="#b7ff1f" stroke="none" /><path d="M 79.03789590574601 101.26102812881392 l -22.558229834471845 1.3570470898155655 a43.59901126308035,43.59901126308035 0 0,0 -0.038529921443226534,-0.7474701826473588 l 22.578201345371642 -0.9696051137914761" fill="#ffdd14" stroke="none" /><path d="M 79.01933749520258 100.90099992219065 l -28.349564124939995 1.2174522641918062 a49.37569340279935,49.37569340279935 0 0,0 -0.02909712669558584,-0.8471310959919677 l 28.36628593863243 -0.7306149036357187" fill="#d2ff1c" stroke="none" /><line stroke="#e1ed5e" stroke-width="0.3" x1="15.003131293944662" x2="10.003315487706104" y1="100.72959589197737" y2="100.7725132973878" /><path d="M 14.003168132696942 100.73817937305945 a86.0,86.0 0 0,1 10.791469493833604,-42.45332614584628" fill="none" id="id46" stroke="none" /><text fill="#e1ed5e" style="font-size:6.75px; font-family:Arial;" text-anchor="middle"><textPath startOffset="22.145653131862435" xlink:href="#id46">October</textPath></text><path d="M 79.00696218219943 99.45929381324524 l -45.6447509641328 -1.1756468717576345 a66.65988870052988,66.65988870052988 0 0,0 0.03928271368686515,-1.1436733477929848 l 45.617843563449085 1.9590264841147578" fill="#35ff62" stroke="none" /><path d="M 79.13060592940154 97.66154086499901 l -29.098309752644173 -3.260526301049809 a50.28041431094623,50.28041431094623 0 0,0 0.10347688611993394,-0.8569370575617619 l 29.038050780264573 3.7595570355350074" fill="#c6ff1e" stroke="none" /><path d="M 79.56144815229197 95.17655741523228 l -44.26064192743596 -10.445390979395173 a66.47648421482396,66.47648421482396 0 0,0 0.2716434066178239,-1.1083977975405246 l 44.07481099430184 11.203644601543814" fill="#34ff5f" stroke="none" /><path d="M 79.73907114497095 94.47779374421319 l -60.782786565087164 -16.56661876736044 a84.0,84.0 0 0,0 0.3911260317016718,-1.3879683043879474 l 60.48944204131091 17.607594995651397" fill="#4dd2ff" stroke="none" /><path d="M 80.83023694016515 91.42560881287825 l -29.922246139407612 -13.383840102551298 a53.77907853979355,53.77907853979355 0 0,0 0.3841760593690286,-0.8394940224612785 l 29.68808561518354 13.895523107227248" fill="#9aff23" stroke="none" /><path d="M 81.29705330413844 90.45014215332179 l -27.40976274237509 -13.99562015854855 a51.77616735748076,51.77616735748076 0 0,0 0.4109842532331024,-0.7881164958795035 l 27.165470420167047 14.464082897532538" fill="#b3ff20" stroke="none" /><path d="M 81.46374523516351 90.13048839642627 l -41.284210370008964 -21.981516679633124 a67.7714988151133,67.7714988151133 0 0,0 0.5555799373599767,-1.0222045084698896 l 40.90078508303364 22.68697602157763" fill="#36ff70" stroke="none" /><path d="M 81.63589988554816 89.8137432299009 l -54.22974881804085 -30.08032751922467 a83.01364172931329,83.01364172931329 0 0,0 0.7019263342474202,-1.2402365753328786 l 53.705389118772054 31.006820864656653" fill="#4cdcff" stroke="none" /><line stroke="#e1ed5e" stroke-width="0.3" x1="26.387840678322718" x2="22.05771365940052" y1="57.49999999999999" y2="54.99999999999999" /><path d="M 25.521815274538284 56.99999999999999 a86.0,86.0 0 0,1 29.574782752854787,-30.34633250058573" fill="none" id="id47" stroke="none" /><text fill="#e1ed5e" style="font-size:6.75px; font-family:Arial;" text-anchor="middle"><textPath startOffset="21.40746469413373" xlink:href="#id47">November</textPath></text><path d="M 81.81346652052679 89.5 l -36.095270722908346 -20.839614268343556 a62.679228536687106,62.679228536687106 0 0,0 0.5459847013401824,-0.9272013865324763 l 35.73221231143838 21.456166823169607" fill="#32ff2f" stroke="none" /><path d="M 81.99639281039701 89.18935116829357 l -21.08343859817508 -12.659999101810097 a45.592416725097415,45.592416725097415 0 0,0 0.40866444788395573,-0.6675226632928604 l 20.86300618583573 13.0200588812275" fill="#fff917" stroke="none" /><path d="M 82.37810715431573 88.57770195909679 l -23.58120162810235 -15.285049995340497 a49.101704994275266,49.101704994275266 0 0,0 0.4645385137945943,-0.7033705176255914 l 23.315338675387025 15.68760039130515" fill="#d6ff1c" stroke="none" /><path d="M 83.42222388311158 87.10902102172516 l -22.437359108474073 -17.447426153902736 a49.42266284426063,49.42266284426063 0 0,0 0.5265480364450047,-0.6652762430810149 l 22.134544641387507 17.830022340898434" fill="#d2ff1c" stroke="none" /><path d="M 84.83555147118756 85.47280134310135 l -21.53513471768676 -20.630171915088425 a50.82224036780303,50.82224036780303 0 0,0 0.6089307843631304,-0.6248166286307671 l 21.177817132172827 20.99681123578692" fill="#bfff1e" stroke="none" /><path d="M 85.08716467003674 85.21462403516908 l -14.879348325210561 -14.752175172074239 a41.95284417186626,41.95284417186626 0 0,0 0.5114412895964661,-0.5070700227895787 l 14.623915115484118 15.005425205092491" fill="#ffc512" stroke="none" /><path d="M 85.34317274990677 84.96080404539775 l -22.65746797234366 -23.24855815360949 a53.463153129964766,53.463153129964766 0 0,0 0.6627585596250719,-0.634907707915671 l 22.255036926853286 23.634077991830733" fill="#9eff22" stroke="none" /><path d="M 85.60350026404147 84.71141617570332 l -23.037415113251267 -24.464936513306633 a54.60439872547018,54.60439872547018 0 0,0 0.6879380122886536,-0.6367451538561962 l 22.61404732964866 24.856799413295196" fill="#90ff24" stroke="none" /><path d="M 86.68645165197937 83.75963576809568 l -20.81597135846874 -25.392100427733137 a53.83387622149837,53.83387622149837 0 0,0 0.719705679903654,-0.5797439504384203 l 20.37701490820984 25.745692671964957" fill="#99ff23" stroke="none" /><path d="M 86.96720088162412 83.53348406188908 l -21.64849621992102 -27.352167773294646 a55.88263852523764,55.88263852523764 0 0,0 0.7573163424679042,-0.5888937684899899 l 21.175769932817875 27.719762593405438" fill="#80ff25" stroke="none" /><path d="M 87.83215693770416 82.88440491214696 l -19.656095396597813 -27.648759775580388 a54.923679095403344,54.923679095403344 0 0,0 0.773129007209432,-0.5397040912567652 l 19.178571298214614 27.982108682642277" fill="#8cff24" stroke="none" /><path d="M 88.4268655584334 82.4767994020092 l -20.233391814072977 -30.635934052776072 a57.71444674222723,57.71444674222723 0 0,0 0.831402350755258,-0.5389049590413255 l 19.70450383106069 30.978752853521303" fill="#6aff28" stroke="none" /><path d="M 89.03521579738668 82.08984904055464 l -10.703970476894593 -17.484131339396246 a41.50048371779283,41.50048371779283 0 0,0 0.6107828621043483,-0.3667575594766296 l 10.40225485823281 17.6653028994088" fill="#ffbf11" stroke="none" /><line stroke="#e1ed5e" stroke-width="0.3" x1="56.869717070023135" x2="54.33264160355391" y1="26.7553504044142" y2="22.446841604673864" /><path d="M 56.362301976729285 25.89364864446614 a86.0,86.0 0 0,1 42.16139366436587,-11.88097634709845" fill="none" id="id48" stroke="none" /><text fill="#e1ed5e" style="font-size:6.75px; font-family:Arial;" text-anchor="middle"><textPath startOffset="22.145653131862474" xlink:href="#id48">December</textPath></text><path d="M 89.97174638481275 81.54914285379989 l -13.500479354140033 -24.839361420937735 a49.27113047954629,49.27113047954629 0 0,0 0.7466011798776786,-0.39752307580616586 l 13.072089358475793 25.067454964466474" fill="#d4ff1c" stroke="none" /><path d="M 91.92203290615298 80.6158196554323 l -14.183636601094035 -34.03556447102116 a57.87268902715033,57.87268902715033 0 0,0 0.9203012533109418,-0.3742785079005158 l 13.597280886592651 34.274030235500966" fill="#68ff28" stroke="none" /><path d="M 95.35216902796891 79.52079915486377 l -3.9172565769919023 -17.26015526057116 a38.699092030638425,38.699092030638425 0 0,0 0.6491083169479245,-0.1414701365114913 l 3.6203858434248595 17.324856855216364" fill="#ff960d" stroke="none" /><path d="M 96.41257539226777 79.30868818359171 l -6.0256659535000106 -34.754439961373606 a56.27293221738011,56.27293221738011 0 0,0 0.9532165694710302,-0.1568514237650133 l 5.428171880975908 34.852757383634284" fill="#7bff26" stroke="none" /><path d="M 97.48249496171623 79.15144685158666 l -5.7557687592568465 -47.66602213799301 a69.01227489371522,69.01227489371522 0 0,0 1.1773628782511751,-0.13192596625200315 l 4.936669979404872 47.757803864751985" fill="#38ff80" stroke="none" /><path d="M 98.1996594967304 79.07731436759882 l -2.8884480298354283 -33.56814446157328 a54.692186848201366,54.692186848201366 0 0,0 0.9360984617519363,-0.07245994124003433 l 2.3117805733082744 33.61278216980837" fill="#8eff24" stroke="none" /><path d="M 98.9189461498227 79.02784411241856 l -1.5803752461533505 -30.658857574733528 a51.699562435097505,51.699562435097505 0 0,0 0.8867071703491265,-0.0380790211609273 l 1.0538423152034038 30.681469164320283" fill="#b4ff20" stroke="none" /><path d="M 99.63950707515114 79.00309439819443 l -0.9863170124748868 -57.448021242228066 a78.45648758753518,78.45648758753518 0 0,0 1.3468099373237248,-0.011560743501551136 l 1.4072780722864917e-14 57.45648758753518" fill="#45fff1" stroke="none" /></svg>