<?xml version="1.0" encoding="utf-8" ?>
<svg baseProfile="full" height="200mm" version="1.1" viewBox="0,0,200,200" width="200mm" xmlns="http://www.w3.org/2000/svg" xmlns:ev="http://www.w3.org/2001/xml-events" xmlns:xlink="http://www.w3.org/1999/xlink"><defs /><rect fill="#1a1a1a" height="200" width="200" x="0" y="0" /><text alignment-baseline="middle" fill="#e1ed5e" style="dominant-baseline: central; font-size:9.0px; font-family:Arial;" text-anchor="middle" x="100.0" y="100.0">2021</text><line stroke="#e1ed5e" stroke-width="0.3" x1="100.0" x2="100.0" y1="15.0" y2="10.0" /><path d="M 100.0 14.0 a86.0,86.0 0 0,1 42.46469731375804,11.215312516191453" fill="none" id="id1" stroke="none" /><text fill="#e1ed5e" style="font-size:6.75px; font-family:Arial;" text-anchor="middle"><textPath startOffset="22.20632615414155" xlink:href="#id1">January</textPath></text><path d="M 109.41281617654863 81.2277094730956 l 10.259813935187696 -20.461486162151527 a43.889652639316964,43.889652639316964 0 0,0 0.6724302590510822,0.3444448960189226 l -10.610504681827534 20.281848740820102" fill="#ff790b" stroke="none" /><path d="M 110.36928655335952 81.73862282372117 l 15.930159522429985 -28.054644841802894 a53.261944758643494,53.261944758643494 0 0,0 0.793357635988327,0.45956395045652587 l -16.41071389088364 27.77627673395632" fill="#e7ff1a" stroke="none" /><line stroke="#e1ed5e" stroke-width="0.3" x1="143.23703022742887" x2="145.7803849466894" y1="26.81831364943548" y2="22.513508569990506" /><path d="M 143.74570117128098 25.957352633546492 a86.0,86.0 0 0,1 28.547481713284135,27.462654790039103" fill="none" id="id2" stroke="none" /><text fill="#e1ed5e" style="font-size:6.75px; font-family:Arial;" text-anchor="middle"><textPath startOffset="19.985693538727396" xlink:href="#id2">February</textPath></text><path d="M 110.99172775467656 82.1063720568725 l 25.462362509624366 -41.45063009829463 a69.64654808017906,69.64654808017906 0 0,0 1.0161127826262468,0.6362897312621899 l -26.172094444622875 41.00619602570949" fill="#35ff68" stroke="none" /><line stroke="#e1ed5e" stroke-width="0.3" x1="172.23445277983987" x2="176.4835382374775" y1="55.19839476539836" y2="52.563006222186495" /><path d="M 173.08426987136738 54.67131705675599 a86.0,86.0 0 0,1 12.851231095245387,41.99856678651699" fill="none" id="id3" stroke="none" /><text fill="#e1ed5e" style="font-size:6.75px; font-family:Arial;" text-anchor="middle"><textPath startOffset="22.20632615414155" xlink:href="#id3">March</textPath></text><path d="M 118.3937258080291 89.86733742301442 l 23.443136962871172 -12.914262127749147 a47.76488066411193,47.76488066411193 0 0,0 0.39051634056307494,0.7235674699099878 l -23.66196140265271 12.508813674506701" fill="#ffbd11" stroke="none" /><path d="M 119.85752413597 93.16781622104841 l 24.419530410438888 -8.401788582374333 a46.82447515147724,46.82447515147724 0 0,0 0.2556676685040422,0.7644137868320072 l -24.5605353727147 7.980201692620012" fill="#ffad10" stroke="none" /><path d="M 120.08093135843002 93.85539295169968 l 19.070078760216536 -5.83529410414906 a40.94288246976296,40.94288246976296 0 0,0 0.2004136606257283,0.6756952326624047 l -19.167698317953967 5.506169484740126" fill="#ff4306" stroke="none" /><path d="M 120.78858239683441 97.02765380044208 l 42.19711228072433 -6.033332332416689 a63.62625228501142,63.62625228501142 0 0,0 0.14568594165804005,1.08552948366123 l -42.294714221440216 5.3060845066907945" fill="#4fff2b" stroke="none" /><line stroke="#e1ed5e" stroke-width="0.3" x1="184.98032266829074" x2="189.97916517819016" y1="98.17113171792111" y2="98.06355123074" /><path d="M 185.9800911702706 98.14961562048488 a86.0,86.0 0 0,1 -9.607161424134198,41.387399972396054" fill="none" id="id4" stroke="none" /><text fill="#e1ed5e" style="font-size:6.75px; font-family:Arial;" text-anchor="middle"><textPath startOffset="21.466115282336823" xlink:href="#id4">April</textPath></text><path d="M 120.9904718944345 100.63252640178507 l 34.76289164904724 1.0475441848568552 a55.778671403931256,55.778671403931256 0 0,0 -0.0371801158118391,0.9594535829728179 l -34.73970940038419 -1.6457750148436794" fill="#c0ff1e" stroke="none" /><path d="M 120.81339534386255 102.79330883721812 l 31.780135605320265 4.265125039317918 a53.06506370948858,53.06506370948858 0 0,0 -0.12929163536002342,0.904265396575645 l -31.702009918943638 -4.811535907873972" fill="#eaff1a" stroke="none" /><path d="M 118.81262510543309 109.33194174019688 l 15.558627321358735 7.717806680707393 a38.36765453611115,38.36765453611115 0 0,0 -0.29857586387962726,0.5891185053340502 l -15.423472787692837 -7.9844793977441375" fill="#ff1302" stroke="none" /><line stroke="#e1ed5e" stroke-width="0.3" x1="174.80103733775053" x2="179.2010983576182" y1="140.37084112569926" y2="142.7455964860345" /><path d="M 175.68104954172406 140.8457921977663 a86.0,86.0 0 0,1 -30.038265399797805,32.042727171017184" fill="none" id="id5" stroke="none" /><text fill="#e1ed5e" style="font-size:6.75px; font-family:Arial;" text-anchor="middle"><textPath startOffset="22.206326154141568" xlink:href="#id5">May</textPath></text><path d="M 118.48025628344425 109.97397251340804 l 37.25156997743859 20.10503151783251 a63.33074247065651,63.33074247065651 0 0,0 -0.5260178806587469,0.9548752456174324 l -36.899975687328336 -20.74327728184775" fill="#53ff2b" stroke="none" /><line stroke="#e1ed5e" stroke-width="0.3" x1="143.8653032363475" x2="146.44561519142675" y1="172.8068346515853" y2="177.08958963109032" /><path d="M 144.38136562736335 173.6633856474863 a86.0,86.0 0 0,1 -40.68145358897372,12.25698825130547" fill="none" id="id6" stroke="none" /><text fill="#e1ed5e" style="font-size:6.75px; font-family:Arial;" text-anchor="middle"><textPath startOffset="21.466115282336833" xlink:href="#id6">June</textPath></text><path d="M 107.2578585660854 119.70592522655815 l 6.80447774219225 18.474943865672714 a40.68818092622443,40.68818092622443 0 0,0 -0.6593043848929759,0.23640309549617314 l -6.48545379666954 -18.589334502208846" fill="#ff3f05" stroke="none" /><path d="M 104.48393922423573 120.51570834832081 l 5.391471416360817 24.668009447701586 a46.25031988203972,46.25031988203972 0 0,0 -0.7792265755184883,0.1632945051779804 l -4.96605337941295 -24.757159933606108" fill="#ffa30f" stroke="none" /><path d="M 101.62511606390274 120.93702456842531 l 1.2697989960922045 16.359331723235936 a37.4085381408994,37.4085381408994 0 0,0 -0.6424243770680974,0.04430534632332649 l -0.9880118582451768 -16.37876541407555" fill="#ff0000" stroke="none" /><line stroke="#e1ed5e" stroke-width="0.3" x1="102.19456741930631" x2="102.32365962044197" y1="184.97166512339345" y2="189.96999836594603" /><path d="M 102.22038585953345 185.97133177190398 a86.0,86.0 0 0,1 -42.740103519485714,-10.115201625700543" fill="none" id="id7" stroke="none" /><text fill="#e1ed5e" style="font-size:6.75px; font-family:Arial;" text-anchor="middle"><textPath startOffset="22.20632615414155" xlink:href="#id7">July</textPath></text><line stroke="#e1ed5e" stroke-width="0.3" x1="58.666819895761336" x2="56.23545636021788" y1="174.27360380694188" y2="178.64263932499728" /><path d="M 58.180547188652646 175.14741091055294 a86.0,86.0 0 0,1 -31.652253787137756,-30.449443065178592" fill="none" id="id8" stroke="none" /><text fill="#e1ed5e" style="font-size:6.75px; font-family:Arial;" text-anchor="middle"><textPath startOffset="22.20632615414155" xlink:href="#id8">August</textPath></text><path d="M 87.65650970185807 116.9893568818739 l -13.291293487061584 18.29389605526783 a43.612499097626284,43.612499097626284 0 0,0 -0.6035451293036667,-0.4464882579326454 l 13.604223586783815 -18.062397848595417" fill="#ff740a" stroke="none" /><path d="M 85.44109423537348 115.13401014063109 l -23.12552403678342 24.03902607367872 a54.356628075194486,54.356628075194486 0 0,0 -0.6687160691389398,-0.6544794197280517 l 23.535890058298154 -23.637396551028097" fill="#d5ff1c" stroke="none" /><line stroke="#e1ed5e" stroke-width="0.3" x1="26.63291911575756" x2="22.317208475507996" y1="142.92168965132927" y2="145.44649492493687" /><path d="M 25.769776987707644 143.4266507060508 a86.0,86.0 0 0,1 -11.730757126820373,-40.83630448921669" fill="none" id="id9" stroke="none" /><text fill="#e1ed5e" style="font-size:6.75px; font-family:Arial;" text-anchor="middle"><textPath startOffset="21.46611528233685" xlink:href="#id9">September</textPath></text><path d="M 80.32549172779594 107.34259656027581 l -59.02352481661217 22.027789680827432 a84.0,84.0 0 0,0 -0.4939029559791024,-1.3590088119755315 l 59.3939520335965 -21.008533071845783" fill="#4dd2ff" stroke="none" /><path d="M 79.35854240842038 103.8639653848113 l -36.178382743264514 6.772390853611737 a57.80680175989519,57.80680175989519 0 0,0 -0.17466891565040937,-0.9796360393537601 l 36.289598101254114 -6.148636063524764" fill="#a1ff22" stroke="none" /><path d="M 79.10278846688536 102.07522291339032 l -37.21823292506756 3.696001719636432 a58.40130065620898,58.40130065620898 0 0,0 -0.09073171485012967,-1.0012169128193367 l 37.276339236194765 -3.0548034182685297" fill="#98ff23" stroke="none" /><path d="M 79.0235259727143 100.99374915477108 l -43.15294716270587 2.0443476207220774 a64.20134495616585,64.20134495616585 0 0,0 -0.04279437607003025,-1.1043326938319182 l 43.1817436716271 -1.3012376798761625" fill="#48ff2c" stroke="none" /><line stroke="#e1ed5e" stroke-width="0.3" x1="15.007084014347285" x2="10.007500721073583" y1="101.09737516637583" y2="101.16192664675087" /><path d="M 14.007167355692545 101.11028546245083 a86.0,86.0 0 0,1 10.666146001902534,-42.60595125391555" fill="none" id="id10" stroke="none" /><text fill="#e1ed5e" style="font-size:6.75px; font-family:Arial;" text-anchor="middle"><textPath startOffset="22.20632615414155" xlink:href="#id10">October</textPath></text><path d="M 79.00175016825051 100.2711162175752 l -32.76133658759128 0.4229938080318513 a53.764067189027074,53.764067189027074 0 0,0 -0.003982900240633882,-0.9254857477168597 l 32.76376378512142 0.14100141788868364" fill="#dfff1b" stroke="none" /><path d="M 79.00486145842228 99.54816195383935 l -46.142042193714495 -0.9930265594286211 a67.15272645851228,67.15272645851228 0 0,0 0.0348180668484176,-1.1554421310125675 l 46.11811243241043 1.787138837866183" fill="#31ff41" stroke="none" /><path d="M 79.01574976396665 99.18683210126434 l -33.81911097763966 -1.3105360020713115 a54.844493967714044,54.844493967714044 0 0,0 0.0446757809546299,-0.9430351254582342 l 33.79154158845153 1.8924822341525547" fill="#ceff1d" stroke="none" /><line stroke="#e1ed5e" stroke-width="0.3" x1="26.266209847984243" x2="21.928928074336255" y1="57.711370442889674" y2="55.22380399835377" /><path d="M 25.398753493254645 57.213857153982495 a86.0,86.0 0 0,1 29.58750427330803,-30.492523968695096" fill="none" id="id11" stroke="none" /><text fill="#e1ed5e" style="font-size:6.75px; font-family:Arial;" text-anchor="middle"><textPath startOffset="21.46611528233685" xlink:href="#id11">November</textPath></text><line stroke="#e1ed5e" stroke-width="0.3" x1="56.762969772571076" x2="54.21961505331055" y1="26.818313649435495" y2="22.513508569990535" /><path d="M 56.25429882871897 25.957352633546506 a86.0,86.0 0 0,1 42.265352541879196,-11.944610805530505" fill="none" id="id12" stroke="none" /><text fill="#e1ed5e" style="font-size:6.75px; font-family:Arial;" text-anchor="middle"><textPath startOffset="22.20632615414155" xlink:href="#id12">December</textPath></text></svg>