<?xml version="1.0" encoding="utf-8" ?>
<svg baseProfile="full" height="200mm" version="1.1" viewBox="0,0,200,200" width="200mm" xmlns="http://www.w3.org/2000/svg" xmlns:ev="http://www.w3.org/2001/xml-events" xmlns:xlink="http://www.w3.org/1999/xlink"><defs /><rect fill="#1a1a1a" height="200" width="200" x="0" y="0" /><text alignment-baseline="middle" fill="#e1ed5e" style="dominant-baseline: central; font-size:9.0px; font-family:Arial;" text-anchor="middle" x="100.0" y="100.0">2025</text><line stroke="#e1ed5e" stroke-width="0.3" x1="100.0" x2="100.0" y1="15.0" y2="10.0" /><path d="M 100.0 14.0 a86.0,86.0 0 0,1 42.46469731375804,11.215312516191453" fill="none" id="id49" stroke="none" /><text fill="#e1ed5e" style="font-size:6.75px; font-family:Arial;" text-anchor="middle"><textPath startOffset="22.20632615414155" xlink:href="#id49">January</textPath></text><path d="M 100.36148047927253 79.00311137660856 l 0.4493337355035756 -26.099916703905986 a47.10378426122719,47.10378426122719 0 0,0 0.8105739530254618,0.020934733780546753 l -0.8985343237239052 26.08831517798308" fill="#ffa20f" stroke="none" /><path d="M 103.59715602781102 79.31037775812273 l 4.01526373249822 -23.094436044647022 a44.44088989483563,44.44088989483563 0 0,0 0.75254272710154,0.13752237324574865 l -4.4122015807026616 23.021898190050532" fill="#ff720a" stroke="none" /><path d="M 104.307194497241 79.44645832069477 l 3.8115502934540446 -18.188372470631965 a39.58345524303735,39.58345524303735 0 0,0 0.6656754867724677,0.1454908782613679 l -4.12406850438004 18.12006809427473" fill="#ff1502" stroke="none" /><path d="M 106.0581310904928 79.89281104454417 l 9.260685029191565 -30.736598623812394 a53.10138287007646,53.10138287007646 0 0,0 0.8729225760018523,0.27122129353314445 l -9.788392977904135 30.572637195396727" fill="#f5ff19" stroke="none" /><path d="M 108.43124777332544 80.76684994638697 l 11.734023682101128 -26.767359266146535 a50.22633801650612,50.22633801650612 0 0,0 0.7888354477035937,0.353927471383217 l -12.193041248271502 26.561411464246785" fill="#ffd914" stroke="none" /><line stroke="#e1ed5e" stroke-width="0.3" x1="143.23703022742887" x2="145.7803849466894" y1="26.81831364943548" y2="22.513508569990506" /><path d="M 143.74570117128098 25.957352633546492 a86.0,86.0 0 0,1 28.547481713284135,27.462654790039103" fill="none" id="id50" stroke="none" /><text fill="#e1ed5e" style="font-size:6.75px; font-family:Arial;" text-anchor="middle"><textPath startOffset="19.985693538727396" xlink:href="#id50">February</textPath></text><path d="M 110.99172775467656 82.1063720568725 l 14.622465728129159 -23.804170480746716 a48.93662535537829,48.93662535537829 0 0,0 0.7139640360200855,0.447084213856591 l -15.030048916521508 23.54894192556718" fill="#ffc212" stroke="none" /><path d="M 113.89432698308785 84.25364557470407 l 11.591709212615037 -13.13681201536255 a38.51980457644429,38.51980457644429 0 0,0 0.4934001995720577,0.4429795708202023 l -11.816120399783085 12.93533343577305" fill="#ff0000" stroke="none" /><path d="M 114.68862486808459 84.99185889309783 l 35.03311428969756 -35.79517670278515 a71.08606365066657,71.08606365066657 0 0,0 0.8671287911584659,0.8634050645566089 l -35.64407888102335 35.18683578757842" fill="#37ff79" stroke="none" /><path d="M 116.38621287248628 86.86637796730983 l 49.158638617458855 -39.400866098070516 a84.0,84.0 0 0,0 0.8945836776241438,1.1360304241878465 l -49.829576375676965 38.54884327992963" fill="#4dd2ff" stroke="none" /><line stroke="#e1ed5e" stroke-width="0.3" x1="172.23445277983987" x2="176.4835382374775" y1="55.19839476539836" y2="52.563006222186495" /><path d="M 173.08426987136738 54.67131705675599 a86.0,86.0 0 0,1 12.851231095245387,41.99856678651699" fill="none" id="id51" stroke="none" /><text fill="#e1ed5e" style="font-size:6.75px; font-family:Arial;" text-anchor="middle"><textPath startOffset="22.20632615414155" xlink:href="#id51">March</textPath></text><path d="M 120.45610955862082 95.25157060432595 l 25.841584536404522 -5.998547245350807 a47.52866488172458,47.52866488172458 0 0,0 0.1781320335471839,0.7985309782103055 l -25.941010956953743 5.552838097590538" fill="#ffaa0f" stroke="none" /><line stroke="#e1ed5e" stroke-width="0.3" x1="184.98032266829074" x2="189.97916517819016" y1="98.17113171792111" y2="98.06355123074" /><path d="M 185.9800911702706 98.14961562048488 a86.0,86.0 0 0,1 -9.607161424134198,41.387399972396054" fill="none" id="id52" stroke="none" /><text fill="#e1ed5e" style="font-size:6.75px; font-family:Arial;" text-anchor="middle"><textPath startOffset="21.466115282336823" xlink:href="#id52">April</textPath></text><path d="M 120.99980553446 99.90962569577887 l 35.45894459590536 -0.15260033913228102 a56.45927295812746,56.45927295812746 0 0,0 -0.0041825639987451485,0.9718805734225756 l -35.45631773461711 -0.4577897124939793" fill="#bfff1e" stroke="none" /><path d="M 120.9764740272857 100.99374915477107 l 35.72989075668114 1.6926843230815747 a56.76996328907781,56.76996328907781 0 0,0 -0.05464419609777437,0.9757088292203752 l -35.69546020969583 -2.307464868637373" fill="#bbff1f" stroke="none" /><path d="M 120.92983693683757 101.71520430193887 l 29.62898636395121 2.4281013285914277 a50.72831157360125,50.72831157360125 0 0,0 -0.07881103072719298,0.8696731568573048 l -29.582800736946943 -2.937755873997303" fill="#ffe115" stroke="none" /><path d="M 120.23288151984713 105.62410040840565 l 24.779960416162105 6.888044362841025 a46.719478870518095,46.719478870518095 0 0,0 -0.22204514248200027,0.7729682705658641 l -24.657722636794006 -7.31357010891147" fill="#ff9b0e" stroke="none" /><path d="M 120.02730092923936 106.31721596034902 l 19.50269609383545 6.151739741122123 a41.44991581329874,41.44991581329874 0 0,0 -0.22048937100331764,0.6785965072590422 l -19.393914471815883 -6.48653514835896" fill="#ff3905" stroke="none" /><path d="M 119.12269723197855 108.67885076344098 l 17.305911676968186 7.854301249853419 a40.00485798669574,40.00485798669574 0 0,0 -0.2899883254901377,0.6246090545332255 l -17.16814873463822 -8.151030371665476" fill="#ff1d03" stroke="none" /><line stroke="#e1ed5e" stroke-width="0.3" x1="174.80103733775053" x2="179.2010983576182" y1="140.37084112569926" y2="142.7455964860345" /><path d="M 175.68104954172406 140.8457921977663 a86.0,86.0 0 0,1 -30.038265399797805,32.042727171017184" fill="none" id="id53" stroke="none" /><text fill="#e1ed5e" style="font-size:6.75px; font-family:Arial;" text-anchor="middle"><textPath startOffset="22.206326154141568" xlink:href="#id53">May</textPath></text><line stroke="#e1ed5e" stroke-width="0.3" x1="143.8653032363475" x2="146.44561519142675" y1="172.8068346515853" y2="177.08958963109032" /><path d="M 144.38136562736335 173.6633856474863 a86.0,86.0 0 0,1 -40.68145358897372,12.25698825130547" fill="none" id="id54" stroke="none" /><text fill="#e1ed5e" style="font-size:6.75px; font-family:Arial;" text-anchor="middle"><textPath startOffset="21.466115282336833" xlink:href="#id54">June</textPath></text><line stroke="#e1ed5e" stroke-width="0.3" x1="102.19456741930631" x2="102.32365962044197" y1="184.97166512339345" y2="189.96999836594603" /><path d="M 102.22038585953345 185.97133177190398 a86.0,86.0 0 0,1 -42.740103519485714,-10.115201625700543" fill="none" id="id55" stroke="none" /><text fill="#e1ed5e" style="font-size:6.75px; font-family:Arial;" text-anchor="middle"><textPath startOffset="22.20632615414155" xlink:href="#id55">July</textPath></text><line stroke="#e1ed5e" stroke-width="0.3" x1="58.666819895761336" x2="56.23545636021788" y1="174.27360380694188" y2="178.64263932499728" /><path d="M 58.180547188652646 175.14741091055294 a86.0,86.0 0 0,1 -31.652253787137756,-30.449443065178592" fill="none" id="id56" stroke="none" /><text fill="#e1ed5e" style="font-size:6.75px; font-family:Arial;" text-anchor="middle"><textPath startOffset="22.20632615414155" xlink:href="#id56">August</textPath></text><line stroke="#e1ed5e" stroke-width="0.3" x1="26.63291911575756" x2="22.317208475507996" y1="142.92168965132927" y2="145.44649492493687" /><path d="M 25.769776987707644 143.4266507060508 a86.0,86.0 0 0,1 -11.730757126820373,-40.83630448921669" fill="none" id="id57" stroke="none" /><text fill="#e1ed5e" style="font-size:6.75px; font-family:Arial;" text-anchor="middle"><textPath startOffset="21.46611528233685" xlink:href="#id57">September</textPath></text><line stroke="#e1ed5e" stroke-width="0.3" x1="15.007084014347285" x2="10.007500721073583" y1="101.09737516637583" y2="101.16192664675087" /><path d="M 14.007167355692545 101.11028546245083 a86.0,86.0 0 0,1 10.666146001902534,-42.60595125391555" fill="none" id="id58" stroke="none" /><text fill="#e1ed5e" style="font-size:6.75px; font-family:Arial;" text-anchor="middle"><textPath startOffset="22.20632615414155" xlink:href="#id58">October</textPath></text><line stroke="#e1ed5e" stroke-width="0.3" x1="26.266209847984243" x2="21.928928074336255" y1="57.711370442889674" y2="55.22380399835377" /><path d="M 25.398753493254645 57.213857153982495 a86.0,86.0 0 0,1 29.58750427330803,-30.492523968695096" fill="none" id="id59" stroke="none" /><text fill="#e1ed5e" style="font-size:6.75px; font-family:Arial;" text-anchor="middle"><textPath startOffset="21.46611528233685" xlink:href="#id59">November</textPath></text><line stroke="#e1ed5e" stroke-width="0.3" x1="56.762969772571076" x2="54.21961505331055" y1="26.818313649435495" y2="22.513508569990535" /><path d="M 56.25429882871897 25.957352633546506 a86.0,86.0 0 0,1 42.265352541879196,-11.944610805530505" fill="none" id="id60" stroke="none" /><text fill="#e1ed5e" style="font-size:6.75px; font-family:Arial;" text-anchor="middle"><textPath startOffset="22.20632615414155" xlink:href="#id60">December</textPath></text></svg>