<?xml version="1.0" encoding="utf-8" ?>
<svg baseProfile="full" height="200mm" version="1.1" viewBox="0,0,200,200" width="200mm" xmlns="http://www.w3.org/2000/svg" xmlns:ev="http://www.w3.org/2001/xml-events" xmlns:xlink="http://www.w3.org/1999/xlink"><defs /><rect fill="#1a1a1a" height="200" width="200" x="0" y="0" /><text alignment-baseline="middle" fill="#e1ed5e" style="dominant-baseline: central; font-size:9.0px; font-family:Arial;" text-anchor="middle" x="100.0" y="100.0">2021</text><line stroke="#e1ed5e" stroke-width="0.3" x1="100.0" x2="100.0" y1="15.0" y2="10.0" /><path d="M 100.0 14.0 a86.0,86.0 0 0,1 42.46469731375804,11.215312516191453" fill="none" id="id1" stroke="none" /><text fill="#e1ed5e" style="font-size:6.75px; font-family:Arial;" text-anchor="middle"><textPath startOffset="22.20632615414155" xlink:href="#id1">January</textPath></text><path d="M 109.41281617654863 81.2277094730956 l 6.537926514204982 -13.038803017739278 a35.586118991717825,35.586118991717825 0 0,0 0.5452124082382771,0.2792789716644704 l -6.761399410032015 12.924331520762307" fill="#ff5708" stroke="none" /><path d="M 110.36928655335952 81.73862282372117 l 14.210559364815724 -25.026252588489324 a49.779390474501376,49.779390474501376 0 0,0 0.7414836188718258,0.42951517150652474 l -14.639239716152879 24.77793325959275" fill="#d6ff1c" stroke="none" /><line stroke="#e1ed5e" stroke-width="0.3" x1="143.23703022742887" x2="145.7803849466894" y1="26.81831364943548" y2="22.513508569990506" /><path d="M 143.74570117128098 25.957352633546492 a86.0,86.0 0 0,1 28.547481713284135,27.462654790039103" fill="none" id="id2" stroke="none" /><text fill="#e1ed5e" style="font-size:6.75px; font-family:Arial;" text-anchor="middle"><textPath startOffset="19.985693538727396" xlink:href="#id2">February</textPath></text><path d="M 110.99172775467656 82.1063720568725 l 18.194112015148303 -29.618516617293103 a55.760354408846744,55.760354408846744 0 0,0 0.8135192689431178,0.5094256915797792 l -18.70125043646368 29.300946584390378" fill="#88ff25" stroke="none" /><path d="M 114.68862486808459 84.99185889309783 l 9.703942608243532 -9.915028892475942 a34.87351073386679,34.87351073386679 0 0,0 0.42539737964272734,0.4235705881036994 l -9.873175788053581 9.746522453722124" fill="#ff4b07" stroke="none" /><line stroke="#e1ed5e" stroke-width="0.3" x1="172.23445277983987" x2="176.4835382374775" y1="55.19839476539836" y2="52.563006222186495" /><path d="M 173.08426987136738 54.67131705675599 a86.0,86.0 0 0,1 12.851231095245387,41.99856678651699" fill="none" id="id3" stroke="none" /><text fill="#e1ed5e" style="font-size:6.75px; font-family:Arial;" text-anchor="middle"><textPath startOffset="22.20632615414155" xlink:href="#id3">March</textPath></text><path d="M 118.3937258080291 89.86733742301442 l 18.915167537284216 -10.419912324603095 a42.59532671241503,42.59532671241503 0 0,0 0.34825107655547793,0.6452563546850535 l -19.09172671305816 10.092774986585582" fill="#ffc212" stroke="none" /><path d="M 119.85752413597 93.16781622104841 l 19.217464265473986 -6.611964650181173 a41.32311514827427,41.32311514827427 0 0,0 0.2256295339372329,0.6746035878031804 l -19.32843109318299 6.280187959455679" fill="#ffb010" stroke="none" /><path d="M 120.08093135843002 93.85539295169968 l 33.5798618783971 -10.275173611025266 a56.11675264754611,56.11675264754611 0 0,0 0.2746891069242385,0.9261151132787308 l -33.751756882433035 9.695629111000006" fill="#84ff25" stroke="none" /><path d="M 120.53481517161879 95.60439243477599 l 17.516792518642163 -3.749580654605579 a38.9136086600816,38.9136086600816 0 0,0 0.1345682694944476,0.6562026730031034 l -17.578740084051606 3.4475023254390638" fill="#ff8b0c" stroke="none" /><path d="M 120.78858239683441 97.02765380044208 l 34.601409412938516 -4.947300677104192 a55.953301952054055,55.953301952054055 0 0,0 0.1281170773228449,0.9546210376351609 l -34.6814424893192 4.350961297404367" fill="#86ff25" stroke="none" /><line stroke="#e1ed5e" stroke-width="0.3" x1="184.98032266829074" x2="189.97916517819016" y1="98.17113171792111" y2="98.06355123074" /><path d="M 185.9800911702706 98.14961562048488 a86.0,86.0 0 0,1 -9.607161424134198,41.387399972396054" fill="none" id="id4" stroke="none" /><text fill="#e1ed5e" style="font-size:6.75px; font-family:Arial;" text-anchor="middle"><textPath startOffset="21.466115282336823" xlink:href="#id4">April</textPath></text><path d="M 120.9904718944345 100.63252640178507 l 29.029437065731464 0.8747723950837817 a50.04261426071118,50.04261426071118 0 0,0 -0.033356660295234264,0.8607871852319166 l -29.010078272585027 -1.3743368273297045" fill="#d3ff1c" stroke="none" /><path d="M 120.81339534386255 102.79330883721812 l 26.19256064378139 3.5152318930616238 a47.42739276470843,47.42739276470843 0 0,0 -0.11555559802927058,0.8081955834768803 l -26.12817099473552 -3.965572948518913" fill="#f6ff19" stroke="none" /><path d="M 118.81262510543309 109.33194174019688 l 26.02125265379705 12.907758083269753 a50.04678654186992,50.04678654186992 0 0,0 -0.3894624966473824,0.768446454201916 l -25.795211487363396 -13.353758749174364" fill="#d2ff1c" stroke="none" /><line stroke="#e1ed5e" stroke-width="0.3" x1="174.80103733775053" x2="179.2010983576182" y1="140.37084112569926" y2="142.7455964860345" /><path d="M 175.68104954172406 140.8457921977663 a86.0,86.0 0 0,1 -30.038265399797805,32.042727171017184" fill="none" id="id5" stroke="none" /><text fill="#e1ed5e" style="font-size:6.75px; font-family:Arial;" text-anchor="middle"><textPath startOffset="22.206326154141568" xlink:href="#id5">May</textPath></text><path d="M 118.48025628344425 109.97397251340804 l 29.138561650924924 15.72636269373238 a54.111542680152645,54.111542680152645 0 0,0 -0.44944426497095763,0.8158718908338942 l -28.863540976502456 -16.225605102964078" fill="#9dff22" stroke="none" /><line stroke="#e1ed5e" stroke-width="0.3" x1="143.8653032363475" x2="146.44561519142675" y1="172.8068346515853" y2="177.08958963109032" /><path d="M 144.38136562736335 173.6633856474863 a86.0,86.0 0 0,1 -40.68145358897372,12.25698825130547" fill="none" id="id6" stroke="none" /><text fill="#e1ed5e" style="font-size:6.75px; font-family:Arial;" text-anchor="middle"><textPath startOffset="21.466115282336833" xlink:href="#id6">June</textPath></text><path d="M 107.2578585660854 119.70592522655815 l 5.232882176796225 14.207880183445535 a36.140902059764336,36.140902059764336 0 0,0 -0.5856210491492538,0.20998287282599126 l -4.987541567017236 -14.295850597311485" fill="#ff6008" stroke="none" /><path d="M 104.48393922423573 120.51570834832081 l 4.200181929380749 19.21741200400641 a40.671056208847205,40.671056208847205 0 0,0 -0.6852269980655167,0.1435959797819378 l -3.8687634698858546 -19.286863964514886" fill="#ffa60f" stroke="none" /><path d="M 101.62511606390274 120.93702456842531 l 0.9785611185209814 12.607196885973195 a33.64511744446738,33.64511744446738 0 0,0 -0.5777943937353032,0.03984808427561509 l -0.7614039640067479 -12.622173314765096" fill="#ff3805" stroke="none" /><line stroke="#e1ed5e" stroke-width="0.3" x1="102.19456741930631" x2="102.32365962044197" y1="184.97166512339345" y2="189.96999836594603" /><path d="M 102.22038585953345 185.97133177190398 a86.0,86.0 0 0,1 -42.740103519485714,-10.115201625700543" fill="none" id="id7" stroke="none" /><text fill="#e1ed5e" style="font-size:6.75px; font-family:Arial;" text-anchor="middle"><textPath startOffset="22.20632615414155" xlink:href="#id7">July</textPath></text><line stroke="#e1ed5e" stroke-width="0.3" x1="58.666819895761336" x2="56.23545636021788" y1="174.27360380694188" y2="178.64263932499728" /><path d="M 58.180547188652646 175.14741091055294 a86.0,86.0 0 0,1 -31.652253787137756,-30.449443065178592" fill="none" id="id8" stroke="none" /><text fill="#e1ed5e" style="font-size:6.75px; font-family:Arial;" text-anchor="middle"><textPath startOffset="22.20632615414155" xlink:href="#id8">August</textPath></text><path d="M 87.65650970185807 116.9893568818739 l -13.439243233077205 18.49753141082203 a43.86420623971362,43.86420623971362 0 0,0 -0.6070284568533605,-0.4490651403793084 l 13.755656660349128 -18.263456321702957" fill="#ffd513" stroke="none" /><path d="M 85.44109423537348 115.13401014063109 l -19.676610454719285 20.453873867258217 a49.3818596142761,49.3818596142761 0 0,0 -0.6075145611009559,-0.5945808629029441 l 20.025774968196036 -20.1121429014327" fill="#dbff1b" stroke="none" /><line stroke="#e1ed5e" stroke-width="0.3" x1="26.63291911575756" x2="22.317208475507996" y1="142.92168965132927" y2="145.44649492493687" /><path d="M 25.769776987707644 143.4266507060508 a86.0,86.0 0 0,1 -11.730757126820373,-40.83630448921669" fill="none" id="id9" stroke="none" /><text fill="#e1ed5e" style="font-size:6.75px; font-family:Arial;" text-anchor="middle"><textPath startOffset="21.46611528233685" xlink:href="#id9">September</textPath></text><path d="M 80.32549172779594 107.34259656027581 l -46.72202690923924 17.436826848555445 a70.86973760763314,70.86973760763314 0 0,0 -0.41669967730801627,-1.1465785465615137 l 47.01525084755248 -16.630000504987812" fill="#3aff94" stroke="none" /><path d="M 79.35854240842038 103.8639653848113 l -32.54371941477402 6.0920022122369435 a54.109004278314366,54.109004278314366 0 0,0 -0.16349565823538598,-0.9169704780546858 l 32.643761515348594 -5.530912983449044" fill="#9dff22" stroke="none" /><path d="M 79.10278846688536 102.07522291339032 l -29.164236542803582 2.8961898495047924 a50.30768856066569,50.30768856066569 0 0,0 -0.0781575547456608,-0.8624621038543829 l 29.20976869382632 -2.3937463571018434" fill="#cfff1d" stroke="none" /><path d="M 79.0235259727143 100.99374915477108 l -34.64978964098202 1.641515114691424 a55.68865079584482,55.68865079584482 0 0,0 -0.03712011121600491,-0.9579051309786307 l 34.67291188504923 -1.0448327366987964" fill="#89ff24" stroke="none" /><line stroke="#e1ed5e" stroke-width="0.3" x1="15.007084014347285" x2="10.007500721073583" y1="101.09737516637583" y2="101.16192664675087" /><path d="M 14.007167355692545 101.11028546245083 a86.0,86.0 0 0,1 10.666146001902534,-42.60595125391555" fill="none" id="id10" stroke="none" /><text fill="#e1ed5e" style="font-size:6.75px; font-family:Arial;" text-anchor="middle"><textPath startOffset="22.20632615414155" xlink:href="#id10">October</textPath></text><path d="M 79.00175016825051 100.2711162175752 l -26.200683047186676 0.33828676878106273 a47.20286682935796,47.20286682935796 0 0,0 -0.003496839422364785,-0.8125423314489062 l 26.202624183898543 0.11276504087151888" fill="#f9ff18" stroke="none" /><path d="M 79.00486145842228 99.54816195383935 l -29.133379339725828 -0.6269817735591623 a50.14012522102023,50.14012522102023 0 0,0 0.025997190639937398,-0.8627201930573123 l 29.118270454630245 1.128372114041469" fill="#d1ff1c" stroke="none" /><path d="M 79.01574976396665 99.18683210126434 l -25.4863528567376 -0.9876304259544668 a46.50548168132505,46.50548168132505 0 0,0 0.037882904234790044,-0.7996482341082659 l 25.46557634426931 1.426189766685742" fill="#fffb17" stroke="none" /><path d="M 79.03285615573316 98.82574320788736 l -28.87662738973256 -1.617224362915375 a49.92187794811152,49.92187794811152 0 0,0 0.055435651890465676,-0.8575649983451755 l 28.84451114683768 2.1140484255135625" fill="#d4ff1c" stroke="none" /><path d="M 79.08570108090925 98.10471618934814 l -59.05196558901806 -5.351373947604552 a80.2939444045821,80.2939444045821 0 0,0 0.13658716592585737,-1.3754141208850608 l 58.95110129740998 6.367063599194043" fill="#48faff" stroke="none" /><path d="M 79.12142395522702 97.74499172005258 l -26.860389551589066 -2.9010791115043784 a48.01660206010967,48.01660206010967 0 0,0 0.09582661153839722,-0.8209838873355104 l 26.80647258704708 3.3630067371647505" fill="#eeff19" stroke="none" /><path d="M 79.16333360222342 97.38593545837743 l -36.75083476445445 -4.61057696076765 a58.0389156941101,58.0389156941101 0 0,0 0.13289253699609005,-0.9902037590312013 l 36.66602622840053 5.242499061863511" fill="#6dff28" stroke="none" /><path d="M 79.32604984820605 96.31383870115002 l -25.636523149839935 -4.570987101069873 a47.04083797212421,47.04083797212421 0 0,0 0.1489946325899683,-0.7959352850488947 l 25.554042793340106 5.01160046358134" fill="#fcff18" stroke="none" /><path d="M 79.3925641242962 95.95851677861259 l -23.51044157837122 -4.610814064374767 a44.958306900660624,44.958306900660624 0 0,0 0.15547161436170157,-0.7581348062476579 l 23.427590668094528 5.014824526785828" fill="#ffe515" stroke="none" /><path d="M 79.62865764111835 94.90015583598534 l -50.77915754716852 -12.712259492197978 a73.34619740341356,73.34619740341356 0 0,0 0.31714779845688046,-1.2220998401834784 l 50.55281341684134 13.584455757930321" fill="#3effb3" stroke="none" /><path d="M 79.71946130924805 94.55025226153421 l -33.578044952445566 -9.023028299792557 a55.76924132803752,55.76924132803752 0 0,0 0.257104778858633,-0.9249426843550776 l 33.41775340302057 9.599682287566578" fill="#88ff25" stroke="none" /><path d="M 79.81627453868168 94.20196356495316 l -47.787157643589694 -13.727479680392127 a70.7197760858682,70.7197760858682 0 0,0 0.3461702828194182,-1.1671141032012748 l 47.54378146365857 14.548023170339942" fill="#3aff92" stroke="none" /><path d="M 80.2630227832202 92.82701384747504 l -59.210931650339425 -21.518958457574875 a84.0,84.0 0 0,0 0.5055816459934896,-1.3547074518826343 l 58.83174541584431 22.534989046486853" fill="#4dd2ff" stroke="none" /><path d="M 80.38941819471856 92.48833698450439 l -8.6789210774108 -3.3243853302727895 a30.293826385943433,30.293826385943433 0 0,0 0.1907161546183781,-0.48535181109836417 l 8.62041137291073 3.473286146266917" fill="#ff0000" stroke="none" /><path d="M 80.52162464483688 92.15188598940014 l -29.84278681602849 -12.024082555947661 a53.17406542945993,53.17406542945993 0 0,0 0.3493746594933202,-0.8460384501124776 l 29.631390469648967 12.53599557651345" fill="#a9ff21" stroke="none" /><path d="M 81.10775173730289 90.83032412892265 l -27.446984642137295 -13.321863512866315 a51.509162777781356,51.509162777781356 0 0,0 0.3940205353049214,-0.7943213557157471 l 27.21360409387896 13.792344457081024" fill="#bfff1e" stroke="none" /><path d="M 81.26839172434947 90.50648371742162 l -50.45604830415269 -25.57203359589258 a77.56625949009222,77.56625949009222 0 0,0 0.6138466967765768,-1.1857564346929867 l 50.008392174216 26.436762752845905" fill="#44ffe5" stroke="none" /><path d="M 81.43458229118936 90.18545643968196 l -15.700959668775283 -8.30025777092326 a38.759910292123664,38.759910292123664 0 0,0 0.31689346057982043,-0.5871554546786643 l 15.555758108976992 8.569294208934396" fill="#ff890c" stroke="none" /><line stroke="#e1ed5e" stroke-width="0.3" x1="26.266209847984243" x2="21.928928074336255" y1="57.711370442889674" y2="55.22380399835377" /><path d="M 25.398753493254645 57.213857153982495 a86.0,86.0 0 0,1 29.58750427330803,-30.492523968695096" fill="none" id="id11" stroke="none" /><text fill="#e1ed5e" style="font-size:6.75px; font-family:Arial;" text-anchor="middle"><textPath startOffset="21.46611528233685" xlink:href="#id11">November</textPath></text><path d="M 81.96595687620814 89.24020034530311 l -37.30923905892261 -22.260118531799982 a64.44527818078302,64.44527818078302 0 0,0 0.5765833164390047,-0.9477513698505123 l 36.92053994419739 22.89903767485757" fill="#31ff3f" stroke="none" /><path d="M 82.15384107792192 88.93136811851018 l -17.879538325030094 -11.089334617877684 a42.03927833799155,42.03927833799155 0 0,0 0.38670611660165993,-0.6116762087890544 l 17.686004612182472 11.395458474380955" fill="#ffba11" stroke="none" /><path d="M 82.34701348167596 88.62581576622439 l -19.93790343584161 -12.846403450152302 a44.71813810190483,44.71813810190483 0 0,0 0.4224870980927192,-0.643476835568936 l 19.713819702390968 13.187698349698904" fill="#ffe115" stroke="none" /><path d="M 82.7489923806493 88.02491185347247 l -27.044983752098982 -18.77374768471522 a53.922404958943204,53.922404958943204 0 0,0 0.5358535916550582,-0.7579269039170435 l 26.71781754064005 19.23650108896405" fill="#a0ff22" stroke="none" /><path d="M 83.6137871275137 86.86637796730984 l -31.292153435217575 -25.080799267362153 a61.1029345372993,61.1029345372993 0 0,0 0.6648625085871601,-0.8150428212999327 l 30.855792434554022 25.61572625827017" fill="#48ff2c" stroke="none" /><path d="M 83.84228863543731 86.58626213691792 l -14.487678365489073 -12.027317201960397 a39.82947645311554,39.82947645311554 0 0,0 0.44246638699411217,-0.5237406411183676 l 14.278501365007836 12.27491679270788" fill="#ff990e" stroke="none" /><path d="M 84.80347519578584 85.50635884689758 l -18.341873641790638 -17.49350842147415 a46.34654149156451,46.34654149156451 0 0,0 0.5555752736758555,-0.5725691559682672 l 18.03803410441166 17.806641772992542" fill="#fff917" stroke="none" /><path d="M 85.05521093208273 85.24692304244772 l -27.223826806247686 -26.87459890711053 a59.254160720039806,59.254160720039806 0 0,0 0.722799746076496,-0.7196958142618408 l 26.757191260003875 27.33923057202248" fill="#5eff2a" stroke="none" /><path d="M 85.57189188830299 84.74124197986013 l -12.474598678735207 -13.19278183692433 a39.156682097569,39.156682097569 0 0,0 0.49373241505654136,-0.458870470892604 l 12.24565837988381 13.405556893891584" fill="#ff8f0d" stroke="none" /><path d="M 85.83668400450813 84.49514656593479 l -24.871580045690084 -27.227395293926254 a57.87718194847441,57.87718194847441 0 0,0 0.7413488577642097,-0.6655903242951131 l 24.399220200329903 27.651484626990644" fill="#6fff28" stroke="none" /><path d="M 86.93701828274178 83.55741782278169 l -13.058929521536372 -16.437481614223053 a41.99348570548433,41.99348570548433 0 0,0 0.569846491497193,-0.4447742253688303 l 12.774050474879752 16.659834228815104" fill="#ffba11" stroke="none" /><path d="M 88.39885842347998 82.49532879139004 l -13.835492342802318 -20.876026973083743 a46.04454732169582,46.04454732169582 0 0,0 0.6644293391099819,-0.4321633244615927 l 13.47409597790805 21.11108922170487" fill="#fff417" stroke="none" /><path d="M 89.00827224532344 82.1063720568725 l -10.686481446731026 -17.39671208173648 a41.41681848296062,41.41681848296062 0 0,0 0.6106770523286955,-0.3679260911158681 l 10.385442328184682 17.578084782310967" fill="#ffb110" stroke="none" /><line stroke="#e1ed5e" stroke-width="0.3" x1="56.762969772571076" x2="54.21961505331055" y1="26.818313649435495" y2="22.513508569990535" /><path d="M 56.25429882871897 25.957352633546506 a86.0,86.0 0 0,1 42.265352541879196,-11.944610805530505" fill="none" id="id12" stroke="none" /><text fill="#e1ed5e" style="font-size:6.75px; font-family:Arial;" text-anchor="middle"><textPath startOffset="22.20632615414155" xlink:href="#id12">December</textPath></text><path d="M 89.94658935756843 81.56283822128135 l -14.140616592004498 -25.93277495870423 a50.53753298196838,50.53753298196838 0 0,0 0.767340129882846,-0.4098865227118426 l 13.692131415593346 26.17234020791782" fill="#ccff1d" stroke="none" /><path d="M 90.58718382345135 81.22770947309562 l -21.35407204627841 -42.58713193442704 a68.64095086538413,68.64095086538413 0 0,0 1.0607600388353673,-0.5205103442262439 l 20.617840740432616 42.94839743878812" fill="#37ff77" stroke="none" /></svg>