<?xml version="1.0" encoding="utf-8" ?>
<svg baseProfile="full" height="200mm" version="1.1" viewBox="0,0,200,200" width="200mm" xmlns="http://www.w3.org/2000/svg" xmlns:ev="http://www.w3.org/2001/xml-events" xmlns:xlink="http://www.w3.org/1999/xlink"><defs /><rect fill="#1a1a1a" height="200" width="200" x="0" y="0" /><text alignment-baseline="middle" fill="#e1ed5e" style="dominant-baseline: central; font-size:9.0px; font-family:Arial;" text-anchor="middle" x="100.0" y="100.0">2021</text><line stroke="#e1ed5e" stroke-width="0.3" x1="100.0" x2="100.0" y1="15.0" y2="10.0" /><path d="M 100.0 14.0 a86.0,86.0 0 0,1 42.46469731375804,11.215312516191453" fill="none" id="id1" stroke="none" /><text fill="#e1ed5e" style="font-size:6.75px; font-family:Arial;" text-anchor="middle"><textPath startOffset="22.20632615414155" xlink:href="#id1">January</textPath></text><path d="M 109.41281617654863 81.2277094730956 l 8.612964377867556 -17.17711963843884 a40.215530032961794,40.215530032961794 0 0,0 0.6161392868649945,0.3156104737119869 l -8.907364152321305 17.02631663941435" fill="#ff6109" stroke="none" /><path d="M 110.36928655335952 81.73862282372117 l 13.37313691721711 -23.55146576561709 a48.08343277200416,48.08343277200416 0 0,0 0.7162216612079342,0.41488181508105715 l -13.776555310890373 23.31777979314598" fill="#ffe315" stroke="none" /><line stroke="#e1ed5e" stroke-width="0.3" x1="143.23703022742887" x2="145.7803849466894" y1="26.81831364943548" y2="22.513508569990506" /><path d="M 143.74570117128098 25.957352633546492 a86.0,86.0 0 0,1 28.547481713284135,27.462654790039103" fill="none" id="id2" stroke="none" /><text fill="#e1ed5e" style="font-size:6.75px; font-family:Arial;" text-anchor="middle"><textPath startOffset="19.985693538727396" xlink:href="#id2">February</textPath></text><path d="M 110.99172775467656 82.1063720568725 l 21.375282500942646 -34.797200293500765 a61.83806864019299,61.83806864019299 0 0,0 0.902190470744976,0.5649515900133911 l -21.971092124059886 34.42410436216443" fill="#57ff2a" stroke="none" /><line stroke="#e1ed5e" stroke-width="0.3" x1="172.23445277983987" x2="176.4835382374775" y1="55.19839476539836" y2="52.563006222186495" /><path d="M 173.08426987136738 54.67131705675599 a86.0,86.0 0 0,1 12.851231095245387,41.99856678651699" fill="none" id="id3" stroke="none" /><text fill="#e1ed5e" style="font-size:6.75px; font-family:Arial;" text-anchor="middle"><textPath startOffset="22.20632615414155" xlink:href="#id3">March</textPath></text><path d="M 118.3937258080291 89.86733742301442 l 19.680172061812918 -10.841334976969314 a43.46872752216778,43.46872752216778 0 0,0 0.3553918310874104,0.6584870883400621 l -19.863871992118792 10.500966905296794" fill="#ff980e" stroke="none" /><path d="M 119.85752413597 93.16781622104841 l 20.499840141157094 -7.053179153881082 a42.679270790082825,42.679270790082825 0 0,0 0.2330343185065877,0.6967429511667816 l -20.618211753435453 6.699263099791986" fill="#ff8b0c" stroke="none" /><path d="M 120.08093135843002 93.85539295169968 l 16.009053388536806 -4.898644417034156 a37.741759391460675,37.741759391460675 0 0,0 0.18474429990815167,0.6228659379792115 l -16.09100358555666 4.622349092308414" fill="#ff3605" stroke="none" /><path d="M 120.78858239683441 97.02765380044208 l 35.42386121411737 -5.064894625497988 a56.784117997855525,56.784117997855525 0 0,0 0.1300194087289917,0.9687956162222576 l -35.5057966219042 4.454380667211066" fill="#9bff22" stroke="none" /><line stroke="#e1ed5e" stroke-width="0.3" x1="184.98032266829074" x2="189.97916517819016" y1="98.17113171792111" y2="98.06355123074" /><path d="M 185.9800911702706 98.14961562048488 a86.0,86.0 0 0,1 -9.607161424134198,41.387399972396054" fill="none" id="id4" stroke="none" /><text fill="#e1ed5e" style="font-size:6.75px; font-family:Arial;" text-anchor="middle"><textPath startOffset="21.466115282336823" xlink:href="#id4">April</textPath></text><path d="M 120.9904718944345 100.63252640178507 l 29.18294126348949 0.8793980870813272 a50.196188137903206,50.196188137903206 0 0,0 -0.03345902728239901,0.8634288223131563 l -29.163480103355887 -1.3816041564084895" fill="#fbff18" stroke="none" /><path d="M 120.81339534386255 102.79330883721812 l 26.678961004707183 3.580510354559773 a47.918153998552654,47.918153998552654 0 0,0 -0.11675132489850407,0.8165584944153391 l -26.613375628792078 -4.039214320955521" fill="#ffe015" stroke="none" /><path d="M 118.81262510543309 109.33194174019688 l 13.061241045296615 6.478986308730263 a35.57989304597449,35.57989304597449 0 0,0 -0.27688159287787745,0.5463136505115747 l -12.947780782632469 -6.702854170944531" fill="#ff0f01" stroke="none" /><line stroke="#e1ed5e" stroke-width="0.3" x1="174.80103733775053" x2="179.2010983576182" y1="140.37084112569926" y2="142.7455964860345" /><path d="M 175.68104954172406 140.8457921977663 a86.0,86.0 0 0,1 -30.038265399797805,32.042727171017184" fill="none" id="id5" stroke="none" /><text fill="#e1ed5e" style="font-size:6.75px; font-family:Arial;" text-anchor="middle"><textPath startOffset="22.206326154141568" xlink:href="#id5">May</textPath></text><path d="M 118.48025628344425 109.97397251340804 l 31.272150475840913 16.877881155827026 a56.536041812417125,56.536041812417125 0 0,0 -0.4695818765867324,0.8524275052812216 l -30.976992189802672 -17.41367917950605" fill="#9eff22" stroke="none" /><line stroke="#e1ed5e" stroke-width="0.3" x1="143.8653032363475" x2="146.44561519142675" y1="172.8068346515853" y2="177.08958963109032" /><path d="M 144.38136562736335 173.6633856474863 a86.0,86.0 0 0,1 -40.68145358897372,12.25698825130547" fill="none" id="id6" stroke="none" /><text fill="#e1ed5e" style="font-size:6.75px; font-family:Arial;" text-anchor="middle"><textPath startOffset="21.466115282336833" xlink:href="#id6">June</textPath></text><path d="M 107.2578585660854 119.70592522655815 l 5.712259966283917 15.509446311925812 a37.52794115505374,37.52794115505374 0 0,0 -0.6080963954715782,0.21804173238265645 l -5.444444010182604 -15.60547558534843" fill="#ff3204" stroke="none" /><path d="M 104.48393922423573 120.51570834832081 l 4.526061734330794 20.70843467416812 a42.19727580320787,42.19727580320787 0 0,0 -0.7109407849330689,0.14898455383050008 l -4.168929487968347 -20.78327520872516" fill="#ff830c" stroke="none" /><path d="M 101.62511606390274 120.93702456842531 l 1.0659777642638184 13.733420729463957 a34.77472880046555,34.77472880046555 0 0,0 -0.5971934375838722,0.04118595591737121 l -0.8294215659010159 -13.749735029897613" fill="#ff0000" stroke="none" /><line stroke="#e1ed5e" stroke-width="0.3" x1="102.19456741930631" x2="102.32365962044197" y1="184.97166512339345" y2="189.96999836594603" /><path d="M 102.22038585953345 185.97133177190398 a86.0,86.0 0 0,1 -42.740103519485714,-10.115201625700543" fill="none" id="id7" stroke="none" /><text fill="#e1ed5e" style="font-size:6.75px; font-family:Arial;" text-anchor="middle"><textPath startOffset="22.20632615414155" xlink:href="#id7">July</textPath></text><line stroke="#e1ed5e" stroke-width="0.3" x1="58.666819895761336" x2="56.23545636021788" y1="174.27360380694188" y2="178.64263932499728" /><path d="M 58.180547188652646 175.14741091055294 a86.0,86.0 0 0,1 -31.652253787137756,-30.449443065178592" fill="none" id="id8" stroke="none" /><text fill="#e1ed5e" style="font-size:6.75px; font-family:Arial;" text-anchor="middle"><textPath startOffset="22.20632615414155" xlink:href="#id8">August</textPath></text><path d="M 87.65650970185807 116.9893568818739 l -11.157847312145257 15.357459311814615 a39.98286367109,39.98286367109 0 0,0 -0.5533152908821111,-0.4093294242942171 l 11.420547573445932 -15.163119938780632" fill="#ff5d08" stroke="none" /><path d="M 85.44109423537348 115.13401014063109 l -19.4135406359776 20.180412291993136 a49.00240347362314,49.00240347362314 0 0,0 -0.602846346243385,-0.590012032135825 l 19.75803693459678 -19.843250156934744" fill="#fff116" stroke="none" /><line stroke="#e1ed5e" stroke-width="0.3" x1="26.63291911575756" x2="22.317208475507996" y1="142.92168965132927" y2="145.44649492493687" /><path d="M 25.769776987707644 143.4266507060508 a86.0,86.0 0 0,1 -11.730757126820373,-40.83630448921669" fill="none" id="id9" stroke="none" /><text fill="#e1ed5e" style="font-size:6.75px; font-family:Arial;" text-anchor="middle"><textPath startOffset="21.46611528233685" xlink:href="#id9">September</textPath></text><path d="M 80.32549172779594 107.34259656027581 l -49.54938948338367 18.49200863121251 a73.88758248769639,73.88758248769639 0 0,0 -0.4344439928669406,-1.1954032820993852 l 49.86035773725584 -17.636357552107008" fill="#3dffae" stroke="none" /><path d="M 79.35854240842038 103.8639653848113 l -30.371225422315135 5.685323490623989 a51.898774034678496,51.898774034678496 0 0,0 -0.1568172309873756,-0.8795143113750493 l 30.4645890956417 -5.161690428515726" fill="#e1ff1b" stroke="none" /><path d="M 79.10278846688536 102.07522291339032 l -31.24416450588585 3.1027396162212626 a52.39784720003787,52.39784720003787 0 0,0 -0.08140480567206444,-0.8982952472381921 l 31.29294390783499 -2.5644629804345045" fill="#daff1c" stroke="none" /><path d="M 79.0235259727143 100.99374915477108 l -36.2262706770605 1.7162000543565834 a57.26689991981982,57.26689991981982 0 0,0 -0.038172117004819706,-0.9850527259052972 l 36.250444926916515 -1.0923700814372894" fill="#94ff23" stroke="none" /><line stroke="#e1ed5e" stroke-width="0.3" x1="15.007084014347285" x2="10.007500721073583" y1="101.09737516637583" y2="101.16192664675087" /><path d="M 14.007167355692545 101.11028546245083 a86.0,86.0 0 0,1 10.666146001902534,-42.60595125391555" fill="none" id="id10" stroke="none" /><text fill="#e1ed5e" style="font-size:6.75px; font-family:Arial;" text-anchor="middle"><textPath startOffset="22.20632615414155" xlink:href="#id10">October</textPath></text><path d="M 79.00175016825051 100.2711162175752 l -27.502664939419365 0.35509714149316435 a48.504957239557086,48.504957239557086 0 0,0 -0.0035932996881009238,-0.8349563001064716 l 27.50470253639697 0.11836863681698266" fill="#ffe915" stroke="none" /><path d="M 79.00486145842228 99.54816195383935 l -38.73557242334671 -0.8336313345119768 a59.744541708042156,59.744541708042156 0 0,0 0.030976991653553342,-1.0279755451203878 l 38.71548373723751 1.500277027057359" fill="#73ff27" stroke="none" /><path d="M 79.01574976396665 99.18683210126434 l -28.390651134769456 -1.1001758875022591 a49.41195978526697,49.41195978526697 0 0,0 0.04025049247797043,-0.8496242799262109 l 28.36750703405799 1.588711274051479" fill="#fff717" stroke="none" /><path d="M 79.03285615573316 98.82574320788736 l -30.131804225972473 -1.6875200567974102 a51.17902168484635,51.17902168484635 0 0,0 0.056831644698235186,-0.8791603892003272 l 30.098291990269825 2.205939510250749" fill="#ecff1a" stroke="none" /><path d="M 79.08570108090925 98.10471618934814 l -62.742896757272284 -5.685851431955563 a84.0,84.0 0 0,0 0.1428914972710853,-1.4388978771822787 l 62.635728134318974 6.7650248398422725" fill="#4dd2ff" stroke="none" /><line stroke="#e1ed5e" stroke-width="0.3" x1="26.266209847984243" x2="21.928928074336255" y1="57.711370442889674" y2="55.22380399835377" /><path d="M 25.398753493254645 57.213857153982495 a86.0,86.0 0 0,1 29.58750427330803,-30.492523968695096" fill="none" id="id11" stroke="none" /><text fill="#e1ed5e" style="font-size:6.75px; font-family:Arial;" text-anchor="middle"><textPath startOffset="21.46611528233685" xlink:href="#id11">November</textPath></text><line stroke="#e1ed5e" stroke-width="0.3" x1="56.762969772571076" x2="54.21961505331055" y1="26.818313649435495" y2="22.513508569990535" /><path d="M 56.25429882871897 25.957352633546506 a86.0,86.0 0 0,1 42.265352541879196,-11.944610805530505" fill="none" id="id12" stroke="none" /><text fill="#e1ed5e" style="font-size:6.75px; font-family:Arial;" text-anchor="middle"><textPath startOffset="22.20632615414155" xlink:href="#id12">December</textPath></text></svg>