<?xml version="1.0" encoding="utf-8" ?>
<svg baseProfile="full" height="200mm" version="1.1" viewBox="0,0,200,200" width="200mm" xmlns="http://www.w3.org/2000/svg" xmlns:ev="http://www.w3.org/2001/xml-events" xmlns:xlink="http://www.w3.org/1999/xlink"><defs /><rect fill="#1a1a1a" height="200" width="200" x="0" y="0" /><text alignment-baseline="middle" fill="#e1ed5e" style="dominant-baseline: central; font-size:9.0px; font-family:Arial;" text-anchor="middle" x="100.0" y="100.0">2022</text><line stroke="#e1ed5e" stroke-width="0.3" x1="100.0" x2="100.0" y1="15.0" y2="10.0" /><path d="M 100.0 14.0 a86.0,86.0 0 0,1 42.46469731375804,11.215312516191453" fill="none" id="id13" stroke="none" /><text fill="#e1ed5e" style="font-size:6.75px; font-family:Arial;" text-anchor="middle"><textPath startOffset="22.20632615414155" xlink:href="#id13">January</textPath></text><path d="M 103.59715602781102 79.31037775812273 l 4.968744158618103 -28.57853228037496 a50.00725643376559,50.00725643376559 0 0,0 0.8468011603859712,0.15474749944373525 l -5.459940440106974 28.48876929958049" fill="#dfff1b" stroke="none" /><path d="M 103.95276090670814 79.375362276772 l 4.654310032732525 -24.285166885198095 a45.72714970478233,45.72714970478233 0 0,0 0.7717732311762038,0.15481044970834643 l -5.0716496733758545 24.20145247941254" fill="#ffe215" stroke="none" /><path d="M 105.36241919743992 79.69619591428918 l 9.815110382367765 -37.1630920571002 a59.4373750802857,59.4373750802857 0 0,0 0.9869494356903634,0.2697705630050992 l -10.453357707281839 36.988634953268814" fill="#63ff29" stroke="none" /><path d="M 105.71112130821622 79.79150937346287 l 5.648212618526791 -19.985891666139 a41.76868246843621,41.76868246843621 0 0,0 0.6901972099691122,0.20148749204364957 l -5.991400046219329 19.88570584517665" fill="#ffa60f" stroke="none" /><path d="M 106.74666289553966 80.11325718540242 l 5.092138381980465 -15.009797872921068 a36.85004433707314,36.85004433707314 0 0,0 0.5989325373004437,0.20895580191547605 l -5.349752923344183 14.919921217833384" fill="#ff5808" stroke="none" /><path d="M 107.4271985657038 80.35727306442388 l 5.0645435237491165 -13.394208409845772 a35.31972136706341,35.31972136706341 0 0,0 0.5668257480105402,0.21991958406173767 l -5.294352436759324 13.305046121893488" fill="#ff3f05" stroke="none" /><path d="M 107.76421540070413 80.48803036053334 l 17.453391043075626 -43.86148742181296 a68.20647135463918,68.20647135463918 0 0,0 1.0871336267073963,0.44346910263369127 l -18.205808539371407 43.55455743299569" fill="#36ff6d" stroke="none" /><path d="M 108.43124777332544 80.76684994638697 l 9.3924089444158 -21.425726707305202 a44.39399732228918,44.39399732228918 0 0,0 0.6972349595061357,0.3128290024191595 l -9.759826022388715 21.26087737436951" fill="#ffce13" stroke="none" /><path d="M 108.76106565485865 80.91482961587045 l 4.999642163066567 -10.89125755939138 a32.98398568856425,32.98398568856425 0 0,0 0.5139561331181169,0.24130929589830782 l -5.186376507484282 10.80358328085307" fill="#ff1802" stroke="none" /><line stroke="#e1ed5e" stroke-width="0.3" x1="143.23703022742887" x2="145.7803849466894" y1="26.81831364943548" y2="22.513508569990506" /><path d="M 143.74570117128098 25.957352633546492 a86.0,86.0 0 0,1 28.547481713284135,27.462654790039103" fill="none" id="id14" stroke="none" /><text fill="#e1ed5e" style="font-size:6.75px; font-family:Arial;" text-anchor="middle"><textPath startOffset="19.985693538727396" xlink:href="#id14">February</textPath></text><path d="M 110.68208982089419 81.91981866633111 l 5.39884573178806 -9.137922584427523 a31.613631065504244,31.613631065504244 0 0,0 0.46613235249907814,0.2808395267902042 l -5.555340150504776 9.043636448178704" fill="#ff0000" stroke="none" /><path d="M 112.48926042617603 83.11751280151076 l 11.266629986094026 -15.22978383185062 a39.944214599936615,39.944214599936615 0 0,0 0.5492402667062977,0.41367638193831147 l -11.527116406558706 15.033590860406461" fill="#ff8a0c" stroke="none" /><path d="M 116.60985879189232 87.15038557335679 l 17.384976520748932 -13.44925612594077 a42.97998860254816,42.97998860254816 0 0,0 0.4476551236319364,0.5890616691558582 l -17.613907584604984 13.14800968090388" fill="#ffb911" stroke="none" /><line stroke="#e1ed5e" stroke-width="0.3" x1="172.23445277983987" x2="176.4835382374775" y1="55.19839476539836" y2="52.563006222186495" /><path d="M 173.08426987136738 54.67131705675599 a86.0,86.0 0 0,1 12.851231095245387,41.99856678651699" fill="none" id="id15" stroke="none" /><text fill="#e1ed5e" style="font-size:6.75px; font-family:Arial;" text-anchor="middle"><textPath startOffset="22.20632615414155" xlink:href="#id15">March</textPath></text><path d="M 117.84615892207809 88.93136811851018 l 15.916170683466063 -9.871605146376899 a39.72893689965342,39.72893689965342 0 0,0 0.3554495044918269,0.5842655262302531 l -16.083735986244115 9.596171846939566" fill="#ff860c" stroke="none" /><path d="M 119.85752413597 93.16781622104841 l 27.892374431931028 -9.596656000286126 a50.497124568996,50.497124568996 0 0,0 0.27572080761072004,0.8243701203492514 l -28.05343253331352 9.115112777014561" fill="#d8ff1c" stroke="none" /><path d="M 120.94382443527127 98.46500227214037 l 29.665140709458235 -2.1741933392531765 a50.74470860486633,50.74470860486633 0 0,0 0.0563493625866016,0.8716996983965016 l -29.698170663049254 1.6632345766036394" fill="#d4ff1c" stroke="none" /><path d="M 120.98425023603335 99.18683210126433 l 33.469934973529824 -1.2970049626318916 a54.49505588897273,54.49505588897273 0 0,0 0.028255181865515903,0.9376519290680453 l -33.48730184985099 0.7206828861388472" fill="#a2ff22" stroke="none" /><line stroke="#e1ed5e" stroke-width="0.3" x1="184.98032266829074" x2="189.97916517819016" y1="98.17113171792111" y2="98.06355123074" /><path d="M 185.9800911702706 98.14961562048488 a86.0,86.0 0 0,1 -9.607161424134198,41.387399972396054" fill="none" id="id16" stroke="none" /><text fill="#e1ed5e" style="font-size:6.75px; font-family:Arial;" text-anchor="middle"><textPath startOffset="21.466115282336823" xlink:href="#id16">April</textPath></text><path d="M 120.99980553446 99.90962569577887 l 37.38129569979531 -0.16087332733675216 a58.38164186366061,58.38164186366061 0 0,0 -0.004324975166217198,1.0049719133628705 l -37.37852642733959 -0.482608064229803" fill="#70ff27" stroke="none" /><path d="M 119.54520255179757 107.68017299344265 l 17.43586835344301 6.851322460867443 a39.73366287465914,39.73366287465914 0 0,0 -0.2556149514449786,0.6344153466568447 l -17.315350787740638 -7.1504371753671006" fill="#ff860c" stroke="none" /><path d="M 119.26925614724726 108.34839909993367 l 26.665246683170512 11.552709648373817 a50.060290447515584,50.060290447515584 0 0,0 -0.3493705650488241,0.7877383930495591 l -26.462435033390417 -12.009996377916064" fill="#deff1b" stroke="none" /><path d="M 119.12269723197855 108.67885076344098 l 44.483499751563926 20.188870382457175 a69.85050908094044,69.85050908094044 0 0,0 -0.506334309941857,1.0905990579999134 l -44.129390824782234 -20.951589507735918" fill="#38ff83" stroke="none" /><path d="M 118.64920377521936 109.65438752849418 l 14.965700400367938 7.747498126031558 a37.85217836620642,37.85217836620642 0 0,0 -0.3045252663425971,0.5760470405771919 l -14.830122625800447 -8.003960181694884" fill="#ff6809" stroke="none" /><line stroke="#e1ed5e" stroke-width="0.3" x1="174.80103733775053" x2="179.2010983576182" y1="140.37084112569926" y2="142.7455964860345" /><path d="M 175.68104954172406 140.8457921977663 a86.0,86.0 0 0,1 -30.038265399797805,32.042727171017184" fill="none" id="id17" stroke="none" /><text fill="#e1ed5e" style="font-size:6.75px; font-family:Arial;" text-anchor="middle"><textPath startOffset="22.206326154141568" xlink:href="#id17">May</textPath></text><path d="M 118.48025628344425 109.97397251340804 l 23.70564812201915 12.794166874912829 a47.93786292392377,47.93786292392377 0 0,0 -0.3981663892577209,0.7227876517485269 l -23.481905323309917 -13.200325045059161" fill="#fcff18" stroke="none" /><path d="M 117.94076556474637 110.91462005526583 l 32.00404417981174 19.470294129531762 a58.461329359138084,58.461329359138084 0 0,0 -0.5304262121396798,0.8552159453519173 l -31.6641533280041 -20.01830640624895" fill="#6fff27" stroke="none" /><path d="M 117.55443506779139 111.5257021239791 l 15.83437944161797 10.396366505522005 a39.942333774333974,39.942333774333974 0 0,0 -0.3822992881566477,0.5714855647456194 l -15.653077048050601 -10.667388984473432" fill="#ff8a0c" stroke="none" /><path d="M 117.35343817320211 111.8261652097733 l 17.648878731384432 12.02750449573262 a42.357522910440295,42.357522910440295 0 0,0 -0.4157876832198664,0.5989731685889882 l -17.43923014100243 -12.329518926508628" fill="#ffaf10" stroke="none" /><path d="M 116.93607887273984 112.41649034213515 l 22.531164295589104 16.51846250689929 a48.937662180409205,48.937662180409205 0 0,0 -0.5039151467045326,0.6750766876470781 l -22.24348788218948 -16.90385207405568" fill="#eeff19" stroke="none" /><path d="M 116.498646956653 112.99209946851258 l 40.989065501584044 32.27743569015611 a73.17217980327553,73.17217980327553 0 0,0 -0.7877580566391513,0.9828492989957965 l -40.42738953289004 -32.97821282273016" fill="#3dffae" stroke="none" /><path d="M 116.0416608686014 113.55231037782055 l 15.612474403159242 13.189725216765531 a41.438155696713025,41.438155696713025 0 0,0 -0.4650100847382252,0.540911783094249 l -15.383121808850237 -13.456514099021309" fill="#ffa10e" stroke="none" /><path d="M 115.07121518719521 114.62390073753431 l 20.427820507686956 19.821521733854116 a49.463811665691,49.463811665691 0 0,0 -0.5981808901423615,0.6059540835690049 l -20.083598992489062 -20.170216311403784" fill="#e6ff1a" stroke="none" /><path d="M 114.81725581225074 114.88116024355365 l 14.581194887214421 14.644081225871947 a41.66543876352165,41.66543876352165 0 0,0 -0.5125841947066309,0.5016715191924918 l -14.326960740131996 -14.892902847987012" fill="#ffa50f" stroke="none" /><path d="M 114.29624159901734 115.38237550388516 l 7.944859186525774 8.548457053288136 a32.67034298920279,32.67034298920279 0 0,0 -0.4152252029947765,0.37929837804118843 l -7.796534434064133 -8.683948197915907" fill="#ff1202" stroke="none" /><path d="M 113.75828350139079 115.86535959552629 l 18.276559206699027 21.075607575166984 a48.89648456523529,48.89648456523529 0 0,0 -0.6406243322816084,0.5459539540184674 l -17.91106939784037 -21.387085919408396" fill="#eeff19" stroke="none" /><path d="M 113.20401910651253 116.32954008644616 l 21.46354846776044 26.544181152298123 a55.136160678581305,55.136160678581305 0 0,0 -0.7431370076383166,0.590392983265574 l -21.003453967404774 -26.909708049568824" fill="#99ff23" stroke="none" /><path d="M 112.63410532772338 116.77436683061366 l 10.408260437209561 13.819101084997639 a38.30027283386492,38.30027283386492 0 0,0 -0.5300302344090816,0.3921036961825453 l -10.168845232381916 -13.996214729919952" fill="#ff700a" stroke="none" /><path d="M 111.7513745106137 117.40417183066458 l 10.487594647780345 15.532472322745754 a39.74159379436588,39.74159379436588 0 0,0 -0.5702451296495844,0.37792737741523075 l -10.218674819390797 -15.710697721252302" fill="#ff870c" stroke="none" /><path d="M 111.1453310114006 117.79835938074945 l 20.818341017598602 33.2455191113838 a60.22585708063514,60.22585708063514 0 0,0 -0.8833722229876031,0.5426393692762835 l -20.24298959467869 -33.59894694748846" fill="#5aff2a" stroke="none" /><line stroke="#e1ed5e" stroke-width="0.3" x1="143.8653032363475" x2="146.44561519142675" y1="172.8068346515853" y2="177.08958963109032" /><path d="M 144.38136562736335 173.6633856474863 a86.0,86.0 0 0,1 -40.68145358897372,12.25698825130547" fill="none" id="id18" stroke="none" /><text fill="#e1ed5e" style="font-size:6.75px; font-family:Arial;" text-anchor="middle"><textPath startOffset="21.466115282336833" xlink:href="#id18">June</textPath></text><path d="M 110.21172684928248 118.3499491758327 l 9.159754421527737 16.45960870075101 a39.83666158438207,39.83666158438207 0 0,0 -0.6020594113424478,0.32829079475522616 l -8.875072198316639 -16.61484014726601" fill="#ff880c" stroke="none" /><path d="M 109.57404056367764 118.69057910512821 l 13.784499105636757 26.910296571744063 a51.23535144780892,51.23535144780892 0 0,0 -0.7884049337552319,0.3953226008028187 l -13.319240264198763 -27.143587013456184" fill="#ceff1d" stroke="none" /><path d="M 107.2578585660854 119.70592522655815 l 21.77357569825621 59.11777567967444 a84.0,84.0 0 0,0 -1.3611217574810608,0.4880498358401595 l -20.752734380145416 -59.48381305655456" fill="#4dd2ff" stroke="none" /><line stroke="#e1ed5e" stroke-width="0.3" x1="102.19456741930631" x2="102.32365962044197" y1="184.97166512339345" y2="189.96999836594603" /><path d="M 102.22038585953345 185.97133177190398 a86.0,86.0 0 0,1 -42.740103519485714,-10.115201625700543" fill="none" id="id19" stroke="none" /><text fill="#e1ed5e" style="font-size:6.75px; font-family:Arial;" text-anchor="middle"><textPath startOffset="22.20632615414155" xlink:href="#id19">July</textPath></text><path d="M 99.45781275523022 120.99299961872073 l -0.45039224882484413 17.438780419612193 a38.4445956015395,38.4445956015395 0 0,0 -0.6613928561397502,-0.022779707261774487 l 0.7505054566392374 -17.428443913924326" fill="#ff720a" stroke="none" /><path d="M 98.37488393609728 120.93702456842531 l -2.427555332252913 31.27517274706702 a52.36924377874024,52.36924377874024 0 0,0 -0.898146701071034,-0.07749587657263368 l 2.9655463510654885 -31.228752618215726" fill="#beff1f" stroke="none" /><line stroke="#e1ed5e" stroke-width="0.3" x1="58.666819895761336" x2="56.23545636021788" y1="174.27360380694188" y2="178.64263932499728" /><path d="M 58.180547188652646 175.14741091055294 a86.0,86.0 0 0,1 -31.652253787137756,-30.449443065178592" fill="none" id="id20" stroke="none" /><text fill="#e1ed5e" style="font-size:6.75px; font-family:Arial;" text-anchor="middle"><textPath startOffset="22.20632615414155" xlink:href="#id20">August</textPath></text><line stroke="#e1ed5e" stroke-width="0.3" x1="26.63291911575756" x2="22.317208475507996" y1="142.92168965132927" y2="145.44649492493687" /><path d="M 25.769776987707644 143.4266507060508 a86.0,86.0 0 0,1 -11.730757126820373,-40.83630448921669" fill="none" id="id21" stroke="none" /><text fill="#e1ed5e" style="font-size:6.75px; font-family:Arial;" text-anchor="middle"><textPath startOffset="21.46611528233685" xlink:href="#id21">September</textPath></text><line stroke="#e1ed5e" stroke-width="0.3" x1="15.007084014347285" x2="10.007500721073583" y1="101.09737516637583" y2="101.16192664675087" /><path d="M 14.007167355692545 101.11028546245083 a86.0,86.0 0 0,1 10.666146001902534,-42.60595125391555" fill="none" id="id22" stroke="none" /><text fill="#e1ed5e" style="font-size:6.75px; font-family:Arial;" text-anchor="middle"><textPath startOffset="22.20632615414155" xlink:href="#id22">October</textPath></text><line stroke="#e1ed5e" stroke-width="0.3" x1="26.266209847984243" x2="21.928928074336255" y1="57.711370442889674" y2="55.22380399835377" /><path d="M 25.398753493254645 57.213857153982495 a86.0,86.0 0 0,1 29.58750427330803,-30.492523968695096" fill="none" id="id23" stroke="none" /><text fill="#e1ed5e" style="font-size:6.75px; font-family:Arial;" text-anchor="middle"><textPath startOffset="21.46611528233685" xlink:href="#id23">November</textPath></text><line stroke="#e1ed5e" stroke-width="0.3" x1="56.762969772571076" x2="54.21961505331055" y1="26.818313649435495" y2="22.513508569990535" /><path d="M 56.25429882871897 25.957352633546506 a86.0,86.0 0 0,1 42.265352541879196,-11.944610805530505" fill="none" id="id24" stroke="none" /><text fill="#e1ed5e" style="font-size:6.75px; font-family:Arial;" text-anchor="middle"><textPath startOffset="22.20632615414155" xlink:href="#id24">December</textPath></text></svg>