<?xml version="1.0" encoding="utf-8" ?>
<svg baseProfile="full" height="200mm" version="1.1" viewBox="0,0,200,200" width="200mm" xmlns="http://www.w3.org/2000/svg" xmlns:ev="http://www.w3.org/2001/xml-events" xmlns:xlink="http://www.w3.org/1999/xlink"><defs /><rect fill="#1a1a1a" height="200" width="200" x="0" y="0" /><text alignment-baseline="middle" fill="#e1ed5e" style="dominant-baseline: central; font-size:9.0px; font-family:Arial;" text-anchor="middle" x="100.0" y="100.0">2022</text><line stroke="#e1ed5e" stroke-width="0.3" x1="100.0" x2="100.0" y1="15.0" y2="10.0" /><path d="M 100.0 14.0 a86.0,86.0 0 0,1 42.46469731375804,11.215312516191453" fill="none" id="id13" stroke="none" /><text fill="#e1ed5e" style="font-size:6.75px; font-family:Arial;" text-anchor="middle"><textPath startOffset="22.20632615414155" xlink:href="#id13">January</textPath></text><path d="M 103.59715602781102 79.31037775812273 l 6.407934899394381 -36.85626961799844 a58.409173204302064,58.409173204302064 0 0,0 0.9890755697045487,0.18074723835156717 l -7.0414055902018315 36.74050689829614" fill="#84ff25" stroke="none" /><path d="M 103.95276090670814 79.375362276772 l 6.002425308942228 -31.31933612467536 a52.88933873381236,52.88933873381236 0 0,0 0.892655153730217,0.17905822617459669 l -6.54064687213957 31.211373942423556" fill="#d2ff1c" stroke="none" /><path d="M 105.36241919743992 79.69619591428918 l 12.658045242980403 -47.92733675954232 a70.57071432041216,70.57071432041216 0 0,0 1.171817002024677,0.3203018522970429 l -13.481160134228793 47.70234836641898" fill="#38ff81" stroke="none" /><path d="M 105.71112130821622 79.79150937346287 l 7.2842105775725 -25.77478103412464 a47.78430624629823,47.78430624629823 0 0,0 0.7896010336554776,0.2305061940100212 l -7.726801828951404 25.645576511195916" fill="#ffdf14" stroke="none" /><path d="M 106.74666289553966 80.11325718540242 l 6.567070110430735 -19.357367687350667 a41.44099052439975,41.44099052439975 0 0,0 0.67355027787719,0.23498846644495985 l -6.899302392371199 19.2414583677335" fill="#ff770b" stroke="none" /><path d="M 107.4271985657038 80.35727306442388 l 6.53148243486129 -17.27382468874854 a39.46741135553438,39.46741135553438 0 0,0 0.633389621938019,0.24574533301377163 l -6.827855221798975 17.158836651844222" fill="#ff5607" stroke="none" /><path d="M 107.76421540070413 80.48803036053334 l 22.508744666138412 -56.56591424657921 a81.87976873310843,81.87976873310843 0 0,0 1.3050704452068473,0.5323710029672427 l -23.479098980933646 56.17008235742839" fill="#4aebff" stroke="none" /><path d="M 108.43124777332544 80.76684994638697 l 12.112908844363753 -27.631662554912346 a51.170040374855496,51.170040374855496 0 0,0 0.803656872114484,0.3605774124822318 l -12.586747834945017 27.419064811913582" fill="#ebff1a" stroke="none" /><path d="M 108.76106565485865 80.91482961587045 l 6.447782473490854 -14.045897149296348 a36.45513266051337,36.45513266051337 0 0,0 0.5680435103087443,0.2667040447218556 l -6.688604195099196 13.93282812193449" fill="#ff2003" stroke="none" /><line stroke="#e1ed5e" stroke-width="0.3" x1="143.23703022742887" x2="145.7803849466894" y1="26.81831364943548" y2="22.513508569990506" /><path d="M 143.74570117128098 25.957352633546492 a86.0,86.0 0 0,1 28.547481713284135,27.462654790039103" fill="none" id="id14" stroke="none" /><text fill="#e1ed5e" style="font-size:6.75px; font-family:Arial;" text-anchor="middle"><textPath startOffset="19.985693538727396" xlink:href="#id14">February</textPath></text><path d="M 110.68208982089419 81.91981866633111 l 6.96261487345179 -11.78471081775369 a34.68785647696866,34.68785647696866 0 0,0 0.5114607717556056,0.3081493922091172 l -7.164437711425033 11.663114816085958" fill="#ff0000" stroke="none" /><path d="M 112.48926042617603 83.11751280151076 l 14.529995745752807 -19.64107231342936 a45.43138346457187,45.43138346457187 0 0,0 0.624689843593949,0.47050343901632113 l -14.865931743105138 19.38805228490719" fill="#ffba11" stroke="none" /><path d="M 116.60985879189232 87.15038557335679 l 22.420513960099292 -17.344816909284837 a49.34646573828245,49.34646573828245 0 0,0 0.5139647296128012,0.6763173379020314 l -22.715754629936207 16.956314795501772" fill="#fff717" stroke="none" /><line stroke="#e1ed5e" stroke-width="0.3" x1="172.23445277983987" x2="176.4835382374775" y1="55.19839476539836" y2="52.563006222186495" /><path d="M 173.08426987136738 54.67131705675599 a86.0,86.0 0 0,1 12.851231095245387,41.99856678651699" fill="none" id="id15" stroke="none" /><text fill="#e1ed5e" style="font-size:6.75px; font-family:Arial;" text-anchor="middle"><textPath startOffset="22.20632615414155" xlink:href="#id15">March</textPath></text><path d="M 117.84615892207809 88.93136811851018 l 20.526270287111164 -12.730903647110406 a45.153750838566495,45.153750838566495 0 0,0 0.4039845919374673,0.6640444485489098 l -20.742370677334858 12.375691425354415" fill="#ffb510" stroke="none" /><path d="M 119.85752413597 93.16781622104841 l 35.97136697798003 -12.376315813132704 a59.04093105289237,59.04093105289237 0 0,0 0.3223710920361417,0.963848533020985 l -36.179075363787945 11.755294177189406" fill="#7bff26" stroke="none" /><path d="M 120.94382443527127 98.46500227214037 l 38.25761286539063 -2.803945812437645 a59.36022750554523,59.36022750554523 0 0,0 0.06591644872727397,1.0196982865001478 l -38.300209905122315 2.144988461684462" fill="#77ff27" stroke="none" /><path d="M 120.98425023603335 99.18683210126433 l 43.16446118992595 -1.6726808826172446 a64.19685834816806,64.19685834816806 0 0,0 0.03328547660392985,1.1045829220343706 l -43.186858360985525 0.9294278131578747" fill="#39ff2e" stroke="none" /><line stroke="#e1ed5e" stroke-width="0.3" x1="184.98032266829074" x2="189.97916517819016" y1="98.17113171792111" y2="98.06355123074" /><path d="M 185.9800911702706 98.14961562048488 a86.0,86.0 0 0,1 -9.607161424134198,41.387399972396054" fill="none" id="id16" stroke="none" /><text fill="#e1ed5e" style="font-size:6.75px; font-family:Arial;" text-anchor="middle"><textPath startOffset="21.466115282336823" xlink:href="#id16">April</textPath></text><path d="M 120.99980553446 99.90962569577887 l 48.2087428236432 -0.2074700921831268 a69.20918925345374,69.20918925345374 0 0,0 -0.0051270915863284245,1.1913555207776634 l -48.205171434767365 -0.6223949067982213" fill="#36ff6e" stroke="none" /><path d="M 119.54520255179757 107.68017299344265 l 22.486146550630018 8.835799731779156 a45.15984568652124,45.15984568652124 0 0,0 -0.29052271870421864,0.721053562229122 l -22.330721217668405 -9.22155266185109" fill="#ffb510" stroke="none" /><path d="M 119.26925614724726 108.34839909993367 l 34.38880315978483 14.898938036482358 a58.47756845604271,58.47756845604271 0 0,0 -0.408114714308112,0.9201909416267641 l -34.12724736074544 -15.48867731460181" fill="#83ff25" stroke="none" /><path d="M 119.12269723197855 108.67885076344098 l 57.368091695935625 26.036552290322952 a84.0,84.0 0 0,0 -0.6089015326406746,1.3115197308846775 l -56.911415546455125 -27.02019208848646" fill="#4dd2ff" stroke="none" /><path d="M 118.64920377521936 109.65438752849418 l 19.300497435164672 9.991551595322523 a42.733391463984404,42.733391463984404 0 0,0 -0.34379520489923476,0.6503309650636082 l -19.125649722040542 -10.322297575472264" fill="#ff8d0d" stroke="none" /><line stroke="#e1ed5e" stroke-width="0.3" x1="174.80103733775053" x2="179.2010983576182" y1="140.37084112569926" y2="142.7455964860345" /><path d="M 175.68104954172406 140.8457921977663 a86.0,86.0 0 0,1 -30.038265399797805,32.042727171017184" fill="none" id="id17" stroke="none" /><text fill="#e1ed5e" style="font-size:6.75px; font-family:Arial;" text-anchor="middle"><textPath startOffset="22.206326154141568" xlink:href="#id17">May</textPath></text><path d="M 118.48025628344425 109.97397251340804 l 30.571960452094743 16.49998184837731 a55.740382365213335,55.740382365213335 0 0,0 -0.4629732205088699,0.8404308748859822 l -30.283410822134364 -17.023783241661096" fill="#a9ff21" stroke="none" /><line stroke="#e1ed5e" stroke-width="0.3" x1="143.8653032363475" x2="146.44561519142675" y1="172.8068346515853" y2="177.08958963109032" /><path d="M 144.38136562736335 173.6633856474863 a86.0,86.0 0 0,1 -40.68145358897372,12.25698825130547" fill="none" id="id18" stroke="none" /><text fill="#e1ed5e" style="font-size:6.75px; font-family:Arial;" text-anchor="middle"><textPath startOffset="21.466115282336833" xlink:href="#id18">June</textPath></text><line stroke="#e1ed5e" stroke-width="0.3" x1="102.19456741930631" x2="102.32365962044197" y1="184.97166512339345" y2="189.96999836594603" /><path d="M 102.22038585953345 185.97133177190398 a86.0,86.0 0 0,1 -42.740103519485714,-10.115201625700543" fill="none" id="id19" stroke="none" /><text fill="#e1ed5e" style="font-size:6.75px; font-family:Arial;" text-anchor="middle"><textPath startOffset="22.20632615414155" xlink:href="#id19">July</textPath></text><line stroke="#e1ed5e" stroke-width="0.3" x1="58.666819895761336" x2="56.23545636021788" y1="174.27360380694188" y2="178.64263932499728" /><path d="M 58.180547188652646 175.14741091055294 a86.0,86.0 0 0,1 -31.652253787137756,-30.449443065178592" fill="none" id="id20" stroke="none" /><text fill="#e1ed5e" style="font-size:6.75px; font-family:Arial;" text-anchor="middle"><textPath startOffset="22.20632615414155" xlink:href="#id20">August</textPath></text><line stroke="#e1ed5e" stroke-width="0.3" x1="26.63291911575756" x2="22.317208475507996" y1="142.92168965132927" y2="145.44649492493687" /><path d="M 25.769776987707644 143.4266507060508 a86.0,86.0 0 0,1 -11.730757126820373,-40.83630448921669" fill="none" id="id21" stroke="none" /><text fill="#e1ed5e" style="font-size:6.75px; font-family:Arial;" text-anchor="middle"><textPath startOffset="21.46611528233685" xlink:href="#id21">September</textPath></text><line stroke="#e1ed5e" stroke-width="0.3" x1="15.007084014347285" x2="10.007500721073583" y1="101.09737516637583" y2="101.16192664675087" /><path d="M 14.007167355692545 101.11028546245083 a86.0,86.0 0 0,1 10.666146001902534,-42.60595125391555" fill="none" id="id22" stroke="none" /><text fill="#e1ed5e" style="font-size:6.75px; font-family:Arial;" text-anchor="middle"><textPath startOffset="22.20632615414155" xlink:href="#id22">October</textPath></text><line stroke="#e1ed5e" stroke-width="0.3" x1="26.266209847984243" x2="21.928928074336255" y1="57.711370442889674" y2="55.22380399835377" /><path d="M 25.398753493254645 57.213857153982495 a86.0,86.0 0 0,1 29.58750427330803,-30.492523968695096" fill="none" id="id23" stroke="none" /><text fill="#e1ed5e" style="font-size:6.75px; font-family:Arial;" text-anchor="middle"><textPath startOffset="21.46611528233685" xlink:href="#id23">November</textPath></text><line stroke="#e1ed5e" stroke-width="0.3" x1="56.762969772571076" x2="54.21961505331055" y1="26.818313649435495" y2="22.513508569990535" /><path d="M 56.25429882871897 25.957352633546506 a86.0,86.0 0 0,1 42.265352541879196,-11.944610805530505" fill="none" id="id24" stroke="none" /><text fill="#e1ed5e" style="font-size:6.75px; font-family:Arial;" text-anchor="middle"><textPath startOffset="22.20632615414155" xlink:href="#id24">December</textPath></text></svg>