<?xml version="1.0" encoding="utf-8" ?>
<svg baseProfile="full" height="200mm" version="1.1" viewBox="0,0,200,200" width="200mm" xmlns="http://www.w3.org/2000/svg" xmlns:ev="http://www.w3.org/2001/xml-events" xmlns:xlink="http://www.w3.org/1999/xlink"><defs /><rect fill="#1a1a1a" height="200" width="200" x="0" y="0" /><text alignment-baseline="middle" fill="#e1ed5e" style="dominant-baseline: central; font-size:9.0px; font-family:Arial;" text-anchor="middle" x="100.0" y="100.0">2021</text><line stroke="#e1ed5e" stroke-width="0.3" x1="100.0" x2="100.0" y1="15.0" y2="10.0" /><path d="M 100.0 14.0 a86.0,86.0 0 0,1 42.46469731375804,11.215312516191453" fill="none" id="id1" stroke="none" /><text fill="#e1ed5e" style="font-size:6.75px; font-family:Arial;" text-anchor="middle"><textPath startOffset="22.20632615414155" xlink:href="#id1">January</textPath></text><path d="M 109.41281617654863 81.2277094730956 l 8.538516966074786 -17.02864670356608 a40.04943780101709,40.04943780101709 0 0,0 0.6135945995449381,0.3143069860304623 l -8.83037205320848 16.879147192223115" fill="#ff5e08" stroke="none" /><path d="M 110.36928655335952 81.73862282372117 l 13.52522615755914 -23.819310517331438 a48.391445674410434,48.391445674410434 0 0,0 0.7208096346515304,0.4175394654327829 l -13.933232524675999 23.582966894508605" fill="#ffe815" stroke="none" /><line stroke="#e1ed5e" stroke-width="0.3" x1="143.23703022742887" x2="145.7803849466894" y1="26.81831364943548" y2="22.513508569990506" /><path d="M 143.74570117128098 25.957352633546492 a86.0,86.0 0 0,1 28.547481713284135,27.462654790039103" fill="none" id="id2" stroke="none" /><text fill="#e1ed5e" style="font-size:6.75px; font-family:Arial;" text-anchor="middle"><textPath startOffset="19.985693538727396" xlink:href="#id2">February</textPath></text><path d="M 110.99172775467656 82.1063720568725 l 20.835848527087233 -33.919046190389466 a60.80746510780983,60.80746510780983 0 0,0 0.8871544143726098,0.5555360128924258 l -21.416622093832107 33.5553658361741" fill="#65ff29" stroke="none" /><line stroke="#e1ed5e" stroke-width="0.3" x1="172.23445277983987" x2="176.4835382374775" y1="55.19839476539836" y2="52.563006222186495" /><path d="M 173.08426987136738 54.67131705675599 a86.0,86.0 0 0,1 12.851231095245387,41.99856678651699" fill="none" id="id3" stroke="none" /><text fill="#e1ed5e" style="font-size:6.75px; font-family:Arial;" text-anchor="middle"><textPath startOffset="22.20632615414155" xlink:href="#id3">March</textPath></text><path d="M 118.3937258080291 89.86733742301442 l 19.73700226267934 -10.872641372181013 a43.533610201764645,43.533610201764645 0 0,0 0.3559222992106382,0.6594699652082577 l -19.921232661108444 10.531290423640296" fill="#ff990e" stroke="none" /><path d="M 119.85752413597 93.16781622104841 l 20.641657640704974 -7.1019729115191454 a42.82924756816015,42.82924756816015 0 0,0 0.23385321104209897,0.699191335617351 l -20.760848145518843 6.74560847297948" fill="#ff8e0d" stroke="none" /><path d="M 120.08093135843002 93.85539295169968 l 16.107513252036174 -4.928772360824917 a37.844725588425376,37.844725588425376 0 0,0 0.18524831504361863,0.6245652264566607 l -16.189967464191497 4.650777747621726" fill="#ff3805" stroke="none" /><path d="M 120.78858239683441 97.02765380044208 l 35.47882883076644 -5.072753881282091 a56.83964462913781,56.83964462913781 0 0,0 0.13014654885236754,0.9697429578182281 l -35.560891378676644 4.461292581399198" fill="#9aff23" stroke="none" /><line stroke="#e1ed5e" stroke-width="0.3" x1="184.98032266829074" x2="189.97916517819016" y1="98.17113171792111" y2="98.06355123074" /><path d="M 185.9800911702706 98.14961562048488 a86.0,86.0 0 0,1 -9.607161424134198,41.387399972396054" fill="none" id="id4" stroke="none" /><text fill="#e1ed5e" style="font-size:6.75px; font-family:Arial;" text-anchor="middle"><textPath startOffset="21.466115282336823" xlink:href="#id4">April</textPath></text><path d="M 120.9904718944345 100.63252640178507 l 29.409405648358117 0.8862223596948172 a50.42275532067827,50.42275532067827 0 0,0 -0.03361004905976865,0.8673260233368844 l -29.389793466447145 -1.3923256300457079" fill="#f7ff18" stroke="none" /><path d="M 120.81339534386255 102.79330883721812 l 26.951801850364713 3.6171275778786 a48.19344102712955,48.19344102712955 0 0,0 -0.11742205452040679,0.8212495758287344 l -26.885545744827706 -4.080522625687744" fill="#ffe415" stroke="none" /><path d="M 118.81262510543309 109.33194174019688 l 13.30755621289017 6.6011701496789685 a35.85484768364336,35.85484768364336 0 0,0 -0.2790212810986527,0.5505354583634384 l -13.191956262005249 -6.8292598197451015" fill="#ff1402" stroke="none" /><line stroke="#e1ed5e" stroke-width="0.3" x1="174.80103733775053" x2="179.2010983576182" y1="140.37084112569926" y2="142.7455964860345" /><path d="M 175.68104954172406 140.8457921977663 a86.0,86.0 0 0,1 -30.038265399797805,32.042727171017184" fill="none" id="id5" stroke="none" /><text fill="#e1ed5e" style="font-size:6.75px; font-family:Arial;" text-anchor="middle"><textPath startOffset="22.206326154141568" xlink:href="#id5">May</textPath></text><path d="M 118.48025628344425 109.97397251340804 l 31.339029509618694 16.913976415242907 a56.61203966048764,56.61203966048764 0 0,0 -0.4702131059931332,0.8535733700068143 l -31.04323999417405 -17.450920303647525" fill="#9dff22" stroke="none" /><line stroke="#e1ed5e" stroke-width="0.3" x1="143.8653032363475" x2="146.44561519142675" y1="172.8068346515853" y2="177.08958963109032" /><path d="M 144.38136562736335 173.6633856474863 a86.0,86.0 0 0,1 -40.68145358897372,12.25698825130547" fill="none" id="id6" stroke="none" /><text fill="#e1ed5e" style="font-size:6.75px; font-family:Arial;" text-anchor="middle"><textPath startOffset="21.466115282336833" xlink:href="#id6">June</textPath></text><path d="M 107.2578585660854 119.70592522655815 l 5.698021808236353 15.470788066481308 a37.48674424879326,37.48674424879326 0 0,0 -0.6074288477876253,0.2178023735333999 l -5.430873399818992 -15.56657798105467" fill="#ff3104" stroke="none" /><path d="M 104.48393922423573 120.51570834832081 l 4.544875034210017 20.794512596746884 a42.285385672166015,42.285385672166015 0 0,0 -0.7124252622649607,0.14929564048870078 l -4.1862583105156785 -20.869664217962125" fill="#ff840c" stroke="none" /><path d="M 101.62511606390274 120.93702456842531 l 1.0659628233144907 13.733228239198123 a34.77453573121785,34.77453573121785 0 0,0 -0.597190121966707,0.04118572725299915 l -0.8294099405688533 -13.749542310967406" fill="#ff0000" stroke="none" /><line stroke="#e1ed5e" stroke-width="0.3" x1="102.19456741930631" x2="102.32365962044197" y1="184.97166512339345" y2="189.96999836594603" /><path d="M 102.22038585953345 185.97133177190398 a86.0,86.0 0 0,1 -42.740103519485714,-10.115201625700543" fill="none" id="id7" stroke="none" /><text fill="#e1ed5e" style="font-size:6.75px; font-family:Arial;" text-anchor="middle"><textPath startOffset="22.20632615414155" xlink:href="#id7">July</textPath></text><line stroke="#e1ed5e" stroke-width="0.3" x1="58.666819895761336" x2="56.23545636021788" y1="174.27360380694188" y2="178.64263932499728" /><path d="M 58.180547188652646 175.14741091055294 a86.0,86.0 0 0,1 -31.652253787137756,-30.449443065178592" fill="none" id="id8" stroke="none" /><text fill="#e1ed5e" style="font-size:6.75px; font-family:Arial;" text-anchor="middle"><textPath startOffset="22.20632615414155" xlink:href="#id8">August</textPath></text><path d="M 87.65650970185807 116.9893568818739 l -11.209030033923668 15.427906284710927 a40.06994091839893,40.06994091839893 0 0,0 -0.5545203364441373,-0.4102208881924336 l 11.47293534078637 -15.232675447778727" fill="#ff5f08" stroke="none" /><path d="M 85.44109423537348 115.13401014063109 l -19.75265836930726 20.532925818631142 a49.491552350266446,49.491552350266446 0 0,0 -0.6088640431755814,-0.5959016151412917 l 20.103172364858633 -20.18987410056728" fill="#fff917" stroke="none" /><line stroke="#e1ed5e" stroke-width="0.3" x1="26.63291911575756" x2="22.317208475507996" y1="142.92168965132927" y2="145.44649492493687" /><path d="M 25.769776987707644 143.4266507060508 a86.0,86.0 0 0,1 -11.730757126820373,-40.83630448921669" fill="none" id="id9" stroke="none" /><text fill="#e1ed5e" style="font-size:6.75px; font-family:Arial;" text-anchor="middle"><textPath startOffset="21.46611528233685" xlink:href="#id9">September</textPath></text><path d="M 80.32549172779594 107.34259656027581 l -49.81748639996611 18.59206335533997 a74.17374136751883,74.17374136751883 0 0,0 -0.4361265490172259,-1.2000329539958583 l 50.13013720998856 -17.731782604337994" fill="#3effb2" stroke="none" /><path d="M 79.35854240842038 103.8639653848113 l -30.654719547989487 5.738392004973958 a52.18719245729948,52.18719245729948 0 0,0 -0.15768871551167185,-0.8844020594014261 l 30.748954705840347 -5.209871194839319" fill="#ddff1b" stroke="none" /><path d="M 79.10278846688536 102.07522291339032 l -31.464459162278192 3.1246162440152823 a52.61922543401461,52.61922543401461 0 0,0 -0.08174873682725296,-0.9020904988763767 l 31.513582495382522 -2.5825443565903394" fill="#d6ff1c" stroke="none" /><path d="M 79.0235259727143 100.99374915477108 l -36.3360047867759 1.7213986486788415 a57.37675710082298,57.37675710082298 0 0,0 -0.038245343967916075,-0.9869423884461184 l 36.36025226359502 -1.0956790132187264" fill="#93ff23" stroke="none" /><line stroke="#e1ed5e" stroke-width="0.3" x1="15.007084014347285" x2="10.007500721073583" y1="101.09737516637583" y2="101.16192664675087" /><path d="M 14.007167355692545 101.11028546245083 a86.0,86.0 0 0,1 10.666146001902534,-42.60595125391555" fill="none" id="id10" stroke="none" /><text fill="#e1ed5e" style="font-size:6.75px; font-family:Arial;" text-anchor="middle"><textPath startOffset="22.20632615414155" xlink:href="#id10">October</textPath></text><path d="M 79.00175016825051 100.2711162175752 l -27.622949390892188 0.35665017880711763 a48.62525171653345,48.62525171653345 0 0,0 -0.003602211233048064,-0.8370270293089193 l 27.62499589941474 0.11888632870547705" fill="#ffeb16" stroke="none" /><path d="M 79.00486145842228 99.54816195383935 l -38.53332671548496 -0.8292787885497932 a59.54224916985834,59.54224916985834 0 0,0 0.030872104845691986,-1.0244948625966268 l 38.513342916183625 1.4924437985714143" fill="#75ff27" stroke="none" /><path d="M 79.01574976396665 99.18683210126434 l -28.513517798558425 -1.1049371358525277 a49.5349186668351,49.5349186668351 0 0,0 0.0403506535636502,-0.8517385221393683 l 28.490273536761276 1.5955867646149051" fill="#fff917" stroke="none" /><path d="M 79.03285615573316 98.82574320788736 l -30.21849814844739 -1.6923753164387416 a51.26585145934952,51.26585145934952 0 0,0 0.056928064651789186,-0.880651963205326 l 30.18488949279119 2.2122863438970795" fill="#eaff1a" stroke="none" /><path d="M 79.08570108090925 98.10471618934814 l -62.742896757272284 -5.685851431955563 a84.0,84.0 0 0,0 0.1428914972710853,-1.4388978771822787 l 62.635728134318974 6.7650248398422725" fill="#4dd2ff" stroke="none" /><line stroke="#e1ed5e" stroke-width="0.3" x1="26.266209847984243" x2="21.928928074336255" y1="57.711370442889674" y2="55.22380399835377" /><path d="M 25.398753493254645 57.213857153982495 a86.0,86.0 0 0,1 29.58750427330803,-30.492523968695096" fill="none" id="id11" stroke="none" /><text fill="#e1ed5e" style="font-size:6.75px; font-family:Arial;" text-anchor="middle"><textPath startOffset="21.46611528233685" xlink:href="#id11">November</textPath></text><line stroke="#e1ed5e" stroke-width="0.3" x1="56.762969772571076" x2="54.21961505331055" y1="26.818313649435495" y2="22.513508569990535" /><path d="M 56.25429882871897 25.957352633546506 a86.0,86.0 0 0,1 42.265352541879196,-11.944610805530505" fill="none" id="id12" stroke="none" /><text fill="#e1ed5e" style="font-size:6.75px; font-family:Arial;" text-anchor="middle"><textPath startOffset="22.20632615414155" xlink:href="#id12">December</textPath></text></svg>