<?xml version="1.0" encoding="utf-8" ?>
<svg baseProfile="full" height="200mm" version="1.1" viewBox="0,0,200,200" width="200mm" xmlns="http://www.w3.org/2000/svg" xmlns:ev="http://www.w3.org/2001/xml-events" xmlns:xlink="http://www.w3.org/1999/xlink"><defs /><rect fill="#1a1a1a" height="200" width="200" x="0" y="0" /><text alignment-baseline="middle" fill="#e1ed5e" style="dominant-baseline: central; font-size:9.0px; font-family:Arial;" text-anchor="middle" x="100.0" y="100.0">2021</text><line stroke="#e1ed5e" stroke-width="0.3" x1="100.0" x2="100.0" y1="15.0" y2="10.0" /><path d="M 100.0 14.0 a86.0,86.0 0 0,1 42.46469731375804,11.215312516191453" fill="none" id="id1" stroke="none" /><text fill="#e1ed5e" style="font-size:6.75px; font-family:Arial;" text-anchor="middle"><textPath startOffset="22.20632615414155" xlink:href="#id1">January</textPath></text><path d="M 109.41281617654863 81.2277094730956 l 6.946567217462496 -13.853768683570577 a36.497796709358575,36.497796709358575 0 0,0 0.5591801579692262,0.28643379558700544 l -7.184007863020478 13.73214236267107" fill="#ff2503" stroke="none" /><path d="M 110.36928655335952 81.73862282372117 l 15.098763439900386 -26.590471065928728 a51.578191720931855,51.578191720931855 0 0,0 0.7682774716112969,0.4450359004367533 l -15.554237643977013 26.326631008101927" fill="#e2ff1b" stroke="none" /><line stroke="#e1ed5e" stroke-width="0.3" x1="143.23703022742887" x2="145.7803849466894" y1="26.81831364943548" y2="22.513508569990506" /><path d="M 143.74570117128098 25.957352633546492 a86.0,86.0 0 0,1 28.547481713284135,27.462654790039103" fill="none" id="id2" stroke="none" /><text fill="#e1ed5e" style="font-size:6.75px; font-family:Arial;" text-anchor="middle"><textPath startOffset="19.985693538727396" xlink:href="#id2">February</textPath></text><path d="M 110.99172775467656 82.1063720568725 l 19.33130049728594 -31.469765852603114 a57.932984468277574,57.932984468277574 0 0,0 0.8452169946188282,0.5292748044899541 l -19.870136644277032 31.132346706790216" fill="#89ff25" stroke="none" /><path d="M 114.68862486808459 84.99185889309783 l 10.310469145852588 -10.5347489781387 a35.74064822319468,35.74064822319468 0 0,0 0.43597497874266056,0.43410276363154754 l -10.49027992476257 10.355710363857034" fill="#ff1802" stroke="none" /><line stroke="#e1ed5e" stroke-width="0.3" x1="172.23445277983987" x2="176.4835382374775" y1="55.19839476539836" y2="52.563006222186495" /><path d="M 173.08426987136738 54.67131705675599 a86.0,86.0 0 0,1 12.851231095245387,41.99856678651699" fill="none" id="id3" stroke="none" /><text fill="#e1ed5e" style="font-size:6.75px; font-family:Arial;" text-anchor="middle"><textPath startOffset="22.20632615414155" xlink:href="#id3">March</textPath></text><path d="M 118.3937258080291 89.86733742301442 l 20.09742422797592 -11.071189192116988 a43.945101671748624,43.945101671748624 0 0,0 0.3592865731457305,0.6657034538653236 l -20.285018900340116 10.723604754919204" fill="#ffa50f" stroke="none" /><path d="M 119.85752413597 93.16781622104841 l 20.418615440117364 -7.025232966778703 a42.59337293543817,42.59337293543817 0 0,0 0.23256530515074222,0.6953406609299503 l -20.536518039039876 6.672719202926439" fill="#ff8e0d" stroke="none" /><path d="M 120.08093135843002 93.85539295169968 l 35.678707489993414 -10.917403859618537 a58.311658703286376,58.311658703286376 0 0,0 0.28543307830156767,0.9623384436488098 l -35.86134646540668 10.301636029223198" fill="#83ff25" stroke="none" /><path d="M 120.53481517161879 95.60439243477599 l 18.611646429600246 -3.9839410855908013 a40.03326481174236,40.03326481174236 0 0,0 0.13844018464048138,0.67508350633784 l -18.677465910155725 3.662981923089549" fill="#ff6309" stroke="none" /><path d="M 120.78858239683441 97.02765380044208 l 36.76410491670156 -5.256522327657427 a58.13799183191521,58.13799183191521 0 0,0 0.1331193930486344,0.9918941001223611 l -36.84914030880803 4.622909885470402" fill="#86ff25" stroke="none" /><line stroke="#e1ed5e" stroke-width="0.3" x1="184.98032266829074" x2="189.97916517819016" y1="98.17113171792111" y2="98.06355123074" /><path d="M 185.9800911702706 98.14961562048488 a86.0,86.0 0 0,1 -9.607161424134198,41.387399972396054" fill="none" id="id4" stroke="none" /><text fill="#e1ed5e" style="font-size:6.75px; font-family:Arial;" text-anchor="middle"><textPath startOffset="21.466115282336823" xlink:href="#id4">April</textPath></text><path d="M 120.9904718944345 100.63252640178507 l 30.843867000350077 0.9294483853905899 a51.85786781092287,51.85786781092287 0 0,0 -0.0345666449636745,0.8920115130783481 l -30.8232982225352 -1.4602371454829444" fill="#deff1b" stroke="none" /><path d="M 120.81339534386255 102.79330883721812 l 27.829676995324142 3.7349447989459157 a49.079186852814075,49.079186852814075 0 0,0 -0.11958015098370357,0.8363432974666228 l -27.761262793323837 -4.213433568392948" fill="#fff617" stroke="none" /><path d="M 118.81262510543309 109.33194174019688 l 27.647661724163 13.714533033885207 a51.86230087260631,51.86230087260631 0 0,0 -0.40359077126409826,0.7963228803704565 l -27.407492283112635 -14.188410125958358" fill="#deff1b" stroke="none" /><line stroke="#e1ed5e" stroke-width="0.3" x1="174.80103733775053" x2="179.2010983576182" y1="140.37084112569926" y2="142.7455964860345" /><path d="M 175.68104954172406 140.8457921977663 a86.0,86.0 0 0,1 -30.038265399797805,32.042727171017184" fill="none" id="id5" stroke="none" /><text fill="#e1ed5e" style="font-size:6.75px; font-family:Arial;" text-anchor="middle"><textPath startOffset="22.206326154141568" xlink:href="#id5">May</textPath></text><path d="M 118.48025628344425 109.97397251340804 l 30.959812210880823 16.709309182483327 a56.18111688802428,56.18111688802428 0 0,0 -0.4666339108873156,0.8470760912422594 l -30.667601890542 -17.23975579212339" fill="#a1ff22" stroke="none" /><line stroke="#e1ed5e" stroke-width="0.3" x1="143.8653032363475" x2="146.44561519142675" y1="172.8068346515853" y2="177.08958963109032" /><path d="M 144.38136562736335 173.6633856474863 a86.0,86.0 0 0,1 -40.68145358897372,12.25698825130547" fill="none" id="id6" stroke="none" /><text fill="#e1ed5e" style="font-size:6.75px; font-family:Arial;" text-anchor="middle"><textPath startOffset="21.466115282336833" xlink:href="#id6">June</textPath></text><path d="M 107.2578585660854 119.70592522655815 l 5.559953557629838 15.095916801377399 a37.08725544140793,37.08725544140793 0 0,0 -0.6009555988875976,0.21548129678501432 l -5.299278398112505 -15.189385639202374" fill="#ff3004" stroke="none" /><path d="M 104.48393922423573 120.51570834832081 l 4.4627063388708965 20.418559912145824 a41.90055828806702,41.90055828806702 0 0,0 -0.705941680628293,0.1479369429180536 l -4.110573196813226 -20.492352835790417" fill="#ff830c" stroke="none" /><path d="M 101.62511606390274 120.93702456842531 l 1.0397242262408453 13.395185828705523 a34.435476539824904,34.435476539824904 0 0,0 -0.5913673900278269,0.040784157567431895 l -0.8089940754340881 -13.41109833078924" fill="#ff0000" stroke="none" /><line stroke="#e1ed5e" stroke-width="0.3" x1="102.19456741930631" x2="102.32365962044197" y1="184.97166512339345" y2="189.96999836594603" /><path d="M 102.22038585953345 185.97133177190398 a86.0,86.0 0 0,1 -42.740103519485714,-10.115201625700543" fill="none" id="id7" stroke="none" /><text fill="#e1ed5e" style="font-size:6.75px; font-family:Arial;" text-anchor="middle"><textPath startOffset="22.20632615414155" xlink:href="#id7">July</textPath></text><line stroke="#e1ed5e" stroke-width="0.3" x1="58.666819895761336" x2="56.23545636021788" y1="174.27360380694188" y2="178.64263932499728" /><path d="M 58.180547188652646 175.14741091055294 a86.0,86.0 0 0,1 -31.652253787137756,-30.449443065178592" fill="none" id="id8" stroke="none" /><text fill="#e1ed5e" style="font-size:6.75px; font-family:Arial;" text-anchor="middle"><textPath startOffset="22.20632615414155" xlink:href="#id8">August</textPath></text><path d="M 87.65650970185807 116.9893568818739 l -14.279237655480294 19.65368454711427 a45.2932901085704,45.2932901085704 0 0,0 -0.6268052783210827,-0.4636955601041033 l 14.61542790421994 -19.4049790382704" fill="#ffbb11" stroke="none" /><path d="M 85.44109423537348 115.13401014063109 l -20.90645969154852 21.732304480281595 a51.15581394786104,51.15581394786104 0 0,0 -0.6293384271278528,-0.6159401091251828 l 21.277448071052167 -21.369214268233844" fill="#e9ff1a" stroke="none" /><line stroke="#e1ed5e" stroke-width="0.3" x1="26.63291911575756" x2="22.317208475507996" y1="142.92168965132927" y2="145.44649492493687" /><path d="M 25.769776987707644 143.4266507060508 a86.0,86.0 0 0,1 -11.730757126820373,-40.83630448921669" fill="none" id="id9" stroke="none" /><text fill="#e1ed5e" style="font-size:6.75px; font-family:Arial;" text-anchor="middle"><textPath startOffset="21.46611528233685" xlink:href="#id9">September</textPath></text><path d="M 80.32549172779594 107.34259656027581 l -49.64229863335936 18.52668265689037 a73.98675102205036,73.98675102205036 0 0,0 -0.4350270837271494,-1.1970076977191202 l 49.95384997809173 -17.66942716216513" fill="#3dffb1" stroke="none" /><path d="M 79.35854240842038 103.8639653848113 l -34.577802905828 6.4727712623090135 a56.17841982819098,56.17841982819098 0 0,0 -0.16974860008863718,-0.952040296680505 l 34.684097948255825 -5.876612214895295" fill="#a1ff22" stroke="none" /><path d="M 79.10278846688536 102.07522291339032 l -30.98709186320617 3.077210705933434 a52.13951007751229,52.13951007751229 0 0,0 -0.08100345553306369,-0.8938663818982865 l 31.03546991501631 -2.543362935486581" fill="#daff1c" stroke="none" /><path d="M 79.0235259727143 100.99374915477108 l -36.81550905918775 1.7441149052240819 a57.85679915686874,57.85679915686874 0 0,0 -0.03856532325012393,-0.9951996319239236 l 36.84007651528908 -1.1101380262861615" fill="#8aff24" stroke="none" /><line stroke="#e1ed5e" stroke-width="0.3" x1="15.007084014347285" x2="10.007500721073583" y1="101.09737516637583" y2="101.16192664675087" /><path d="M 14.007167355692545 101.11028546245083 a86.0,86.0 0 0,1 10.666146001902534,-42.60595125391555" fill="none" id="id10" stroke="none" /><text fill="#e1ed5e" style="font-size:6.75px; font-family:Arial;" text-anchor="middle"><textPath startOffset="22.20632615414155" xlink:href="#id10">October</textPath></text><path d="M 79.00175016825051 100.2711162175752 l -27.838307074157175 0.3594307419959735 a48.840627349493424,48.840627349493424 0 0,0 -0.003618166492856199,-0.8407344697822963 l 27.840369537939534 0.11981320598999806" fill="#fff216" stroke="none" /><path d="M 79.00486145842228 99.54816195383935 l -30.954305989143993 -0.6661700807877904 a51.96147350896098,51.96147350896098 0 0,0 0.026941542861927237,-0.8940586458368062 l 30.93825275182642 1.198898874049591" fill="#ddff1b" stroke="none" /><path d="M 79.01574976396665 99.18683210126434 l -27.079329029262354 -1.049360393543377 a48.0996534647694,48.0996534647694 0 0,0 0.03918150076196628,-0.8270595543528728 l 27.057253920266888 1.5153310545192589" fill="#ffe715" stroke="none" /><path d="M 79.03285615573316 98.82574320788736 l -30.681506245224 -1.7183059060546346 a51.729585103975964,51.729585103975964 0 0,0 0.057443016771982436,-0.888618044581512 l 30.647382637447603 2.2461830148891586" fill="#e0ff1b" stroke="none" /><path d="M 79.08570108090925 98.10471618934814 l -62.742896757272284 -5.685851431955563 a84.0,84.0 0 0,0 0.1428914972710853,-1.4388978771822787 l 62.635728134318974 6.7650248398422725" fill="#4dd2ff" stroke="none" /><path d="M 79.12142395522702 97.74499172005258 l -28.539247283055452 -3.082405561986055 a49.705223558299465,49.705223558299465 0 0,0 0.099196589200287,-0.8498557979319057 l 28.48196034085158 3.5732050982428225" fill="#ffff18" stroke="none" /><path d="M 79.16333360222342 97.38593545837743 l -39.04787602529119 -4.898752333736045 a60.35396290735908,60.35396290735908 0 0,0 0.13819333377623402,-1.02970085206746 l 38.95776669245712 5.5701715278681645" fill="#68ff28" stroke="none" /><path d="M 79.32604984820605 96.31383870115002 l -27.23888543186721 -4.856687984905725 a48.66847118568562,48.66847118568562 0 0,0 0.15414991092045893,-0.8234749880311999 l 27.15124979703689 5.324841050399498" fill="#fff016" stroke="none" /><path d="M 79.3925641242962 95.95851677861259 l -24.97991716204541 -4.899004257054665 a46.45577545731598,46.45577545731598 0 0,0 0.16065005345358102,-0.783386714344873 l 24.891887812676835 5.3282666275629404" fill="#ffcd13" stroke="none" /><path d="M 79.62865764111835 94.90015583598534 l -53.95301253097942 -13.506815173972177 a76.61799724290572,76.61799724290572 0 0,0 0.3312950092574532,-1.2766148144085718 l 53.712521189851664 14.433526413929613" fill="#42ffd3" stroke="none" /><path d="M 79.71946130924805 94.55025226153421 l -35.67677700052951 -9.586995579315895 a57.94242684750603,57.94242684750603 0 0,0 0.2671234983014028,-0.9609853487362449 l 35.506466731661746 10.199692231471081" fill="#88ff25" stroke="none" /><path d="M 79.81627453868168 94.20196356495316 l -50.774003345162825 -14.585489775543955 a73.82741643963959,73.82741643963959 0 0,0 0.3613820495939605,-1.2184006185906917 l 50.51541539845716 15.457319780881186" fill="#3dffaf" stroke="none" /><line stroke="#e1ed5e" stroke-width="0.3" x1="26.266209847984243" x2="21.928928074336255" y1="57.711370442889674" y2="55.22380399835377" /><path d="M 25.398753493254645 57.213857153982495 a86.0,86.0 0 0,1 29.58750427330803,-30.492523968695096" fill="none" id="id11" stroke="none" /><text fill="#e1ed5e" style="font-size:6.75px; font-family:Arial;" text-anchor="middle"><textPath startOffset="21.46611528233685" xlink:href="#id11">November</textPath></text><line stroke="#e1ed5e" stroke-width="0.3" x1="56.762969772571076" x2="54.21961505331055" y1="26.818313649435495" y2="22.513508569990535" /><path d="M 56.25429882871897 25.957352633546506 a86.0,86.0 0 0,1 42.265352541879196,-11.944610805530505" fill="none" id="id12" stroke="none" /><text fill="#e1ed5e" style="font-size:6.75px; font-family:Arial;" text-anchor="middle"><textPath startOffset="22.20632615414155" xlink:href="#id12">December</textPath></text></svg>