<?xml version="1.0" encoding="utf-8" ?>
<svg baseProfile="full" height="200mm" version="1.1" viewBox="0,0,200,200" width="200mm" xmlns="http://www.w3.org/2000/svg" xmlns:ev="http://www.w3.org/2001/xml-events" xmlns:xlink="http://www.w3.org/1999/xlink"><defs /><rect fill="#1a1a1a" height="200" width="200" x="0" y="0" /><text alignment-baseline="middle" fill="#e1ed5e" style="dominant-baseline: central; font-size:9.0px; font-family:Arial;" text-anchor="middle" x="100.0" y="100.0">2022</text><line stroke="#e1ed5e" stroke-width="0.3" x1="100.0" x2="100.0" y1="15.0" y2="10.0" /><path d="M 100.0 14.0 a86.0,86.0 0 0,1 42.46469731375804,11.215312516191453" fill="none" id="id13" stroke="none" /><text fill="#e1ed5e" style="font-size:6.75px; font-family:Arial;" text-anchor="middle"><textPath startOffset="22.20632615414155" xlink:href="#id13">January</textPath></text><path d="M 103.59715602781102 79.31037775812273 l 6.631101054795903 -38.13984570330917 a59.712005004535044,59.712005004535044 0 0,0 1.0111371575400314,0.18477885251438103 l -7.286633333438836 38.02005136944405" fill="#76ff27" stroke="none" /><path d="M 103.95276090670814 79.375362276772 l 6.211468971262835 -32.41008001368278 a53.99993383742278,53.99993383742278 0 0,0 0.9113995446921632,0.1828181746634883 l -6.768434925422123 32.298357882942085" fill="#c6ff1e" stroke="none" /><path d="M 105.36241919743992 79.69619591428918 l 13.098881071702921 -49.59647972856218 a72.2970904320732,72.2970904320732 0 0,0 1.2004832398403897,0.3281374179654841 l -13.950662200767022 49.363655769770396" fill="#3bff98" stroke="none" /><path d="M 105.71112130821622 79.79150937346287 l 7.537894376683129 -26.67242729302238 a48.71711076818066,48.71711076818066 0 0,0 0.8050149524195264,0.2350059395747298 l -7.995899546826082 26.538723024528945" fill="#ffe815" stroke="none" /><path d="M 106.74666289553966 80.11325718540242 l 6.795778393490164 -20.031517689387673 a42.15287935278975,42.15287935278975 0 0,0 0.68512077636461,0.2390251861745274 l -7.139581173918049 19.91157165004094" fill="#ff7d0b" stroke="none" /><path d="M 107.4271985657038 80.35727306442388 l 6.758951322567736 -17.87541211205901 a40.11056726412866,40.11056726412866 0 0,0 0.6437112585440289,0.24974996766065768 l -7.065645746111431 17.756419440507806" fill="#ff5908" stroke="none" /><path d="M 107.76421540070413 80.48803036053334 l 23.292646202112408 -58.53590891839998 a84.0,84.0 0 0,0 1.33886452164645,0.5461564552656828 l -24.296794593347244 58.12629157695072" fill="#4dd2ff" stroke="none" /><path d="M 108.43124777332544 80.76684994638697 l 12.534759462381304 -28.593977559129193 a52.22075827765465,52.22075827765465 0 0,0 0.8201590412949719,0.367981454766831 l -13.025100622143055 28.37397577384583" fill="#e0ff1b" stroke="none" /><path d="M 108.76106565485865 80.91482961587045 l 6.672336381741431 -14.535067048052642 a36.993381346122405,36.993381346122405 0 0,0 0.5764304959121076,0.2706418469198337 l -6.9215450889531365 14.418060218492807" fill="#ff2203" stroke="none" /><line stroke="#e1ed5e" stroke-width="0.3" x1="143.23703022742887" x2="145.7803849466894" y1="26.81831364943548" y2="22.513508569990506" /><path d="M 143.74570117128098 25.957352633546492 a86.0,86.0 0 0,1 28.547481713284135,27.462654790039103" fill="none" id="id14" stroke="none" /><text fill="#e1ed5e" style="font-size:6.75px; font-family:Arial;" text-anchor="middle"><textPath startOffset="19.985693538727396" xlink:href="#id14">February</textPath></text><path d="M 110.68208982089419 81.91981866633111 l 7.2050986092020635 -12.195131436409692 a35.1645570604814,35.1645570604814 0 0,0 0.5184895614561641,0.312384159358039 l -7.413950236875865 12.069300667593039" fill="#ff0000" stroke="none" /><path d="M 112.48926042617603 83.11751280151076 l 15.036025120190834 -20.32510276395182 a46.282243843856335,46.282243843856335 0 0,0 0.636389329647901,0.4793152493563751 l -15.383660603597118 20.063270925089597" fill="#ffc112" stroke="none" /><path d="M 116.60985879189232 87.15038557335679 l 23.201342726489294 -17.948876745497323 a50.3336748590604,50.3336748590604 0 0,0 0.5242469385053887,0.6898475195376979 l -23.506865605218795 17.54684445007859" fill="#fdff18" stroke="none" /><line stroke="#e1ed5e" stroke-width="0.3" x1="172.23445277983987" x2="176.4835382374775" y1="55.19839476539836" y2="52.563006222186495" /><path d="M 173.08426987136738 54.67131705675599 a86.0,86.0 0 0,1 12.851231095245387,41.99856678651699" fill="none" id="id15" stroke="none" /><text fill="#e1ed5e" style="font-size:6.75px; font-family:Arial;" text-anchor="middle"><textPath startOffset="22.20632615414155" xlink:href="#id15">March</textPath></text><path d="M 117.84615892207809 88.93136811851018 l 21.241129113960366 -13.174276881439203 a45.994942236075644,45.994942236075644 0 0,0 0.41151061928077687,0.676415258665662 l -21.464755531527366 12.806693849566459" fill="#ffbd11" stroke="none" /><path d="M 119.85752413597 93.16781622104841 l 37.22412497241156 -12.807339982606232 a60.36576478860506,60.36576478860506 0 0,0 0.3296048549618214,0.9854765634380432 l -37.43906712114515 12.164690316245876" fill="#6dff28" stroke="none" /><path d="M 120.94382443527127 98.46500227214037 l 39.58999287736858 -2.9015975234397406 a60.696181229661455,60.696181229661455 0 0,0 0.06739995593164733,1.042647486335973 l -39.63407342430464 2.219690972850733" fill="#69ff28" stroke="none" /><path d="M 120.98425023603335 99.18683210126433 l 44.667729716365635 -1.7309345583564588 a65.70125515530415,65.70125515530415 0 0,0 0.034065492418027456,1.1304678494885032 l -44.69090690323931 0.9617965614429566" fill="#30ff37" stroke="none" /><line stroke="#e1ed5e" stroke-width="0.3" x1="184.98032266829074" x2="189.97916517819016" y1="98.17113171792111" y2="98.06355123074" /><path d="M 185.9800911702706 98.14961562048488 a86.0,86.0 0 0,1 -9.607161424134198,41.387399972396054" fill="none" id="id16" stroke="none" /><text fill="#e1ed5e" style="font-size:6.75px; font-family:Arial;" text-anchor="middle"><textPath startOffset="21.466115282336823" xlink:href="#id16">April</textPath></text><line stroke="#e1ed5e" stroke-width="0.3" x1="174.80103733775053" x2="179.2010983576182" y1="140.37084112569926" y2="142.7455964860345" /><path d="M 175.68104954172406 140.8457921977663 a86.0,86.0 0 0,1 -30.038265399797805,32.042727171017184" fill="none" id="id17" stroke="none" /><text fill="#e1ed5e" style="font-size:6.75px; font-family:Arial;" text-anchor="middle"><textPath startOffset="22.206326154141568" xlink:href="#id17">May</textPath></text><line stroke="#e1ed5e" stroke-width="0.3" x1="143.8653032363475" x2="146.44561519142675" y1="172.8068346515853" y2="177.08958963109032" /><path d="M 144.38136562736335 173.6633856474863 a86.0,86.0 0 0,1 -40.68145358897372,12.25698825130547" fill="none" id="id18" stroke="none" /><text fill="#e1ed5e" style="font-size:6.75px; font-family:Arial;" text-anchor="middle"><textPath startOffset="21.466115282336833" xlink:href="#id18">June</textPath></text><line stroke="#e1ed5e" stroke-width="0.3" x1="102.19456741930631" x2="102.32365962044197" y1="184.97166512339345" y2="189.96999836594603" /><path d="M 102.22038585953345 185.97133177190398 a86.0,86.0 0 0,1 -42.740103519485714,-10.115201625700543" fill="none" id="id19" stroke="none" /><text fill="#e1ed5e" style="font-size:6.75px; font-family:Arial;" text-anchor="middle"><textPath startOffset="22.20632615414155" xlink:href="#id19">July</textPath></text><line stroke="#e1ed5e" stroke-width="0.3" x1="58.666819895761336" x2="56.23545636021788" y1="174.27360380694188" y2="178.64263932499728" /><path d="M 58.180547188652646 175.14741091055294 a86.0,86.0 0 0,1 -31.652253787137756,-30.449443065178592" fill="none" id="id20" stroke="none" /><text fill="#e1ed5e" style="font-size:6.75px; font-family:Arial;" text-anchor="middle"><textPath startOffset="22.20632615414155" xlink:href="#id20">August</textPath></text><line stroke="#e1ed5e" stroke-width="0.3" x1="26.63291911575756" x2="22.317208475507996" y1="142.92168965132927" y2="145.44649492493687" /><path d="M 25.769776987707644 143.4266507060508 a86.0,86.0 0 0,1 -11.730757126820373,-40.83630448921669" fill="none" id="id21" stroke="none" /><text fill="#e1ed5e" style="font-size:6.75px; font-family:Arial;" text-anchor="middle"><textPath startOffset="21.46611528233685" xlink:href="#id21">September</textPath></text><line stroke="#e1ed5e" stroke-width="0.3" x1="15.007084014347285" x2="10.007500721073583" y1="101.09737516637583" y2="101.16192664675087" /><path d="M 14.007167355692545 101.11028546245083 a86.0,86.0 0 0,1 10.666146001902534,-42.60595125391555" fill="none" id="id22" stroke="none" /><text fill="#e1ed5e" style="font-size:6.75px; font-family:Arial;" text-anchor="middle"><textPath startOffset="22.20632615414155" xlink:href="#id22">October</textPath></text><line stroke="#e1ed5e" stroke-width="0.3" x1="26.266209847984243" x2="21.928928074336255" y1="57.711370442889674" y2="55.22380399835377" /><path d="M 25.398753493254645 57.213857153982495 a86.0,86.0 0 0,1 29.58750427330803,-30.492523968695096" fill="none" id="id23" stroke="none" /><text fill="#e1ed5e" style="font-size:6.75px; font-family:Arial;" text-anchor="middle"><textPath startOffset="21.46611528233685" xlink:href="#id23">November</textPath></text><line stroke="#e1ed5e" stroke-width="0.3" x1="56.762969772571076" x2="54.21961505331055" y1="26.818313649435495" y2="22.513508569990535" /><path d="M 56.25429882871897 25.957352633546506 a86.0,86.0 0 0,1 42.265352541879196,-11.944610805530505" fill="none" id="id24" stroke="none" /><text fill="#e1ed5e" style="font-size:6.75px; font-family:Arial;" text-anchor="middle"><textPath startOffset="22.20632615414155" xlink:href="#id24">December</textPath></text></svg>